<svg width="292" height="72" viewBox="0 0 292 72" fill="none" xmlns="http://www.w3.org/2000/svg">
<g clip-path="url(#clip0_1910_4443)">
<path d="M124.48 57.6602C124.913 57.7818 125.361 57.839 125.81 57.8302C126.167 57.8337 126.522 57.7968 126.87 57.7202C126.522 57.7968 126.167 57.8337 125.81 57.8302C125.361 57.839 124.913 57.7818 124.48 57.6602Z" fill="#BABBB4"/>
<path d="M137.039 54.8298L136.669 54.6998L136.809 54.6398C137.032 54.5541 137.226 54.4074 137.369 54.2163C137.513 54.0253 137.599 53.7978 137.619 53.5598C137.649 53.3237 137.61 53.0841 137.507 52.8696C137.404 52.655 137.242 52.4746 137.039 52.3498C136.69 52.1279 136.283 52.0132 135.869 52.0198H132.389C132.289 52.0198 132.299 52.0798 132.299 52.1398V57.6898C132.299 57.6898 132.299 57.7598 132.299 57.7898H132.379C133.479 57.7898 134.579 57.7898 135.679 57.7898C135.959 57.7883 136.238 57.7513 136.509 57.6798C136.876 57.6068 137.208 57.4102 137.448 57.1227C137.688 56.8353 137.823 56.4743 137.829 56.0998C137.861 55.8299 137.8 55.5574 137.656 55.3267C137.513 55.096 137.295 54.9208 137.039 54.8298ZM133.639 53.1398H133.749C134.319 53.1398 134.879 53.1398 135.439 53.1398C135.588 53.1477 135.735 53.1712 135.879 53.2098C135.972 53.2467 136.052 53.3107 136.109 53.3936C136.165 53.4766 136.195 53.5745 136.195 53.6748C136.195 53.7751 136.165 53.873 136.109 53.956C136.052 54.0389 135.972 54.1029 135.879 54.1398C135.761 54.184 135.636 54.2077 135.509 54.2098C134.909 54.2098 134.309 54.2098 133.709 54.2098H133.639V53.1398ZM135.729 56.5798H133.629V55.3498C133.629 55.2798 133.629 55.2498 133.719 55.2498H135.719C136.119 55.2498 136.369 55.4898 136.379 55.8198C136.392 55.915 136.384 56.0119 136.356 56.1039C136.329 56.1959 136.281 56.2808 136.218 56.3529C136.154 56.425 136.076 56.4826 135.988 56.5217C135.9 56.5609 135.805 56.5807 135.709 56.5798H135.729Z" fill="#BABBB4"/>
<path d="M127.24 52.1103C126.27 51.7679 125.211 51.7679 124.24 52.1103C123.847 52.2356 123.492 52.458 123.207 52.7568C122.922 53.0556 122.717 53.4214 122.611 53.8203C122.471 54.3212 122.44 54.8464 122.52 55.3603C122.562 55.8371 122.739 56.2922 123.029 56.6728C123.319 57.0533 123.712 57.3437 124.16 57.5103L124.451 57.6203C124.883 57.7419 125.331 57.7992 125.781 57.7903C126.137 57.7938 126.492 57.7569 126.841 57.6803H126.99C127.401 57.5925 127.783 57.4052 128.104 57.1349C128.425 56.8646 128.674 56.5196 128.83 56.1303C129.057 55.5659 129.129 54.9517 129.04 54.3503C128.998 53.8401 128.804 53.3543 128.483 52.9552C128.162 52.5561 127.73 52.2619 127.24 52.1103ZM127.591 55.4603C127.515 55.7251 127.363 55.9615 127.152 56.1396C126.942 56.3176 126.684 56.4292 126.41 56.4603L125.811 56.5303C125.502 56.5203 125.196 56.4698 124.9 56.3803C124.675 56.3124 124.473 56.1828 124.318 56.0061C124.162 55.8293 124.059 55.6125 124.02 55.3803C123.916 54.9668 123.916 54.5337 124.02 54.1203C124.072 53.9165 124.174 53.729 124.318 53.5752C124.461 53.4213 124.641 53.3062 124.841 53.2403C125.416 53.0551 126.035 53.0551 126.611 53.2403C126.89 53.3133 127.137 53.4743 127.318 53.6995C127.498 53.9247 127.601 54.202 127.611 54.4903C127.669 54.8117 127.662 55.1416 127.591 55.4603Z" fill="#BABBB4"/>
<path d="M175.209 52.1103C174.239 51.7679 173.18 51.7679 172.209 52.1103C171.816 52.2356 171.46 52.458 171.176 52.7568C170.891 53.0556 170.686 53.4214 170.579 53.8203C170.439 54.3212 170.409 54.8464 170.489 55.3603C170.531 55.8371 170.708 56.2922 170.998 56.6728C171.288 57.0533 171.681 57.3437 172.129 57.5103L172.419 57.6203C172.852 57.7419 173.3 57.7992 173.749 57.7903C174.106 57.7938 174.461 57.7569 174.809 57.6803H174.959C175.369 57.5925 175.752 57.4052 176.073 57.1349C176.394 56.8646 176.643 56.5196 176.799 56.1303C177.035 55.5687 177.118 54.9544 177.039 54.3503C176.994 53.8364 176.796 53.3479 176.469 52.9484C176.143 52.5489 175.704 52.2568 175.209 52.1103ZM175.559 55.4603C175.484 55.7251 175.331 55.9615 175.121 56.1396C174.911 56.3176 174.653 56.4292 174.379 56.4603L173.779 56.5303C173.471 56.5203 173.165 56.4698 172.869 56.3803C172.645 56.3104 172.444 56.1801 172.289 56.0038C172.134 55.8274 172.03 55.6117 171.989 55.3803C171.884 54.9668 171.884 54.5337 171.989 54.1203C172.041 53.9165 172.143 53.729 172.286 53.5752C172.43 53.4213 172.61 53.3062 172.809 53.2403C173.385 53.0551 174.004 53.0551 174.579 53.2403C174.858 53.3133 175.106 53.4743 175.286 53.6995C175.467 53.9247 175.569 54.202 175.579 54.4903C175.638 54.8117 175.631 55.1416 175.559 55.4603Z" fill="#BABBB4"/>
<path d="M158.16 55.5802C158.446 55.467 158.703 55.2891 158.91 55.0602C159.088 54.8563 159.217 54.614 159.286 54.352C159.356 54.0901 159.364 53.8157 159.31 53.5502C159.287 53.237 159.168 52.9385 158.969 52.6952C158.77 52.4519 158.502 52.2756 158.2 52.1902C157.829 52.0641 157.441 51.9966 157.05 51.9902H153.95C153.85 51.9902 153.85 52.0502 153.85 52.1202V57.6402C153.85 57.6402 153.85 57.7202 153.85 57.7602H155.16V55.8602H156.61C156.61 55.8602 156.68 55.8602 156.71 55.9402L157.71 57.6702C157.726 57.7006 157.75 57.7255 157.781 57.7416C157.811 57.7577 157.845 57.7642 157.88 57.7602H159.36C158.9 57.0502 158.46 56.3502 158 55.6502L158.16 55.5802ZM157.62 54.4102C157.42 54.529 157.192 54.5912 156.96 54.5902C156.68 54.5902 156.4 54.5902 156.11 54.5902H155.28C155.2 54.5902 155.17 54.5902 155.17 54.4902V53.3502C155.17 53.2902 155.17 53.2402 155.25 53.2402H157.13C157.278 53.252 157.424 53.2892 157.56 53.3502C157.659 53.3894 157.745 53.4584 157.804 53.5479C157.863 53.6374 157.893 53.743 157.89 53.8502C157.905 53.9598 157.888 54.0715 157.839 54.1711C157.791 54.2708 157.715 54.354 157.62 54.4102Z" fill="#BABBB4"/>
<path d="M119.729 54.3499H116.579V55.4599H118.409C118.409 55.7299 118.409 55.9899 118.409 56.2499C118.413 56.2762 118.412 56.3031 118.406 56.329C118.4 56.3549 118.388 56.3792 118.372 56.4007C118.357 56.4221 118.337 56.4401 118.314 56.4537C118.291 56.4673 118.265 56.4762 118.239 56.4799C117.592 56.7087 116.886 56.7087 116.239 56.4799C116.017 56.4075 115.819 56.2763 115.666 56.1002C115.513 55.9241 115.41 55.7097 115.369 55.4799C115.316 55.2235 115.292 54.9617 115.299 54.6999C115.288 54.3762 115.39 54.0588 115.587 53.8017C115.784 53.5446 116.064 53.3637 116.379 53.2899C117.221 53.039 118.127 53.1103 118.919 53.4899C119.04 53.5419 119.157 53.6021 119.269 53.6699C119.269 53.6699 119.269 53.5799 119.269 53.5499C119.269 53.1699 119.269 52.7899 119.269 52.4099C119.275 52.3742 119.267 52.3376 119.246 52.3077C119.226 52.2779 119.195 52.2572 119.159 52.2499C118.688 52.0597 118.187 51.9514 117.679 51.9299C117.057 51.8757 116.431 51.9333 115.829 52.0999C115.433 52.1958 115.064 52.3833 114.754 52.6472C114.443 52.9112 114.198 53.2443 114.039 53.6199C113.832 54.1716 113.767 54.7664 113.849 55.3499C113.891 55.8618 114.086 56.3491 114.409 56.7486C114.732 57.148 115.168 57.4412 115.659 57.5899C116.428 57.8507 117.251 57.9093 118.049 57.7599C118.629 57.6837 119.18 57.4599 119.649 57.1099C119.677 57.0938 119.7 57.0704 119.716 57.0422C119.732 57.0141 119.74 56.9822 119.739 56.9499C119.739 56.0999 119.739 55.2499 119.739 54.4099C119.739 54.3499 119.729 54.3499 119.729 54.3499Z" fill="#BABBB4"/>
<path d="M166.6 51.98V55.43C166.563 55.4079 166.532 55.377 166.51 55.34L164.23 52.07C164.211 52.0378 164.183 52.0115 164.149 51.9939C164.116 51.9763 164.078 51.968 164.04 51.97H162.57V57.74H163.84V53.82C163.915 53.8893 163.982 53.9664 164.04 54.05L166.55 57.64C166.55 57.64 166.62 57.73 166.66 57.73H167.75V51.98H166.6Z" fill="#BABBB4"/>
<path d="M149.301 56.5505H147.481C147.381 56.5505 147.351 56.5505 147.351 56.4105C147.351 56.1205 147.351 55.8305 147.351 55.5405V55.4205H150.041V54.1905H147.501C147.401 54.1905 147.371 54.1905 147.371 54.0605C147.371 53.8105 147.371 53.5505 147.371 53.3005C147.371 53.0505 147.371 53.1605 147.511 53.1605H150.391C150.541 53.1605 150.541 53.1605 150.541 53.0205V51.9805H145.971V57.7405H150.621V56.5505H149.321H149.301Z" fill="#BABBB4"/>
<path d="M141.12 51.9697C141.01 51.9697 140.98 51.9697 140.98 52.0997C140.98 53.9397 140.98 55.7797 140.98 57.6197V57.7397H142.37V51.9697H141.11H141.12Z" fill="#BABBB4"/>
<path d="M187.771 52C186.831 52 185.891 52 184.951 52H184.881V57.77H187.341C187.581 57.77 187.831 57.77 188.061 57.77C188.737 57.6955 189.367 57.3879 189.841 56.9C190.091 56.6327 190.286 56.3181 190.413 55.9746C190.54 55.6312 190.597 55.2658 190.581 54.9C190.605 54.535 190.553 54.1691 190.429 53.825C190.305 53.4808 190.112 53.166 189.861 52.9C189.591 52.6168 189.267 52.3911 188.908 52.2364C188.549 52.0818 188.162 52.0014 187.771 52ZM188.961 55.69C188.85 55.9086 188.684 56.094 188.478 56.2274C188.273 56.3609 188.036 56.4377 187.791 56.45C187.301 56.45 186.791 56.45 186.311 56.45V53.28C186.888 53.2332 187.469 53.2567 188.041 53.35C188.333 53.4041 188.599 53.5529 188.798 53.7734C188.997 53.994 189.117 54.274 189.141 54.57C189.19 54.9529 189.128 55.3419 188.961 55.69Z" fill="#BABBB4"/>
<path d="M225.66 54.59C225.381 54.4215 225.072 54.3094 224.75 54.26C224.26 54.17 223.75 54.12 223.28 54.03C223.08 53.9945 222.885 53.934 222.7 53.85C222.643 53.8237 222.594 53.7814 222.56 53.7282C222.526 53.675 222.508 53.6132 222.508 53.55C222.508 53.4868 222.526 53.4249 222.56 53.3718C222.594 53.3186 222.643 53.2763 222.7 53.25C222.802 53.1873 222.913 53.1433 223.03 53.12C223.825 52.9785 224.643 53.051 225.4 53.33C225.57 53.39 225.73 53.47 225.91 53.55V52.47C225.91 52.22 225.91 52.22 225.67 52.14C224.99 51.954 224.285 51.8763 223.58 51.91C223.052 51.9006 222.528 51.9993 222.04 52.2C221.765 52.2891 221.522 52.4587 221.344 52.6868C221.166 52.9149 221.06 53.1912 221.04 53.48C220.993 53.8047 221.061 54.1359 221.233 54.4155C221.404 54.6952 221.669 54.9056 221.98 55.01C222.303 55.127 222.639 55.2043 222.98 55.24C223.37 55.24 223.77 55.33 224.16 55.4C224.318 55.4275 224.47 55.4816 224.61 55.56C224.683 55.5975 224.743 55.6577 224.779 55.7316C224.815 55.8056 224.826 55.8892 224.81 55.97C224.805 56.0548 224.779 56.1369 224.733 56.2087C224.688 56.2804 224.625 56.3394 224.55 56.38C224.401 56.4546 224.243 56.5116 224.08 56.55C223.663 56.6149 223.238 56.6149 222.82 56.55C222.191 56.5138 221.582 56.3176 221.05 55.98H220.99C220.99 56.46 220.99 56.92 220.99 57.39C220.994 57.4081 221.003 57.425 221.015 57.439C221.027 57.453 221.043 57.4637 221.06 57.47C221.216 57.5319 221.377 57.582 221.54 57.62C222.194 57.7815 222.867 57.8555 223.54 57.84C224.084 57.853 224.624 57.7578 225.13 57.56C225.493 57.4297 225.803 57.1841 226.012 56.8607C226.222 56.5374 226.319 56.1542 226.29 55.77C226.295 55.5358 226.239 55.3045 226.129 55.0979C226.019 54.8913 225.857 54.7164 225.66 54.59Z" fill="#BABBB4"/>
<path d="M217.52 56.5605H214.52C214.43 56.5605 214.4 56.5605 214.4 56.4405C214.4 56.1505 214.4 55.8505 214.4 55.5505C214.4 55.5505 214.4 55.4805 214.4 55.4405H216.95C217.04 55.4405 217.07 55.4405 217.07 55.3305C217.07 54.9905 217.07 54.6505 217.07 54.3305C217.07 54.3305 217.07 54.2605 217.07 54.2105H214.41V53.2105H217.57V53.0505C217.57 52.7405 217.57 52.4205 217.57 52.1105C217.57 52.0105 217.57 51.9805 217.44 51.9805H213.11C213.01 51.9805 212.99 51.9805 212.99 52.1105V57.7505H217.64C217.64 57.7505 217.64 57.6705 217.64 57.6305V56.7105C217.67 56.5605 217.67 56.5605 217.52 56.5605Z" fill="#BABBB4"/>
<path d="M197.04 56.5603H195.22C195.11 56.5603 195.08 56.5603 195.08 56.4303C195.08 56.1403 195.08 55.8503 195.08 55.5603V55.4403H197.74V54.2003H195.2C195.1 54.2003 195.07 54.2003 195.07 54.0803C195.07 53.8303 195.07 53.5803 195.07 53.3303C195.07 53.0803 195.07 53.1803 195.21 53.1803H198.09C198.24 53.1803 198.24 53.1803 198.24 53.0303V52.0303H193.67V57.7503H198.32V56.5603H197.04Z" fill="#BABBB4"/>
<path d="M234.279 52.1105C234.279 52.0105 234.279 51.9805 234.139 51.9805H228.699V53.1005C228.699 53.2005 228.699 53.2205 228.819 53.2205H230.649C230.769 53.2205 230.789 53.2205 230.789 53.3605V57.7505H232.199V53.2205H234.199C234.289 53.2205 234.319 53.2205 234.319 53.1005C234.286 52.7738 234.273 52.4438 234.279 52.1105Z" fill="#BABBB4"/>
<path d="M203.041 56.3498V52.1498C203.041 52.0098 203.041 52.0098 202.901 52.0098H201.641V57.7498H205.701V56.4698H203.041V56.3498Z" fill="#BABBB4"/>
<path d="M260.361 54.0796C260.281 53.6306 260.079 53.2123 259.777 52.8702C259.476 52.5281 259.086 52.2753 258.651 52.1396C257.68 51.7972 256.621 51.7972 255.651 52.1396C255.259 52.2696 254.906 52.4962 254.624 52.7986C254.343 53.1009 254.142 53.4692 254.041 53.8696C253.906 54.3679 253.875 54.8888 253.951 55.3996C253.991 55.8781 254.166 56.3354 254.457 56.7179C254.747 57.1004 255.14 57.3923 255.591 57.5596C256.109 57.7518 256.658 57.8467 257.211 57.8396C257.59 57.8032 257.967 57.7465 258.341 57.6696C258.843 57.5798 259.307 57.3411 259.673 56.9845C260.038 56.628 260.288 56.1699 260.391 55.6696C260.505 55.1445 260.494 54.6 260.361 54.0796ZM258.941 55.4696C258.869 55.7364 258.717 55.975 258.507 56.1537C258.296 56.3323 258.036 56.4425 257.761 56.4696C257.561 56.4696 257.351 56.4696 257.151 56.5396C256.841 56.5402 256.534 56.4895 256.241 56.3896C256.018 56.3192 255.818 56.1885 255.665 56.0121C255.511 55.8356 255.409 55.6202 255.371 55.3896C255.261 54.9802 255.261 54.549 255.371 54.1396C255.421 53.935 255.522 53.7466 255.666 53.5925C255.809 53.4384 255.99 53.3238 256.191 53.2596C256.766 53.0744 257.385 53.0744 257.961 53.2596C258.237 53.3301 258.484 53.4878 258.664 53.7093C258.844 53.9308 258.948 54.2044 258.961 54.4896C259.018 54.8144 259.011 55.1473 258.941 55.4696Z" fill="#BABBB4"/>
<path d="M248.31 52C247.38 52 246.44 52 245.51 52H245.43V57.75H248.04C248.281 57.7499 248.522 57.7298 248.76 57.69C249.129 57.6365 249.483 57.5099 249.803 57.3176C250.122 57.1253 250.4 56.8711 250.62 56.57C250.944 56.1284 251.126 55.5979 251.14 55.05C251.176 54.679 251.137 54.3046 251.025 53.949C250.913 53.5934 250.731 53.2638 250.49 52.98C250.215 52.6731 249.879 52.4273 249.504 52.2585C249.128 52.0896 248.721 52.0016 248.31 52ZM249.31 56C249.02 56.2878 248.628 56.4495 248.22 56.45H246.88V53.28H246.95H248.19C248.398 53.2753 248.605 53.3118 248.799 53.3873C248.992 53.4628 249.17 53.5759 249.32 53.72C249.461 53.8687 249.57 54.0449 249.641 54.2375C249.711 54.4301 249.742 54.6352 249.73 54.84C249.735 55.0582 249.696 55.2752 249.615 55.478C249.534 55.6808 249.413 55.8651 249.26 56.02L249.31 56Z" fill="#BABBB4"/>
<path d="M240.26 52.0796C240.252 52.0468 240.233 52.018 240.205 51.9994C240.177 51.9807 240.143 51.9736 240.11 51.9796C239.58 51.9796 239.05 51.9796 238.52 51.9796C238.484 51.9737 238.447 51.9818 238.417 52.0024C238.388 52.0229 238.367 52.0541 238.36 52.0896C237.626 53.9296 236.89 55.7696 236.15 57.6096C236.13 57.6585 236.113 57.7086 236.1 57.7596H237.51C237.51 57.7596 237.59 57.7096 237.6 57.6796C237.73 57.3496 237.85 57.0196 237.97 56.6796C237.977 56.6487 237.995 56.6215 238.021 56.6031C238.046 56.5847 238.078 56.5764 238.11 56.5796C238.89 56.5796 239.67 56.5796 240.45 56.5796C240.53 56.5796 240.56 56.5796 240.59 56.6896C240.71 57.0096 240.84 57.3396 240.95 57.6896C240.957 57.7224 240.976 57.7512 241.004 57.7698C241.032 57.7885 241.067 57.7956 241.1 57.7896H242.53C242.527 57.753 242.527 57.7162 242.53 57.6796L240.26 52.0796ZM238.45 55.4096C238.72 54.6796 239 53.9496 239.28 53.1796C239.56 53.9396 239.84 54.6696 240.11 55.4096H238.45Z" fill="#BABBB4"/>
<path d="M84.5804 46.0497H82.9304V45.9597C83.235 45.7583 83.461 45.4581 83.5704 45.1097C83.7201 44.5016 83.784 43.8755 83.7604 43.2497V28.1897C83.7724 27.5692 83.6983 26.95 83.5404 26.3497C83.4281 26.0028 83.2028 25.7035 82.9004 25.4997V25.4097H92.9004C95.5953 25.342 98.2816 25.7412 100.84 26.5897C102.786 27.2273 104.498 28.428 105.76 30.0397C106.924 31.6736 107.518 33.6449 107.45 35.6497C107.516 37.6807 106.927 39.6789 105.77 41.3497C104.531 43.0033 102.814 44.2357 100.85 44.8797C98.2916 45.7283 95.6053 46.1275 92.9104 46.0597L84.5804 46.0497ZM93.0404 41.4497C94.5784 41.4876 96.1113 41.2575 97.5704 40.7697C98.679 40.4015 99.6488 39.7037 100.35 38.7697C100.994 37.841 101.32 36.729 101.28 35.5997C101.318 34.4986 100.991 33.4159 100.35 32.5197C99.6368 31.6181 98.668 30.9525 97.5704 30.6097C96.107 30.1428 94.576 29.9231 93.0404 29.9597H89.9504V41.4497H93.0404Z" fill="#52545B"/>
<path d="M125.309 46.5196C121.456 46.5196 118.559 45.793 116.619 44.3396C115.64 43.572 114.863 42.5768 114.356 41.4405C113.849 40.3042 113.627 39.0612 113.709 37.8196V28.1896C113.736 27.5631 113.669 26.9362 113.509 26.3296C113.386 25.9857 113.159 25.6887 112.859 25.4796V25.3896H120.769V25.4796C120.467 25.6834 120.242 25.9827 120.129 26.3296C119.975 26.9369 119.911 27.5637 119.939 28.1896V37.8996C119.897 38.4443 119.985 38.9912 120.195 39.4954C120.405 39.9996 120.732 40.4466 121.149 40.7996C122.382 41.5384 123.818 41.8675 125.249 41.7396C126.7 41.8728 128.156 41.5438 129.409 40.7996C129.826 40.4466 130.153 39.9996 130.364 39.4954C130.574 38.9912 130.662 38.4443 130.619 37.8996V28.1896C130.648 27.5637 130.584 26.9369 130.429 26.3296C130.317 25.9855 130.096 25.6872 129.799 25.4796V25.3896H137.209V25.4796C136.893 25.6753 136.656 25.9763 136.539 26.3296C136.385 26.9369 136.321 27.5637 136.349 28.1896V37.8196C136.349 40.7296 135.409 42.9096 133.549 44.3496C131.689 45.7896 129.039 46.5196 125.309 46.5196Z" fill="#52545B"/>
<path d="M145.211 46.0498H143.551V45.9598C143.855 45.7583 144.081 45.4582 144.191 45.1098C144.346 44.5025 144.41 43.8757 144.381 43.2498V28.1898C144.41 27.5638 144.346 26.937 144.191 26.3298C144.079 25.9828 143.853 25.6835 143.551 25.4798V25.3898H156.181C158.249 25.3429 160.313 25.5716 162.321 26.0698C163.709 26.3846 164.973 27.1051 165.951 28.1398C166.775 29.0958 167.207 30.3283 167.161 31.5898C167.197 32.2764 167.094 32.9632 166.858 33.6092C166.623 34.2552 166.26 34.8471 165.791 35.3498C164.665 36.3766 163.195 36.9439 161.671 36.9398V37.0298C162.715 37.212 163.701 37.6367 164.551 38.2698C165.198 38.8024 165.651 39.5334 165.841 40.3498L166.721 43.8698C166.835 44.3567 167.003 44.8295 167.221 45.2798C167.38 45.5539 167.591 45.7949 167.841 45.9898V46.0498H160.841L159.891 41.7698C159.836 41.4069 159.707 41.0592 159.513 40.7479C159.319 40.4367 159.063 40.1684 158.761 39.9598C158.032 39.5324 157.194 39.3305 156.351 39.3798H150.351V43.2498C150.322 43.8757 150.386 44.5025 150.541 45.1098C150.65 45.4582 150.876 45.7583 151.181 45.9598V46.0498H145.251H145.211ZM156.421 35.0498C157.553 35.1267 158.687 34.9096 159.711 34.4198C160.06 34.2052 160.343 33.8983 160.528 33.5329C160.713 33.1676 160.794 32.7581 160.761 32.3498C160.777 31.9572 160.683 31.5678 160.491 31.2253C160.298 30.8827 160.014 30.6004 159.671 30.4098C158.577 29.9157 157.378 29.6993 156.181 29.7798H150.341V35.0298L156.421 35.0498Z" fill="#52545B"/>
<path d="M173.66 46.0496H171.66V45.9596C171.957 45.8081 172.212 45.5846 172.4 45.3096C172.708 44.8374 172.966 44.3347 173.17 43.8096L180.34 27.6296C180.575 27.1605 180.721 26.6519 180.77 26.1296C180.774 25.9903 180.734 25.8532 180.658 25.7369C180.581 25.6207 180.47 25.5309 180.34 25.4796V25.3896H191.04V25.4796C190.911 25.5309 190.8 25.6207 190.723 25.7369C190.646 25.8532 190.607 25.9903 190.61 26.1296C190.66 26.6519 190.805 27.1605 191.04 27.6296L198.18 43.8096C198.381 44.3366 198.639 44.8397 198.95 45.3096C199.139 45.5846 199.393 45.8081 199.69 45.9596V46.0496H191.69V45.9596C191.821 45.9088 191.933 45.8194 192.012 45.7033C192.09 45.5872 192.132 45.4499 192.13 45.3096C192.105 44.7893 191.976 44.2792 191.75 43.8096L190.86 41.8096H180.24L179.35 43.8096C179.146 44.2974 179.041 44.8209 179.04 45.3496C179.047 45.4906 179.094 45.6266 179.175 45.7418C179.257 45.857 179.37 45.9464 179.5 45.9996V46.0896H173.72L173.66 46.0496ZM181.74 37.5496H189.21L185.43 28.7796L181.74 37.5496Z" fill="#52545B"/>
<path d="M210.641 43.2196C210.612 43.8501 210.683 44.4812 210.851 45.0896C210.959 45.4467 211.176 45.7612 211.471 45.9896V46.0496H204.381V45.9596C204.685 45.7558 204.914 45.457 205.031 45.1096C205.2 44.5048 205.271 43.8769 205.241 43.2496V28.1896C205.271 27.5624 205.2 26.9345 205.031 26.3296C204.911 25.9837 204.683 25.6856 204.381 25.4796V25.3896H211.501L222.561 37.3896H222.741V28.1896C222.771 27.5624 222.7 26.9345 222.531 26.3296C222.419 25.9882 222.202 25.6908 221.911 25.4796V25.3896H229.041V25.4796C228.736 25.6829 228.507 25.982 228.391 26.3296C228.222 26.9345 228.151 27.5624 228.181 28.1896V46.0496H223.131L210.791 32.8896H210.641V43.2196Z" fill="#52545B"/>
<path d="M248.51 46.5504C246.018 46.6397 243.533 46.2318 241.2 45.3504C239.367 44.632 237.811 43.3461 236.76 41.6804C235.704 39.8614 235.181 37.7824 235.25 35.6804C235.184 33.6041 235.708 31.5515 236.76 29.7604C237.824 28.1082 239.386 26.837 241.22 26.1304C243.558 25.2526 246.044 24.8382 248.54 24.9104C249.54 24.9104 250.54 24.9104 251.49 25.0404C252.316 25.1165 253.137 25.2366 253.95 25.4004C254.67 25.5404 255.38 25.7004 256.09 25.8504C256.6 25.9704 257.09 26.0704 257.6 26.1504C258.036 26.2256 258.478 26.2657 258.92 26.2704V26.3304L256.33 31.2804H256.21C255.553 30.4522 254.613 29.8965 253.57 29.7204C252.166 29.3592 250.72 29.1811 249.27 29.1904C247.818 29.1434 246.371 29.3953 245.02 29.9304C243.951 30.3606 243.049 31.1254 242.45 32.1104C241.849 33.2017 241.556 34.4354 241.6 35.6804C241.561 36.9038 241.829 38.1176 242.38 39.2104C242.91 40.1603 243.735 40.9116 244.73 41.3504C245.92 41.8729 247.211 42.1224 248.51 42.0804C249.634 42.104 250.752 41.9069 251.8 41.5004C252.642 41.1776 253.361 40.6009 253.86 39.8504C254.347 39.0557 254.607 38.1425 254.61 37.2104H249.45C248.871 37.1972 248.293 37.234 247.72 37.3204C247.397 37.3873 247.084 37.4983 246.79 37.6504L246.56 37.5904L247.21 33.5904H260.78C261.034 36.0261 260.691 38.4871 259.78 40.7604C258.948 42.6411 257.493 44.1774 255.66 45.1104C253.428 46.1616 250.975 46.6558 248.51 46.5504Z" fill="#52545B"/>
<path d="M278.52 46.58C276.126 46.6465 273.744 46.2211 271.52 45.33C269.732 44.583 268.224 43.292 267.21 41.64C266.189 39.8094 265.684 37.7354 265.75 35.64C265.681 33.5761 266.187 31.5335 267.21 29.74C268.23 28.1076 269.738 26.8377 271.52 26.11C276.041 24.4594 281 24.4594 285.52 26.11C287.3 26.8385 288.802 28.1131 289.81 29.75C290.829 31.5418 291.334 33.5798 291.27 35.64C291.338 37.7356 290.834 39.81 289.81 41.64C288.812 43.3017 287.309 44.6013 285.52 45.35C283.297 46.2375 280.914 46.6563 278.52 46.58ZM278.52 41.89C279.759 41.9297 280.99 41.6869 282.12 41.18C283.063 40.7262 283.839 39.9882 284.34 39.07C284.88 38.0057 285.141 36.8224 285.1 35.63C285.143 34.4662 284.881 33.3115 284.34 32.28C283.819 31.4011 283.041 30.7031 282.11 30.28C280.981 29.7807 279.754 29.5414 278.52 29.58C277.273 29.5395 276.033 29.7787 274.89 30.28C273.941 30.7087 273.158 31.4355 272.66 32.35C272.13 33.3779 271.872 34.5242 271.91 35.68C271.872 36.8711 272.13 38.0531 272.66 39.12C273.158 40.0513 273.949 40.7927 274.91 41.23C276.05 41.7147 277.283 41.9401 278.52 41.89Z" fill="#52545B"/>
<path d="M53.2098 18.5801C53.2098 40.8401 52.3598 48.8001 36.8298 64.8301C21.2898 48.8301 20.4498 40.8301 20.4498 18.5801C19.0798 18.9801 17.7098 19.4401 16.3398 19.9501C16.3398 44.0601 18.4198 50.6801 36.8298 66.5401C55.2398 50.6801 57.3098 44.0601 57.3098 19.9501C55.9498 19.4401 54.5798 18.9801 53.2098 18.5801Z" fill="#52545B"/>
<path fill-rule="evenodd" clip-rule="evenodd" d="M36.3998 66.7698C37.8098 66.0798 32.8398 67.7698 29.7598 71.9498C31.0468 71.3187 32.4566 70.9774 33.8898 70.9498C33.8386 70.0814 34.0509 69.2177 34.4987 68.4719C34.9466 67.726 35.6092 67.1328 36.3998 66.7698Z" fill="#52545B"/>
<path fill-rule="evenodd" clip-rule="evenodd" d="M37.2392 66.7698C35.8392 66.0798 40.8092 67.7698 43.8792 71.9498C42.5929 71.3166 41.1827 70.9751 39.7492 70.9498C39.8032 70.0809 39.5921 69.2161 39.1439 68.4697C38.6957 67.7233 38.0316 67.1306 37.2392 66.7698Z" fill="#52545B"/>
<path d="M14.4694 12.9404C-1.44061 44.9404 33.5994 65.1104 33.5994 65.1104C9.38939 46.5804 11.9194 21.3504 14.4694 12.9404Z" fill="#BABBB4"/>
<path d="M15.1309 49.0303C11.3809 43.3503 4.71094 42.6203 0.210938 45.9003C0.210938 45.9003 6.33094 41.9003 13.4109 50.7303C16.1149 54.4138 19.7977 57.2651 24.0409 58.9603C22.0409 57.5003 19.6609 55.8703 15.1309 49.0303Z" fill="#52545B"/>
<path d="M13.8991 46.27C12.6031 44.7417 10.9266 43.5826 9.03906 42.91C6.8733 39.9473 3.6507 37.9314 0.0390625 37.28C0.0390625 37.28 9.11906 36.74 13.8991 46.27Z" fill="#BABBB4"/>
<path d="M59.1991 12.9404C75.0991 44.9104 40.0391 65.1104 40.0391 65.1104C64.2791 46.5804 61.7491 21.3504 59.1991 12.9404Z" fill="#BABBB4"/>
<path d="M58.5394 49.0298C62.2794 43.3798 68.9494 42.6198 73.4594 45.8998C73.4594 45.8998 67.3394 41.8998 60.2494 50.7298C57.5451 54.417 53.8579 57.269 49.6094 58.9598C51.6394 57.4998 54.0394 55.8698 58.5394 49.0298Z" fill="#52545B"/>
<path d="M59.7598 46.27C61.0474 44.746 62.7131 43.5872 64.5898 42.91C66.7775 39.9331 70.0305 37.9161 73.6698 37.28C73.6698 37.28 64.5498 36.74 59.7598 46.27Z" fill="#BABBB4"/>
<path d="M24.3691 10.0402V20.1302C24.3691 38.9602 28.5891 51.6102 36.7991 63.5102C45.0391 51.6102 49.2091 38.9602 49.2591 20.1302V9.9502C45.3672 11.8759 41.0814 12.872 36.7391 12.8602C32.4549 12.8741 28.224 11.9096 24.3691 10.0402Z" fill="#52545B"/>
<path d="M44.1894 4.53957C43.9159 3.98078 43.4754 3.52084 42.929 3.22343C42.3825 2.92602 41.7571 2.80586 41.1394 2.87957C40.891 2.55621 40.5736 2.29235 40.2103 2.10724C39.847 1.92213 39.447 1.82043 39.0394 1.80957C38.2062 1.87082 37.4144 2.19666 36.7794 2.73957C36.1388 2.19947 35.3448 1.87417 34.5094 1.80957C34.1001 1.81896 33.6981 1.91994 33.3329 2.10511C32.9678 2.29027 32.6488 2.55491 32.3994 2.87957C31.7896 2.81663 31.1752 2.94199 30.6389 3.23877C30.1025 3.53555 29.6699 3.98952 29.3994 4.53957C28.9739 5.36706 28.752 6.28411 28.752 7.21457C28.752 8.14504 28.9739 9.06208 29.3994 9.88957C29.8194 10.5896 30.0594 10.7096 30.2794 10.7996C32.4372 11.2958 34.6452 11.5408 36.8594 11.5296C39.0735 11.5408 41.2815 11.2958 43.4394 10.7996C43.6594 10.7096 43.8994 10.5896 44.3194 9.88957C44.7249 9.05178 44.9246 8.12932 44.902 7.19883C44.8794 6.26834 44.6351 5.35668 44.1894 4.53957ZM30.1894 10.0496C30.1783 10.0542 30.1664 10.0567 30.1544 10.0567C30.1423 10.0567 30.1304 10.0542 30.1194 10.0496C30.0967 10.0572 30.0721 10.0572 30.0494 10.0496C29.4357 9.28267 29.0976 8.33175 29.0894 7.34957C29.0194 5.25957 30.0294 3.79957 31.7794 3.42957C31.7912 3.42663 31.8035 3.42613 31.8155 3.42809C31.8276 3.43006 31.8391 3.43444 31.8494 3.44099C31.8597 3.44754 31.8685 3.4561 31.8754 3.46618C31.8823 3.47625 31.887 3.48761 31.8894 3.49957C31.8923 3.5114 31.8928 3.52371 31.8908 3.53575C31.8889 3.54778 31.8845 3.55929 31.878 3.56958C31.8714 3.57987 31.8628 3.58871 31.8528 3.59559C31.8427 3.60246 31.8313 3.60722 31.8194 3.60957C30.1694 3.95957 29.2194 5.35957 29.2794 7.33957C29.2735 8.28173 29.5794 9.19938 30.1494 9.94957C30.1593 9.96437 30.1645 9.98177 30.1645 9.99957C30.1645 10.0174 30.1593 10.0348 30.1494 10.0496H30.1894ZM31.5094 10.1996C31.1194 10.1096 29.6294 9.74957 29.6294 7.19957C29.6294 4.64957 31.2294 4.01957 31.4394 3.92957C31.6494 3.83957 31.8194 3.82957 31.6794 4.13957C31.363 4.98147 31.24 5.88371 31.3194 6.77957C31.3695 8.04072 31.7376 9.26873 32.3894 10.3496C32.0791 10.3247 31.7714 10.2745 31.4694 10.1996H31.5094ZM33.0394 10.3496C33.03 10.354 33.0197 10.3563 33.0094 10.3563C32.999 10.3563 32.9887 10.354 32.9794 10.3496C32.9669 10.3557 32.9532 10.3589 32.9394 10.3589C32.9255 10.3589 32.9118 10.3557 32.8994 10.3496C32.1655 9.17613 31.7486 7.83235 31.6894 6.44957C31.6348 5.20549 32.0609 3.98811 32.8794 3.04957C33.0692 2.84031 33.2986 2.67071 33.5544 2.55056C33.8101 2.43042 34.0871 2.36211 34.3694 2.34957C34.796 2.33226 35.2209 2.41347 35.6111 2.58689C36.0013 2.76031 36.3463 3.02129 36.6194 3.34957C36.6281 3.35797 36.6351 3.36806 36.6399 3.37923C36.6447 3.3904 36.6471 3.40243 36.6471 3.41457C36.6471 3.42672 36.6447 3.43874 36.6399 3.44991C36.6351 3.46108 36.6281 3.47117 36.6194 3.47957C36.611 3.48834 36.6009 3.49532 36.5897 3.50009C36.5785 3.50486 36.5665 3.50732 36.5544 3.50732C36.5422 3.50732 36.5302 3.50486 36.519 3.50009C36.5079 3.49532 36.4978 3.48834 36.4894 3.47957C36.233 3.17773 35.9121 2.93743 35.5503 2.77644C35.1885 2.61546 34.7952 2.53792 34.3994 2.54957C33.8695 2.57021 33.3695 2.80041 33.0094 3.18957C32.2295 4.09163 31.8251 5.25835 31.8794 6.44957C31.9437 7.78678 32.3425 9.08648 33.0394 10.2296C33.0541 10.2461 33.0623 10.2674 33.0623 10.2896C33.0623 10.3117 33.0541 10.3331 33.0394 10.3496ZM34.1194 10.4596C33.5494 10.1857 33.0956 9.71774 32.8394 9.13957C32.4261 8.3244 32.2103 7.4235 32.2094 6.50957C32.1584 5.89296 32.243 5.27266 32.4572 4.69222C32.6714 4.11177 33.0101 3.58524 33.4494 3.14957C33.7727 2.91683 34.161 2.79161 34.5594 2.79161C34.9577 2.79161 35.346 2.91683 35.6694 3.14957C35.83 3.29976 35.9367 3.49873 35.9728 3.71566C36.009 3.93259 35.9726 4.15539 35.8694 4.34957C35.4691 5.17196 35.2379 6.06626 35.1894 6.97957C35.0794 9.80957 35.7894 10.5596 35.7894 10.5596C35.2216 10.6224 34.6473 10.592 34.0894 10.4696L34.1194 10.4596ZM36.7994 10.7296C36.3294 10.6796 35.7994 9.32957 35.7994 7.28957C35.741 6.70854 35.7994 6.1217 35.9711 5.56357C36.1428 5.00543 36.4245 4.48728 36.7994 4.03957C37.1714 4.48902 37.4512 5.00739 37.6228 5.56505C37.7944 6.12271 37.8544 6.70871 37.7994 7.28957C37.7694 9.34957 37.2394 10.6896 36.7694 10.7396L36.7994 10.7296ZM39.4694 10.4596C38.913 10.5921 38.3388 10.6326 37.7694 10.5796C37.7694 10.5796 38.4794 9.82957 38.3694 6.99957C38.3141 6.07735 38.0726 5.17589 37.6594 4.34957C37.5546 4.15005 37.5204 3.921 37.5621 3.69956C37.6039 3.47812 37.7192 3.27727 37.8894 3.12957C38.2127 2.89684 38.601 2.77162 38.9994 2.77162C39.3977 2.77162 39.786 2.89684 40.1094 3.12957C40.5487 3.56524 40.8873 4.09177 41.1016 4.67222C41.3158 5.25267 41.4003 5.87296 41.3494 6.48957C41.3484 7.4035 41.1326 8.3044 40.7194 9.11957C40.4691 9.70897 40.0146 10.1883 39.4394 10.4696L39.4694 10.4596ZM40.5794 10.3496C40.57 10.354 40.5597 10.3563 40.5494 10.3563C40.539 10.3563 40.5287 10.354 40.5194 10.3496C40.5106 10.3412 40.5036 10.3311 40.4988 10.3199C40.4941 10.3087 40.4916 10.2967 40.4916 10.2846C40.4916 10.2724 40.4941 10.2604 40.4988 10.2492C40.5036 10.2381 40.5106 10.228 40.5194 10.2196C41.2213 9.07449 41.6237 7.77109 41.6894 6.42957C41.7437 5.23835 41.3393 4.07163 40.5594 3.16957C40.1992 2.78041 39.6992 2.55021 39.1694 2.52957C38.7736 2.51792 38.3802 2.59546 38.0184 2.75644C37.6566 2.91743 37.3357 3.15774 37.0794 3.45957C37.071 3.46834 37.0609 3.47532 37.0497 3.48009C37.0385 3.48486 37.0265 3.48732 37.0144 3.48732C37.0022 3.48732 36.9902 3.48486 36.979 3.48009C36.9679 3.47532 36.9578 3.46834 36.9494 3.45957C36.9406 3.45117 36.9336 3.44108 36.9288 3.42991C36.9241 3.41874 36.9216 3.40672 36.9216 3.39457C36.9216 3.38242 36.9241 3.3704 36.9288 3.35923C36.9336 3.34806 36.9406 3.33797 36.9494 3.32957C37.2224 3.00129 37.5674 2.74031 37.9576 2.56689C38.3478 2.39347 38.7727 2.31226 39.1994 2.32957C39.486 2.33688 39.7683 2.40172 40.0294 2.52025C40.2905 2.63879 40.5252 2.80859 40.7194 3.01957C41.5378 3.95811 41.9639 5.17549 41.9094 6.41957C41.8433 7.8163 41.4123 9.17132 40.6594 10.3496C40.6469 10.3557 40.6332 10.3589 40.6194 10.3589C40.6055 10.3589 40.5918 10.3557 40.5794 10.3496ZM42.0394 10.1996C41.7362 10.2611 41.4285 10.2978 41.1194 10.3096C41.7756 9.25013 42.1571 8.0437 42.2294 6.79957C42.3087 5.90371 42.1857 5.00147 41.8694 4.15957C41.7294 3.84957 41.8694 3.84957 42.1094 3.94957C42.3494 4.04957 43.9194 4.68957 43.9194 7.21957C43.9194 9.74957 42.4494 10.1096 42.0394 10.1996ZM43.4994 10.0496C43.4767 10.0572 43.4521 10.0572 43.4294 10.0496C43.4183 10.0542 43.4064 10.0567 43.3944 10.0567C43.3823 10.0567 43.3704 10.0542 43.3594 10.0496C43.3506 10.0412 43.3436 10.0311 43.3388 10.0199C43.3341 10.0087 43.3316 9.99672 43.3316 9.98457C43.3316 9.97243 43.3341 9.96041 43.3388 9.94923C43.3436 9.93806 43.3506 9.92797 43.3594 9.91957C43.9282 9.18281 44.2407 8.28034 44.2494 7.34957C44.3094 5.34957 43.3594 3.96957 41.7094 3.61957C41.6974 3.61722 41.686 3.61246 41.676 3.60559C41.6659 3.59871 41.6573 3.58987 41.6508 3.57958C41.6442 3.56929 41.6398 3.55778 41.6379 3.54575C41.6359 3.53371 41.6364 3.5214 41.6394 3.50957C41.6417 3.49761 41.6465 3.48624 41.6534 3.47617C41.6602 3.4661 41.6691 3.45754 41.6794 3.45099C41.6896 3.44444 41.7012 3.44006 41.7132 3.43809C41.7252 3.43613 41.7375 3.43663 41.7494 3.43957C43.4994 3.80957 44.5094 5.26957 44.4394 7.35957C44.4403 8.33359 44.1166 9.28014 43.5194 10.0496H43.4994Z" fill="#52545B"/>
<path d="M37.2405 2.17957L36.8105 1.46957L37.1205 1.19957L37.7605 1.61957L37.6405 1.09957L37.8105 0.629572L37.1305 1.08957L36.8305 0.759571L37.2405 0.0595703L36.7705 0.259571L36.2905 0.0595703L36.7005 0.759571L36.4005 1.08957L35.7305 0.629572L35.8905 1.09957L35.7705 1.61957L36.4105 1.19957L36.7305 1.46957L36.2905 2.18957C36.4565 2.29057 36.6167 2.40074 36.7705 2.51957C36.9204 2.39724 37.0773 2.28371 37.2405 2.17957Z" fill="#52545B"/>
<path d="M43.4103 11.3997C43.3938 11.3365 43.3531 11.2822 43.2971 11.2485C43.241 11.2149 43.1739 11.2045 43.1103 11.2197C41.0229 11.6906 38.8902 11.932 36.7503 11.9397C34.6071 11.9326 32.4711 11.6911 30.3803 11.2197C30.318 11.2052 30.2524 11.2159 30.1981 11.2497C30.1437 11.2834 30.1049 11.3374 30.0903 11.3997C30.0757 11.4621 30.0865 11.5276 30.1203 11.582C30.154 11.6364 30.208 11.6752 30.2703 11.6897C32.3862 12.1737 34.5498 12.4186 36.7203 12.4197C38.8909 12.4197 41.0546 12.1749 43.1703 11.6897C43.206 11.6888 43.241 11.6802 43.273 11.6646C43.3051 11.649 43.3334 11.6267 43.3562 11.5992C43.3789 11.5718 43.3955 11.5397 43.4048 11.5053C43.4142 11.4709 43.4161 11.4349 43.4103 11.3997Z" fill="#52545B"/>
<path opacity="0.35" d="M46.0396 28.4204C46.0285 29.2803 45.7822 30.1207 45.3274 30.8505C44.8726 31.5803 44.2266 32.1716 43.4596 32.5604C43.0165 32.7439 42.5389 32.8292 42.0596 32.8104C41.4516 32.7701 40.8681 32.5548 40.3796 32.1904C40.9375 32.7814 41.6987 33.1387 42.5097 33.1904C42.7849 33.2028 43.0605 33.1793 43.3296 33.1204C43.1222 33.7165 42.7633 34.2484 42.2882 34.6639C41.8131 35.0794 41.2381 35.3642 40.6197 35.4904C39.915 35.6667 39.1733 35.6233 38.494 35.3659C37.8148 35.1085 37.2305 34.6495 36.8196 34.0504C36.8196 33.9704 36.7297 33.8904 36.6897 33.8104C36.6209 33.8758 36.5473 33.9359 36.4696 33.9904C35.696 34.5763 34.75 34.8892 33.7796 34.8804C33.0233 34.9235 32.2702 34.7509 31.6081 34.3826C30.946 34.0144 30.4021 33.4657 30.0396 32.8004C30.4333 32.9423 30.8523 33.0002 31.2697 32.9704C32.0854 32.892 32.842 32.5102 33.3896 31.9004C32.9052 32.275 32.3206 32.4977 31.7096 32.5404C31.0405 32.5912 30.3723 32.4302 29.7997 32.0804L29.5096 31.8804C28.9749 31.4526 28.5357 30.9174 28.2205 30.3094C27.9053 29.7014 27.7211 29.034 27.6796 28.3504C27.598 27.3602 27.8028 26.3674 28.2697 25.4904C28.3779 25.2965 28.4981 25.1094 28.6296 24.9304C28.9081 24.5358 29.2666 24.2045 29.682 23.9581C30.0973 23.7117 30.5599 23.5557 31.0396 23.5004H31.2697C31.0373 23.4705 30.802 23.4705 30.5696 23.5004C29.8029 23.5771 29.091 23.933 28.5696 24.5004C28.541 23.773 28.6825 23.049 28.9828 22.3858C29.2832 21.7227 29.7341 21.1387 30.2997 20.6804C31.0615 19.985 32.0174 19.5384 33.0396 19.4004H33.3596C33.8599 19.3744 34.3597 19.4595 34.8231 19.6497C35.2865 19.8399 35.702 20.1305 36.0396 20.5004L36.1696 20.6804C36.0677 20.4751 35.94 20.2835 35.7896 20.1104C35.2513 19.4996 34.5003 19.1169 33.6897 19.0404C34.4299 18.3212 35.4045 17.8929 36.435 17.8341C37.4654 17.7753 38.4825 18.09 39.2997 18.7204C39.4905 18.8713 39.6679 19.0386 39.8296 19.2204C39.3458 19.2698 38.8785 19.4242 38.4605 19.6729C38.0425 19.9216 37.6838 20.2587 37.4097 20.6604C37.2846 20.8555 37.1807 21.0633 37.0996 21.2804L37.2096 21.0904C37.5346 20.6203 37.9696 20.2369 38.4769 19.9736C38.9842 19.7104 39.5482 19.5754 40.1197 19.5804C40.3394 19.5655 40.5599 19.5655 40.7796 19.5804C41.5432 19.6798 42.2746 19.9498 42.9196 20.3704C43.627 20.7872 44.2068 21.3896 44.5964 22.1123C44.9859 22.8349 45.1703 23.6504 45.1296 24.4704C45.1103 24.6256 45.0802 24.7793 45.0396 24.9304C44.9582 25.2555 44.8266 25.5658 44.6496 25.8504C44.3235 26.3552 43.858 26.7546 43.3096 27.0004C44.0895 26.8099 44.7704 26.3357 45.2196 25.6704L45.3696 25.3904C45.8903 26.311 46.1236 27.3662 46.0396 28.4204Z" fill="white"/>
<path d="M36.5294 42.7396C36.5294 43.0796 36.5294 43.3896 36.5294 43.6796C36.5294 43.6796 36.5294 43.6796 36.5294 43.7396C36.5294 44.2696 36.5294 44.7396 36.4394 45.2096C36.4169 45.9556 36.1922 46.6814 35.7894 47.3096C35.6261 47.4875 35.4452 47.6484 35.2494 47.7896C34.6594 48.2196 34.7494 48.1696 34.0694 48.0696C33.5489 48.05 33.0362 48.201 32.6094 48.4996C32.2394 48.6696 31.6894 48.6696 31.6094 48.7696C32.1602 48.841 32.7195 48.8105 33.2594 48.6796C34.1325 48.4899 35.0362 48.4899 35.9094 48.6796C35.7594 48.7896 34.9894 48.8396 34.6194 48.9996C34.2494 49.1596 33.6194 49.2996 33.3194 49.3896C33.0194 49.4796 33.8094 49.3896 34.8994 49.1596C35.9894 48.9296 36.1394 49.2296 36.8994 49.1596C37.618 49.0672 38.3482 49.132 39.0394 49.3496C39.6594 49.5496 39.8194 49.4496 39.6894 49.4096C39.3894 49.3296 39.0094 49.0196 38.6094 48.8896C38.2094 48.7596 37.7094 48.7896 37.4894 48.7196C37.2694 48.6496 37.7694 48.5596 38.2994 48.3896C38.8294 48.2196 39.2294 48.4896 39.5994 48.5296C39.9694 48.5696 40.1094 48.5296 40.5394 48.5896H41.5394C42.5394 48.5896 42.6594 48.4296 42.2894 48.4296C41.6172 48.3867 40.9489 48.2964 40.2894 48.1596C40.039 48.1354 39.7913 48.0885 39.5494 48.0196L39.2694 47.8696C39.1272 47.7819 38.9934 47.6815 38.8694 47.5696C38.2294 47.0396 38.1094 45.5096 38.0694 44.0896C38.0694 43.5796 38.0694 43.0896 38.0694 42.5196C37.546 42.4765 37.0197 42.5517 36.5294 42.7396Z" fill="white"/>
<path d="M40.2603 31.5605C40.8778 31.5945 41.4945 31.4796 42.0583 31.2255C42.6222 30.9714 43.1167 30.5856 43.5003 30.1005C42.0703 31.3205 39.5003 30.8105 39.5003 30.8105C40.2704 30.3606 40.8899 29.6924 41.2803 28.8905C41.6883 28.9443 42.1033 28.8936 42.4863 28.7432C42.8694 28.5928 43.208 28.3475 43.4703 28.0305C43.2005 28.2121 42.894 28.3323 42.5726 28.3824C42.2512 28.4325 41.9227 28.4114 41.6103 28.3205C42.073 27.4942 42.3463 26.5753 42.4103 25.6305C41.9182 27.3775 40.8638 28.9135 39.4103 30.0005C38.4103 30.9105 37.4703 30.7905 37.3303 30.5405C37.1903 30.2905 37.3303 29.9005 38.3303 28.7605C38.8479 28.1486 39.193 27.41 39.3303 26.6205C41.7103 25.8405 41.7403 22.7105 41.7403 22.7105C41.6959 23.3392 41.4674 23.9409 41.0833 24.4406C40.6992 24.9403 40.1765 25.3159 39.5803 25.5205C39.5803 25.5205 39.5203 22.8205 38.3603 21.9805C38.3603 21.9805 39.5703 23.7805 38.5003 26.8405C38.4885 26.6006 38.409 26.3691 38.2709 26.1726C38.1329 25.9761 37.942 25.8228 37.7203 25.7305C37.9621 26.3327 38.0447 26.987 37.9603 27.6305C37.8878 28.1616 37.6417 28.6538 37.2603 29.0305C35.9203 30.3505 34.4503 27.3305 34.9603 24.0305C34.9603 24.0305 34.1503 25.1305 34.8603 28.1805C34.1447 27.9034 33.4914 27.4866 32.9385 26.9543C32.3857 26.4221 31.9444 25.7851 31.6403 25.0805C31.6403 25.0805 31.9103 27.5105 35.4003 29.4005C35.4003 29.4005 35.7203 29.5005 36.0203 30.6605C36.3203 31.8205 35.0203 32.1205 33.6703 31.2305C33.2613 30.9278 32.9239 30.5389 32.682 30.0913C32.4401 29.6437 32.2995 29.1484 32.2703 28.6405C32.1494 29.3688 32.2325 30.1164 32.5103 30.8005C31.8095 30.6398 31.1492 30.3368 30.5703 29.9105C31.2425 30.706 32.0919 31.3328 33.0503 31.7405C34.3103 32.4205 35.8503 33.1305 36.1203 33.9805C36.2903 34.5205 36.7103 35.4905 36.6603 40.3005C37.1475 40.1652 37.6123 39.9597 38.0403 39.6905C37.9703 36.1705 38.0403 31.5905 40.2603 31.5605Z" fill="white"/>
<path d="M32.5898 44.96C32.5898 45.08 33.0398 44.96 33.0398 44.96C33.157 44.3904 33.4813 43.8845 33.9498 43.54C33.362 43.8632 32.8873 44.3588 32.5898 44.96Z" fill="white"/>
<path d="M39.1504 42.4297C39.1504 42.4297 39.2904 42.4297 39.3304 42.5497C39.3704 42.6697 38.7504 43.2897 38.7204 43.4997C38.6904 43.7097 39.0704 43.8797 39.0704 43.8297C39.0704 43.7797 39.0704 43.5997 39.3604 43.1097C39.6504 42.6197 39.8204 42.7797 39.8004 42.6497C39.7804 42.5197 39.1504 42.4297 39.1504 42.4297Z" fill="white"/>
<path d="M43.0991 42.4298C43.0391 42.4298 43.0291 42.2898 43.0191 42.2098C43.0091 42.1298 43.0191 42.1098 42.9491 42.0798L42.7891 42.0098C42.8097 42.073 42.8438 42.131 42.8891 42.1798C42.9159 42.2159 42.9303 42.2598 42.9303 42.3048C42.9303 42.3498 42.9159 42.3936 42.8891 42.4298C42.8851 42.4781 42.8953 42.5265 42.9184 42.5691C42.9415 42.6117 42.9765 42.6467 43.0191 42.6698C43.0691 42.6698 43.0991 42.6698 43.0891 42.6098C43.0815 42.5497 43.0848 42.4887 43.0991 42.4298Z" fill="white"/>
<path d="M43.4106 41.3499C43.4106 41.2799 43.3606 41.2499 43.4106 41.2099C43.4288 41.1377 43.4288 41.0621 43.4106 40.9899C43.4106 40.9899 43.3206 40.9899 43.3006 40.9899C43.275 41.0541 43.275 41.1257 43.3006 41.1899C43.3006 41.2799 43.2406 41.1099 43.3006 41.0199C43.3606 40.9299 43.2206 40.9199 43.2006 40.9499C43.1747 41.0244 43.1747 41.1054 43.2006 41.1799C43.2006 41.2499 43.2006 41.3099 43.2606 41.3399C43.3206 41.3699 43.2606 41.3399 43.1906 41.2299C43.159 41.1795 43.1183 41.1354 43.0706 41.0999C42.975 41.079 42.8761 41.079 42.7806 41.0999C42.6726 41.0701 42.5586 41.0701 42.4506 41.0999C42.2874 41.1288 42.141 41.218 42.0406 41.3499C42.1147 41.215 42.2257 41.104 42.3606 41.0299C42.2206 40.8499 42.2306 40.7899 42.2506 40.7299C42.2706 40.6699 42.2506 40.5399 42.0906 40.2199C41.9874 40.038 41.8348 39.8889 41.6506 39.7899C41.5853 39.6277 41.4865 39.4812 41.3606 39.3599C41.3606 39.3599 41.2606 39.2099 41.2206 39.4399C41.2121 39.6516 41.2323 39.8636 41.2806 40.0699C41.183 39.9137 41.1152 39.7408 41.0806 39.5599C40.4244 39.3568 39.7184 39.385 39.0806 39.6399C38.3906 39.9199 36.6106 40.6399 36.2706 40.7599C35.8896 40.8614 35.4901 40.8717 35.1044 40.7901C34.7188 40.7084 34.3577 40.5371 34.0506 40.2899C33.7017 40.0043 33.4373 39.629 33.2858 39.2044C33.1342 38.7797 33.1013 38.3218 33.1906 37.8799C32.4906 39.2699 33.0406 39.9499 33.0406 39.9499C32.8906 39.9499 32.6706 39.8299 32.6706 39.8299C32.9806 41.1499 34.8906 41.3499 34.8906 41.3499C34.9579 41.2337 35.0544 41.1372 35.1706 41.0699H35.2206C35.0624 41.2174 34.9453 41.4035 34.8806 41.6099C34.7706 41.8699 34.8806 41.8299 34.1306 42.5499C33.3806 43.2699 32.9006 43.0499 32.8706 43.1699C32.8441 43.456 32.7327 43.7276 32.5506 43.9499C32.3688 44.2056 32.1417 44.4259 31.8806 44.5999C31.8806 44.5999 31.7406 44.6699 31.8806 44.9399C32.0206 45.2099 32.1506 45.1599 32.1506 45.1599C32.4822 44.5083 32.9716 43.9501 33.5742 43.5361C34.1768 43.1221 34.8734 42.8656 35.6006 42.7899C37.3806 42.5699 36.7806 41.2999 36.7806 41.2999C36.9493 41.409 37.0702 41.5783 37.1185 41.7734C37.1668 41.9685 37.1389 42.1746 37.0406 42.3499C41.0406 41.7099 41.6506 43.8399 41.6506 43.8399C42.0006 43.7299 41.9806 43.5799 41.9806 43.5799C41.9257 43.3854 41.8303 43.2048 41.7006 43.0499C41.6807 42.9881 41.6807 42.9217 41.7006 42.8599C41.6945 42.7666 41.6945 42.6731 41.7006 42.5799C41.7006 42.4999 41.7006 42.5199 41.8006 42.4699C41.8627 42.3888 41.9101 42.2974 41.9406 42.1999C41.9265 42.2993 41.8849 42.3928 41.8206 42.4699C41.7206 42.5499 41.7606 42.6299 41.7606 42.6899C41.7606 42.7499 41.7606 42.8799 41.7606 42.9399C41.7606 42.9999 41.7606 43.1299 41.7606 43.1999C41.7606 43.2699 41.8606 43.1499 41.8606 43.0899C41.8637 43.1475 41.8459 43.2043 41.8106 43.2499C41.8106 43.2499 41.8606 43.3199 41.8806 43.2499C41.9006 43.1799 41.9506 43.1699 41.8806 43.0099C41.8106 42.8499 41.8206 42.7999 41.8806 42.7099C41.8757 42.6199 41.8757 42.5298 41.8806 42.4399C41.8888 42.3835 41.8888 42.3263 41.8806 42.2699C41.8806 42.1999 41.8806 42.0599 42.0206 42.0599C42.1606 42.0599 42.1506 42.1399 42.2706 42.0599C42.3034 42.0256 42.345 42.0009 42.3908 41.9886C42.4367 41.9763 42.485 41.9767 42.5306 41.9899L42.6806 42.0499C42.7478 42.0795 42.8115 42.1164 42.8706 42.1599C42.9306 42.1599 42.8706 42.3899 42.9606 42.4599C43.0506 42.5299 43.1006 42.5599 43.1006 42.4599C43.1111 42.3936 43.1111 42.3261 43.1006 42.2599C43.1006 42.1799 43.1006 42.1099 43.0106 42.0599C42.9206 42.0099 43.0106 41.9699 42.8806 41.9399C42.8806 41.9399 42.8806 41.9399 42.9406 41.9399C43.0006 41.9399 43.0006 41.8299 42.9906 41.7999C42.986 41.76 42.986 41.7198 42.9906 41.6799C42.9906 41.6799 42.9906 41.7799 43.0606 41.8199L43.2306 41.8999C43.2441 41.9057 43.2589 41.9077 43.2734 41.9057C43.2879 41.9036 43.3016 41.8977 43.313 41.8884C43.3243 41.8791 43.3329 41.8668 43.3378 41.853C43.3427 41.8392 43.3436 41.8242 43.3406 41.8099C43.3332 41.7334 43.3332 41.6564 43.3406 41.5799C43.3699 41.55 43.3916 41.5135 43.4038 41.4735C43.416 41.4334 43.4183 41.391 43.4106 41.3499ZM41.9306 41.4099H41.8306L41.6506 41.1999C41.6506 41.1999 41.6806 41.2299 41.9306 41.4099ZM42.0606 41.7599C42.0144 41.8028 41.9536 41.8266 41.8906 41.8266C41.8275 41.8266 41.7668 41.8028 41.7206 41.7599L41.6206 41.6599V41.7199C41.4906 41.9099 41.5106 41.9099 41.5106 41.9099C41.5106 41.9099 41.4306 41.9099 41.4406 42.0199C41.4506 42.1299 41.5706 42.1599 41.5906 42.0899C41.6439 42.1622 41.672 42.25 41.6706 42.3399C41.6706 42.4399 41.6706 42.4199 41.6706 42.4599C41.6706 42.4999 41.6106 42.4599 41.5806 42.6299C41.5506 42.7999 41.5806 42.7699 41.5806 42.8499C41.1163 42.4722 40.5879 42.1809 40.0206 41.9899C39.8306 41.9099 39.8306 41.6399 40.0206 41.4299C40.0961 41.3453 40.1442 41.2398 40.1585 41.1273C40.1728 41.0148 40.1526 40.9006 40.1006 40.7999C40.0406 40.7099 40.1006 40.6999 40.1006 40.6999C40.1684 40.7643 40.2223 40.8419 40.2592 40.9278C40.2961 41.0138 40.3151 41.1064 40.3151 41.1999C40.3151 41.2934 40.2961 41.386 40.2592 41.4719C40.2223 41.5579 40.1684 41.6354 40.1006 41.6999C40.5694 41.6155 41.0217 41.4568 41.4406 41.2299C41.4406 41.2299 41.4406 41.1699 41.7006 41.5199C41.6406 41.5199 41.7006 41.5199 41.7806 41.6299H41.8306H42.0406L41.9806 41.5499C41.9835 41.53 41.9835 41.5098 41.9806 41.4899L41.9306 41.4299C41.9306 41.4299 42.1006 41.7099 42.0406 41.7599H42.0606Z" fill="white"/>
</g>
<defs>
<clipPath id="clip0_1910_4443">
<rect width="291.28" height="71.94" fill="white"/>
</clipPath>
</defs>
</svg>
