<?xml version="1.0" encoding="UTF-8"?> <svg xmlns="http://www.w3.org/2000/svg" width="323" height="60" viewBox="0 0 323 60" fill="none"><path d="M159.742 51.0936C159.2 51.1396 158.655 51.0746 158.139 50.9027C157.623 50.7307 157.148 50.4554 156.742 50.0936L157.212 49.0936C157.522 50.4436 161.332 50.8636 161.422 49.2336C161.422 48.7036 161.022 48.4836 160.562 48.3536C159.632 48.0836 158.162 48.1636 157.452 47.4136C156.262 45.7036 158.142 44.5236 159.862 44.6636C160.794 44.7143 161.711 44.924 162.572 45.2836L162.032 46.2836C161.582 45.1636 157.312 45.0236 158.502 46.7936C159.502 47.4636 161.342 47.0236 162.232 48.0136C163.482 49.8336 161.672 51.2536 159.742 51.0936Z" fill="#52545B"></path><path d="M164.269 50.9664H163.949C164.139 50.8164 164.119 50.6464 164.129 50.3464V46.4364C164.129 46.1464 164.129 45.9664 163.949 45.8164H168.549C168.549 46.0364 168.419 46.5664 168.359 46.8164C168.199 46.6064 167.989 46.6364 167.669 46.6164H165.269V48.0264H167.359C167.649 48.0264 167.819 48.0264 167.969 47.8564V48.8564C167.819 48.6864 167.649 48.7064 167.359 48.6964H165.269V50.1964H167.779C168.099 50.1964 168.299 50.1964 168.449 50.0064C168.449 50.2064 168.569 50.7564 168.599 51.0064L164.269 50.9664Z" fill="#52545B"></path><path d="M172.639 51.0753C172.133 51.1197 171.624 51.0223 171.17 50.7942C170.716 50.566 170.334 50.216 170.068 49.7833C169.801 49.3506 169.66 48.8523 169.66 48.344C169.66 47.8358 169.802 47.3376 170.069 46.9052C171.069 45.2552 173.379 45.6053 174.919 46.1853L174.399 47.1853C173.919 46.4753 172.459 46.4553 171.739 46.7853C170.799 47.1953 170.739 48.5952 171.089 49.4052C171.297 49.6804 171.569 49.9011 171.881 50.0485C172.193 50.1959 172.536 50.2657 172.881 50.252C173.226 50.2382 173.562 50.1413 173.861 49.9695C174.16 49.7977 174.414 49.5561 174.599 49.2653L175.079 50.1753C174.758 50.4867 174.374 50.7276 173.954 50.8825C173.534 51.0375 173.086 51.1032 172.639 51.0753Z" fill="#52545B"></path><path d="M176.519 50.9635H176.199C176.389 50.8135 176.369 50.6435 176.379 50.3435V46.4335C176.379 46.1435 176.379 45.9635 176.199 45.8135C177.349 45.8835 179.769 45.5835 180.669 46.2035C180.904 46.3622 181.084 46.5896 181.184 46.8546C181.284 47.1196 181.299 47.4091 181.228 47.6833C181.157 47.9574 181.002 48.2027 180.786 48.3854C180.569 48.5681 180.301 48.6793 180.019 48.7035C181.279 48.8935 180.859 50.2435 181.389 50.9835H180.139L179.929 49.8535C179.739 48.7635 178.259 49.2135 177.429 49.1235C177.429 49.4935 177.289 50.7635 177.609 50.9635H176.519ZM178.929 48.3535C179.929 48.4735 180.629 47.4735 179.829 46.8035C179.399 46.4735 177.999 46.6235 177.429 46.5935V48.3535H178.929Z" fill="#52545B"></path><path d="M183.089 50.9664H182.77C182.96 50.8164 182.94 50.6464 182.95 50.3464V46.4364C182.95 46.1464 182.95 45.9664 182.77 45.8164H187.37C187.37 46.0364 187.24 46.5664 187.18 46.8164C187.03 46.6064 186.81 46.6364 186.49 46.6164H184.01V48.0264H186.099C186.389 48.0264 186.559 48.0264 186.709 47.8564V48.8564C186.559 48.6864 186.389 48.7064 186.099 48.6964H184.01V50.1964H186.52C186.84 50.1964 187.04 50.1964 187.2 50.0064C187.2 50.2064 187.319 50.7564 187.349 51.0064L183.089 50.9664Z" fill="#52545B"></path><path d="M190.379 50.9638H190.069C190.269 50.8238 190.229 50.6438 190.249 50.3438V46.6838H188.919C188.649 46.6838 188.489 46.6838 188.369 46.8438C188.369 46.6637 188.229 46.0138 188.199 45.8438H193.469C193.419 46.0537 193.309 46.6938 193.259 46.8438C193.149 46.6438 192.979 46.6838 192.709 46.6738H191.379V50.3338C191.379 50.6338 191.379 50.8038 191.569 50.9538L190.379 50.9638Z" fill="#52545B"></path><path d="M199.491 50.4334C199.591 50.6734 199.631 50.7934 199.801 50.9034H198.431C198.681 50.7034 198.221 50.0334 198.161 49.7734H195.491C195.491 50.0234 194.931 50.7734 195.251 50.9034H193.871C194.141 50.9034 195.761 46.5034 195.931 46.2434C196.101 45.9834 196.081 45.8934 195.931 45.7734H197.811C197.671 45.8934 197.721 46.0334 197.811 46.2434L199.491 50.4334ZM196.781 46.3734L195.781 49.0234H197.901L196.781 46.3734Z" fill="#52545B"></path><path d="M201.121 50.9635H200.801C201.001 50.8135 200.981 50.6435 200.991 50.3435V46.4335C200.991 46.1435 200.991 45.9635 200.801 45.8135C201.951 45.8835 204.371 45.5835 205.271 46.2035C205.505 46.3616 205.685 46.5882 205.785 46.8523C205.886 47.1165 205.902 47.4053 205.832 47.679C205.762 47.9528 205.609 48.1983 205.394 48.3817C205.179 48.5651 204.912 48.6775 204.631 48.7035C205.881 48.8935 205.461 50.2435 206.001 50.9835H204.741L204.541 49.8535C204.351 48.7635 202.861 49.2135 202.041 49.1235C202.041 49.4935 201.891 50.7635 202.221 50.9635H201.121ZM203.531 48.3535C204.531 48.4735 205.231 47.4735 204.441 46.8035C204.011 46.4735 202.611 46.6235 202.041 46.5935V48.3535H203.531Z" fill="#52545B"></path><path d="M207.18 45.0638L208.32 43.8438H209.5L207.97 45.0638H207.18ZM207.7 50.9638H207.37C207.57 50.8138 207.55 50.6438 207.56 50.3438V46.4338C207.56 46.1438 207.56 45.9638 207.37 45.8138H208.81C208.62 45.9638 208.64 46.1438 208.63 46.4338V50.3238C208.63 50.6238 208.63 50.7938 208.81 50.9438L207.7 50.9638Z" fill="#52545B"></path><path d="M215.44 50.4334C215.55 50.6734 215.58 50.7934 215.75 50.9034H214.38C214.63 50.7034 214.18 50.0334 214.12 49.7734H211.45C211.39 50.0234 210.89 50.7734 211.2 50.9034H209.82C210.09 50.9034 211.71 46.5034 211.89 46.2434C212.07 45.9834 212.04 45.8934 211.89 45.7734H213.76C213.62 45.8934 213.68 46.0334 213.76 46.2434L215.44 50.4334ZM212.74 46.3734L211.74 49.0234H213.85L212.74 46.3734Z" fill="#52545B"></path><path d="M220.73 50.9629H220.41C220.6 50.8129 220.59 50.6429 220.6 50.3429V46.4329C220.6 46.1429 220.6 45.9629 220.41 45.8129C222.02 45.8729 224.36 45.4829 225.35 46.9829C225.546 47.2918 225.673 47.6391 225.724 48.0014C225.774 48.3637 225.746 48.7326 225.642 49.0832C225.538 49.4338 225.359 49.758 225.119 50.0339C224.879 50.3099 224.583 50.5312 224.25 50.6829C223.101 50.9756 221.911 51.0704 220.73 50.9629ZM222.51 50.1229C222.926 50.2053 223.358 50.1347 223.726 49.9242C224.094 49.7137 224.374 49.3774 224.514 48.9772C224.653 48.5769 224.644 48.1396 224.487 47.7457C224.331 47.3517 224.037 47.0276 223.66 46.8329C223.01 46.6502 222.333 46.5858 221.66 46.6429V50.1229H222.51Z" fill="#52545B"></path><path d="M227.492 50.9664H227.172C227.362 50.8164 227.342 50.6464 227.362 50.3464V46.4364C227.362 46.1464 227.362 45.9664 227.172 45.8164H231.772C231.772 46.0364 231.642 46.5664 231.582 46.8164C231.432 46.6064 231.222 46.6364 230.892 46.6164H228.412V48.0264H230.502C230.792 48.0264 230.962 48.0264 231.122 47.8564V48.8564C230.962 48.6864 230.792 48.7064 230.502 48.6964H228.412V50.1964H230.922C231.242 50.1964 231.442 50.1964 231.602 50.0064C231.602 50.2064 231.722 50.7564 231.752 51.0064L227.492 50.9664Z" fill="#52545B"></path><path d="M239.98 51.0939C237.14 51.3339 235.9 48.3239 236.98 46.0939C238.04 44.1539 240.77 44.4839 242.5 45.2539L241.931 46.3339C241.361 45.4639 239.65 45.4139 238.8 45.8339C237.66 46.3639 237.58 48.1039 238.04 49.1039C238.75 50.5939 241.49 50.4539 242.14 48.9539L242.66 49.9539C242.323 50.3262 241.908 50.6209 241.446 50.8177C240.983 51.0145 240.483 51.1087 239.98 51.0939Z" fill="#52545B"></path><path d="M246.47 51.0848C242.64 51.3448 242.63 45.4147 246.47 45.6847C250.27 45.4347 250.27 51.3348 246.47 51.0848ZM246.47 50.2247C248.72 50.4147 248.73 46.3447 246.47 46.5347C244.16 46.3447 244.18 50.4347 246.47 50.2247Z" fill="#52545B"></path><path d="M251.029 50.9647H250.699C250.889 50.8147 250.869 50.6447 250.889 50.3447V46.4347C250.889 46.1447 250.889 45.9647 250.699 45.8147H252.069L254.909 49.3447V46.4347C254.909 46.1247 254.909 45.9747 254.729 45.8047C255.089 45.8047 255.669 45.8047 256.029 45.8047C255.809 45.9347 255.859 46.1247 255.839 46.4147V50.9447H254.929L251.769 47.0347V50.3147C251.769 50.6147 251.769 50.7647 251.959 50.9347L251.029 50.9647Z" fill="#52545B"></path><path d="M259.36 50.9638H259.05C259.26 50.8238 259.21 50.6438 259.23 50.3438V46.6838H257.9C257.63 46.6838 257.47 46.6838 257.35 46.8438C257.35 46.6637 257.21 46.0138 257.18 45.8438H262.45C262.4 46.0537 262.29 46.6838 262.25 46.8438C262.13 46.6438 261.96 46.6838 261.69 46.6738H260.36V50.3338C260.36 50.6338 260.36 50.8038 260.55 50.9538L259.36 50.9638Z" fill="#52545B"></path><path d="M263.832 50.9635H263.512C263.712 50.8135 263.692 50.6435 263.702 50.3435V46.4335C263.702 46.1435 263.702 45.9635 263.512 45.8135C264.662 45.8835 267.092 45.5835 267.992 46.2035C268.226 46.3622 268.406 46.5896 268.506 46.8546C268.606 47.1196 268.622 47.4091 268.55 47.6833C268.479 47.9574 268.325 48.2027 268.108 48.3854C267.892 48.5681 267.624 48.6793 267.342 48.7035C268.592 48.8935 268.182 50.2435 268.712 50.9835H267.452L267.252 49.8535C267.062 48.7635 265.572 49.2135 264.752 49.1235C264.752 49.4935 264.602 50.7635 264.932 50.9635H263.832ZM266.242 48.3535C267.242 48.4735 267.942 47.4735 267.152 46.8035C266.722 46.4735 265.322 46.6235 264.752 46.5935V48.3535H266.242Z" fill="#52545B"></path><path d="M275.042 50.4334C275.152 50.6734 275.182 50.7934 275.352 50.9034H273.982C274.232 50.7034 273.782 50.0334 273.722 49.7734H271.052C270.992 50.0234 270.482 50.7734 270.802 50.9034H269.422C269.692 50.9034 271.312 46.5034 271.492 46.2434C271.672 45.9834 271.632 45.8934 271.492 45.7734H273.272C273.132 45.8934 273.192 46.0334 273.272 46.2434L275.042 50.4334ZM272.332 46.3734L271.332 49.0234H273.452L272.332 46.3734Z" fill="#52545B"></path><path d="M276.672 50.9664H276.352C276.542 50.8164 276.522 50.6464 276.532 50.3464V46.4364C276.532 46.1464 276.532 45.9664 276.352 45.8164H277.792C277.592 45.9664 277.622 46.1464 277.612 46.4364V50.1064H279.772C280.102 50.1064 280.312 50.1064 280.462 49.9264C280.462 50.1364 280.542 50.7264 280.572 50.9264L276.672 50.9664Z" fill="#52545B"></path><path d="M284.271 51.0848C280.441 51.3448 280.431 45.4147 284.271 45.6847C288.021 45.4347 288.001 51.3348 284.271 51.0848ZM284.271 50.2247C286.521 50.4147 286.531 46.3447 284.271 46.5347C281.911 46.3447 281.931 50.4347 284.271 50.2247Z" fill="#52545B"></path><path d="M288.769 50.9635H288.449C288.639 50.8135 288.619 50.6435 288.639 50.3435V46.4335C288.639 46.1435 288.639 45.9635 288.449 45.8135C289.599 45.8835 292.019 45.5835 292.919 46.2035C293.154 46.3622 293.334 46.5896 293.434 46.8546C293.534 47.1196 293.549 47.4091 293.478 47.6833C293.407 47.9574 293.252 48.2027 293.036 48.3854C292.819 48.5681 292.551 48.6793 292.269 48.7035C293.529 48.8935 293.109 50.2435 293.639 50.9835H292.389L292.179 49.8535C291.999 48.7635 290.509 49.2135 289.679 49.1235C289.739 49.4935 289.539 50.7635 289.859 50.9635H288.769ZM291.179 48.3535C292.179 48.4735 292.879 47.4735 292.089 46.8035C291.659 46.4735 290.249 46.6235 289.679 46.5935V48.3535H291.179Z" fill="#52545B"></path><path d="M294.82 45.0638L295.96 43.8438H297.15L295.62 45.0638H294.82ZM295.35 50.9638H295.02C295.22 50.8138 295.2 50.6438 295.21 50.3438V46.4338C295.21 46.1438 295.21 45.9638 295.02 45.8138H296.46C296.27 45.9638 296.29 46.1438 296.27 46.4338V50.3238C296.27 50.6238 296.27 50.7938 296.46 50.9438L295.35 50.9638Z" fill="#52545B"></path><path d="M303.089 50.4334C303.199 50.6734 303.229 50.7934 303.399 50.9034H302.029C302.279 50.7034 301.819 50.0334 301.759 49.7734H299.099C299.039 50.0234 298.529 50.7734 298.849 50.9034H297.469C297.729 50.9034 299.359 46.5034 299.529 46.2434C299.699 45.9834 299.679 45.8934 299.529 45.7734H301.409C301.269 45.8934 301.329 46.0334 301.409 46.2434L303.089 50.4334ZM300.379 46.3734L299.379 49.0234H301.499L300.379 46.3734Z" fill="#52545B"></path><path d="M167.432 59.8549H167.102C167.292 59.6949 167.282 59.5249 167.292 59.2249V55.335C167.292 55.035 167.292 54.865 167.102 54.705C168.712 54.705 171.102 54.3649 172.042 55.8649C172.237 56.1739 172.365 56.5211 172.415 56.8834C172.465 57.2457 172.438 57.6146 172.333 57.9652C172.229 58.3158 172.051 58.64 171.811 58.916C171.571 59.1919 171.274 59.4132 170.942 59.5649C169.797 59.8646 168.61 59.9627 167.432 59.8549ZM169.212 59.015C169.627 59.0973 170.059 59.0268 170.427 58.8163C170.795 58.6058 171.075 58.2695 171.215 57.8692C171.355 57.4689 171.346 57.0317 171.189 56.6377C171.032 56.2437 170.738 55.9196 170.362 55.7249C169.712 55.5422 169.034 55.4778 168.362 55.5349V59.015H169.212Z" fill="#52545B"></path><path d="M174.189 59.8531H173.859C174.049 59.7031 174.029 59.5231 174.049 59.2231V55.3331C174.049 55.0331 174.049 54.8631 173.859 54.7031H178.479C178.479 54.9131 178.339 55.4431 178.279 55.7031C178.129 55.4931 177.919 55.5231 177.599 55.5031H175.109V56.9131H177.199C177.489 56.9131 177.669 56.9131 177.819 56.7431V57.7431C177.669 57.5631 177.489 57.5831 177.199 57.5731H175.109V59.0731H177.619C177.939 59.0731 178.139 59.0731 178.299 58.8831C178.299 59.0931 178.419 59.6331 178.459 59.8831L174.189 59.8531Z" fill="#52545B"></path><path d="M180.172 59.8531H179.852C180.042 59.6931 180.022 59.5231 180.032 59.2231V55.3331C180.032 55.0331 180.032 54.8631 179.852 54.7031H181.272C181.062 54.8531 181.092 55.0331 181.082 55.3331V58.9931H183.272C183.602 58.9931 183.812 58.9931 183.962 58.8131C183.962 59.0231 184.042 59.6231 184.072 59.8131L180.172 59.8531Z" fill="#52545B"></path><path d="M189.271 59.8536H188.871C189.091 59.6436 189.071 59.4636 189.081 59.0936V54.4336C189.081 54.0636 189.081 53.8836 188.871 53.6836H194.121C194.121 53.9436 193.981 54.5436 193.951 54.7936C193.741 54.5436 193.511 54.5736 193.111 54.5536H190.271V56.3336H192.661C193.031 56.3336 193.221 56.3336 193.421 56.1036V57.3336C193.221 57.1136 193.031 57.1236 192.661 57.1136H190.271V59.0036H193.181C193.571 59.0036 193.801 59.0036 194.001 58.7736C194.001 59.0136 194.121 59.6136 194.151 59.8636L189.271 59.8536Z" fill="#52545B"></path><path d="M197.59 59.9844C196.66 60.0273 195.744 59.7444 195 59.1844L195.41 58.2444C195.72 59.5144 199.86 59.6444 198.76 57.8844C197.88 57.3044 196.36 57.7144 195.6 56.8844C194.6 55.4444 196.18 54.4044 197.74 54.5344C198.536 54.5895 199.321 54.7579 200.07 55.0344L199.58 55.9444C199.17 55.0644 195.66 54.9444 196.58 56.3644C197.49 56.9044 198.99 56.5044 199.75 57.3644C200.87 58.8944 199.27 60.1344 197.59 59.9844Z" fill="#52545B"></path><path d="M203.071 59.8527H202.751C202.961 59.7027 202.911 59.5227 202.931 59.2227V55.5627H201.611C201.331 55.5627 201.181 55.5627 201.051 55.7227C201.051 55.5427 200.901 54.9027 200.871 54.7227H206.141C206.141 54.9227 205.981 55.5627 205.941 55.7227C205.821 55.5327 205.651 55.5727 205.391 55.5527H204.051V59.2127C204.051 59.5127 204.051 59.6927 204.241 59.8427H203.081L203.071 59.8527Z" fill="#52545B"></path><path d="M212.18 59.3631C212.29 59.6031 212.32 59.7231 212.49 59.8431H211.099C211.359 59.6331 210.899 58.9631 210.839 58.7131H208.17C208.11 58.9531 207.61 59.7131 207.92 59.8431H206.52C206.79 59.8431 208.409 55.4431 208.589 55.1831C208.769 54.9231 208.739 54.8231 208.589 54.7031H210.469C210.329 54.8331 210.389 54.9631 210.469 55.1831L212.18 59.3631ZM209.479 55.3031L208.479 57.9531H210.589L209.479 55.3031Z" fill="#52545B"></path><path d="M213.822 59.8549H213.492C213.682 59.6949 213.662 59.5249 213.672 59.2249V55.335C213.672 55.035 213.672 54.865 213.492 54.705C215.092 54.705 217.432 54.3649 218.432 55.8649C218.628 56.1745 218.755 56.5224 218.804 56.8851C218.854 57.2479 218.825 57.6171 218.72 57.9678C218.615 58.3185 218.435 58.6425 218.194 58.918C217.953 59.1936 217.656 59.4142 217.322 59.5649C216.181 59.8647 214.997 59.9628 213.822 59.8549ZM215.592 59.015C216.008 59.0973 216.44 59.0268 216.808 58.8163C217.176 58.6058 217.456 58.2695 217.596 57.8692C217.735 57.4689 217.726 57.0317 217.569 56.6377C217.413 56.2437 217.119 55.9196 216.742 55.7249C216.093 55.5404 215.415 55.4761 214.742 55.5349V59.015H215.592Z" fill="#52545B"></path><path d="M222.83 59.9753C219.01 60.2453 219 54.3053 222.83 54.5753C226.64 54.3153 226.62 60.2353 222.83 59.9753ZM222.83 59.1253C225.09 59.3053 225.1 55.2353 222.83 55.4353C220.52 55.2453 220.54 59.2953 222.83 59.1253Z" fill="#52545B"></path><path d="M231.041 59.8549H230.711C230.901 59.6949 230.891 59.5249 230.901 59.2249V55.335C230.901 55.035 230.901 54.865 230.711 54.705C232.321 54.705 234.711 54.3649 235.651 55.8649C235.847 56.1739 235.974 56.5211 236.025 56.8834C236.075 57.2457 236.047 57.6146 235.943 57.9652C235.839 58.3158 235.66 58.64 235.42 58.916C235.18 59.1919 234.884 59.4132 234.551 59.5649C233.407 59.8646 232.219 59.9627 231.041 59.8549ZM232.821 59.015C233.237 59.0973 233.669 59.0268 234.037 58.8163C234.405 58.6058 234.684 58.2695 234.824 57.8692C234.964 57.4689 234.955 57.0317 234.798 56.6377C234.641 56.2437 234.348 55.9196 233.971 55.7249C233.321 55.5422 232.644 55.4778 231.971 55.5349V59.015H232.821Z" fill="#52545B"></path><path d="M237.799 59.8531H237.469C237.659 59.7031 237.639 59.5231 237.659 59.2231V55.3331C237.659 55.0331 237.659 54.8631 237.469 54.7031H242.089C242.089 54.9131 241.949 55.4431 241.889 55.7031C241.739 55.4931 241.529 55.5231 241.209 55.5031H238.719V56.9131H240.809C241.099 56.9131 241.279 56.9131 241.429 56.7431V57.7431C241.279 57.5631 241.099 57.5831 240.809 57.5731H238.719V59.0731H241.269C241.589 59.0731 241.789 59.0731 241.949 58.8831C241.949 59.0931 242.069 59.6331 242.109 59.8831L237.799 59.8531Z" fill="#52545B"></path><path d="M247.63 59.8535H247.23C247.45 59.6435 247.421 59.4635 247.441 59.0935V54.4335C247.441 54.0635 247.44 53.8835 247.23 53.6835C249.09 53.7435 251.781 53.2835 252.901 55.0735C253.781 56.5235 253.34 58.9035 251.63 59.5435C250.69 59.9835 248.74 59.8335 247.63 59.8535ZM249.63 58.9535C250.062 59.0031 250.499 58.9366 250.896 58.7608C251.294 58.585 251.637 58.3063 251.891 57.9535C252.451 56.9535 252.241 55.2335 251.031 54.7935C250.246 54.564 249.425 54.4827 248.61 54.5535V58.9635L249.63 58.9535Z" fill="#52545B"></path><path d="M257.272 59.9431C254.042 60.0031 254.892 57.5031 254.782 55.3331C254.782 55.0331 254.782 54.8631 254.602 54.7031H256.082C255.882 54.8531 255.912 55.0331 255.892 55.3331V58.0231C255.892 58.8631 256.412 59.0231 257.272 59.0831C258.132 59.1431 258.632 58.8631 258.652 58.0231V55.3331C258.652 55.0331 258.652 54.8531 258.462 54.7031H259.872C259.662 54.8531 259.702 55.0331 259.682 55.3331C259.592 57.4331 260.442 60.0031 257.272 59.9431Z" fill="#52545B"></path><path d="M261.65 59.8552H261.32C261.51 59.6952 261.5 59.5252 261.51 59.2252V55.3352C261.51 55.0352 261.51 54.8652 261.32 54.7052C262.47 54.7652 264.89 54.4752 265.79 55.0852C266.025 55.2439 266.205 55.4713 266.305 55.7363C266.405 56.0013 266.42 56.2908 266.349 56.565C266.278 56.8391 266.123 57.0844 265.907 57.2671C265.69 57.4498 265.422 57.561 265.14 57.5852C266.4 57.7752 265.98 59.1352 266.51 59.8652H265.27L265.06 58.7352C264.88 57.6452 263.39 58.1052 262.57 58.0152C262.57 58.3752 262.42 59.6452 262.74 59.8552H261.65ZM264.06 57.2452C265.06 57.3652 265.76 56.3652 264.97 55.6952C264.54 55.3652 263.14 55.5152 262.57 55.4852V57.2452H264.06Z" fill="#52545B"></path><path d="M272.849 59.3631C272.906 59.5511 273.018 59.718 273.169 59.8431H271.779C272.029 59.6331 271.569 58.9631 271.509 58.7131H268.839C268.839 58.9531 268.279 59.7131 268.599 59.8431H267.199C267.459 59.8431 269.089 55.4431 269.259 55.1831C269.429 54.9231 269.409 54.8231 269.259 54.7031H271.149C270.999 54.8331 271.059 54.9631 271.149 55.1831L272.849 59.3631ZM270.149 55.3031L269.149 57.9531H271.269L270.149 55.3031Z" fill="#52545B"></path><path d="M274.502 59.8531H274.172C274.362 59.7031 274.342 59.5231 274.362 59.2231V55.3331C274.362 55.0331 274.362 54.8631 274.172 54.7031H275.552L278.402 58.2231V55.3331C278.402 55.0231 278.402 54.8631 278.222 54.7031C278.582 54.7031 279.162 54.7031 279.522 54.7031C279.302 54.8331 279.352 55.0231 279.332 55.3231V59.8431H278.432L275.262 55.9331V59.2131C275.262 59.5231 275.262 59.6731 275.452 59.8431H274.452L274.502 59.8531Z" fill="#52545B"></path><path d="M283.812 59.9651C281.432 60.1651 280.322 57.705 281.292 55.795C282.292 54.105 284.582 54.5451 286.112 55.0651L285.602 56.0051C285.122 55.2851 283.662 55.245 282.942 55.605C282.002 56.035 281.942 57.4451 282.282 58.2751C282.962 59.7051 285.672 59.2751 285.462 57.5151C285.092 57.5151 283.952 57.4151 283.652 57.6251H283.592L283.722 56.8751H286.502C286.642 58.6651 285.702 60.0551 283.812 59.9651Z" fill="#52545B"></path><path d="M290.392 59.9753C286.572 60.2453 286.562 54.3053 290.392 54.5753C294.192 54.3153 294.182 60.2353 290.392 59.9753ZM290.392 59.1253C292.652 59.3053 292.662 55.2353 290.392 55.4353C288.082 55.2353 288.102 59.2953 290.392 59.1253Z" fill="#52545B"></path><path d="M146.86 39.2252C142.54 39.279 138.246 38.561 134.18 37.1052L136.18 31.4352H136.29C138.59 33.8552 142.64 34.4352 146.14 34.4352C148.89 34.3052 151.91 34.4352 152.14 31.9752C152.158 31.6884 152.097 31.4022 151.962 31.1481C151.828 30.894 151.627 30.6819 151.38 30.5352C146.26 28.4152 135.83 31.7352 135.73 23.3552C135.97 17.1252 142.25 16.5052 148.45 16.3552C152.45 16.2152 155.73 17.4052 159.6 17.5952L159.68 17.6652L156.95 22.8152H156.88C155.5 20.6352 143.32 19.1552 143.19 22.8152C143.37 25.1252 146.91 24.6652 149.01 24.8952C150.847 24.9342 152.679 25.1114 154.49 25.4252C155.899 25.6809 157.207 26.333 158.26 27.3052C160.94 29.8152 160.26 35.7652 156.58 37.3752C154.41 38.6252 151.17 39.2252 146.86 39.2252Z" fill="#52545B"></path><path d="M168.391 38.6331H166.641V38.5531C167.581 37.7931 167.471 37.1231 167.531 35.6431V19.9431C167.471 18.4631 167.531 17.7931 166.641 17.0331V16.9531H190.401C190.151 18.1431 189.521 21.1731 189.321 22.3231H189.271C188.511 21.4231 187.561 21.4931 186.101 21.4331H174.761V25.4331H184.271C185.681 25.4331 186.271 25.4331 187.141 24.7631H187.221V30.1731H187.141C186.331 29.4231 185.681 29.5631 184.271 29.5031H174.721V33.8731H186.171C187.601 33.8131 188.641 33.8731 189.351 32.9331H189.421C189.601 34.0831 190.181 37.3331 190.421 38.5331L168.391 38.6331Z" fill="#52545B"></path><path d="M211.271 39.2249C205.811 39.1649 200.991 38.2249 198.081 34.0049C195.831 30.7749 195.791 24.7149 198.081 21.5249C201.561 16.6049 208.701 16.0249 214.741 16.5249C217.671 16.6849 220.181 17.5949 223.021 17.5849L220.141 23.6649H220.001C216.901 21.2349 207.091 20.9249 204.641 24.5149C204.157 25.2309 203.843 26.0488 203.725 26.9054C203.606 27.7619 203.687 28.6342 203.959 29.4549C204.232 30.2755 204.689 31.0224 205.297 31.638C205.904 32.2535 206.644 32.7213 207.461 33.0049C211.361 34.3549 218.271 33.9049 220.781 30.2249H220.891L223.611 36.1249C220.481 38.4349 215.531 39.2049 211.271 39.2249Z" fill="#52545B"></path><path d="M243.081 39.2237C235.451 39.4637 228.311 35.9037 228.561 27.7037C228.331 19.5537 235.561 16.1337 243.081 16.3537C250.621 16.1437 257.791 19.5537 257.551 27.7037C257.801 35.8837 250.711 39.4337 243.081 39.2237ZM243.081 33.8137C246.961 33.9837 250.021 31.7137 249.871 27.7037C250.021 23.7037 246.871 21.6237 243.081 21.7637C239.251 21.6037 236.081 23.7637 236.251 27.7037C236.101 31.7137 239.181 33.9737 243.081 33.8137Z" fill="#52545B"></path><path d="M266.27 38.6331H264.52V38.5531C265.46 37.7931 265.36 37.1231 265.42 35.6431V19.9431C265.36 18.4631 265.42 17.7931 264.52 17.0331V16.9531H288.27C288.02 18.1431 287.39 21.1731 287.19 22.3231H287.12C286.36 21.4231 285.4 21.4931 283.95 21.4331H272.609V25.4331H282.16C283.56 25.4331 284.16 25.4331 285.03 24.7631H285.099V30.1731H285.03C284.21 29.4231 283.57 29.5631 282.16 29.5031H272.609V33.8731H284.06C285.49 33.8131 286.519 33.8731 287.229 32.9331H287.3C287.49 34.0831 288.06 37.3331 288.3 38.5331L266.27 38.6331Z" fill="#52545B"></path><path d="M296.979 38.6331H295.27V38.5531C296.21 37.7931 296.11 37.1231 296.17 35.6431V19.9431C296.11 18.4631 296.17 17.7931 295.27 17.0331V16.9531C296.18 16.9531 305.269 16.9531 306.459 16.9531C312.149 17.0431 317.46 17.8031 320.77 21.8231C321.727 23.1402 322.35 24.6701 322.585 26.2814C322.821 27.8926 322.661 29.537 322.12 31.0728C321.579 32.6086 320.672 33.9899 319.479 35.0978C318.286 36.2058 316.841 37.0072 315.27 37.4331C311.02 39.1331 301.929 38.5331 296.979 38.6331ZM306.609 33.2231C309.669 33.2231 312.5 32.7731 314.31 30.6831C314.804 30.0208 315.122 29.2435 315.233 28.4243C315.345 27.6052 315.246 26.7712 314.945 26.0009C314.645 25.2307 314.154 24.5494 313.518 24.0215C312.882 23.4935 312.122 23.1362 311.31 22.9831C309.31 22.2531 305.68 22.3531 303.31 22.3631V33.2231H306.609Z" fill="#52545B"></path><path d="M3.19865 48.8335C2.96249 48.725 2.6934 48.7127 2.44835 48.7992C2.20329 48.8857 2.00155 49.0643 1.88585 49.297C1.77014 49.5297 1.74955 49.7983 1.82847 50.0459C1.9074 50.2935 2.07961 50.5006 2.30864 50.6234C2.42665 50.6867 2.5562 50.7257 2.68956 50.738C2.82291 50.7502 2.95735 50.7356 3.08494 50.6949C3.21253 50.6543 3.33065 50.5884 3.43229 50.5012C3.53394 50.414 3.61706 50.3073 3.67668 50.1874C3.7363 50.0674 3.77124 49.9368 3.7794 49.8031C3.78756 49.6695 3.76881 49.5356 3.72422 49.4093C3.67964 49.283 3.61016 49.1669 3.51988 49.068C3.4296 48.9691 3.32034 48.8894 3.19865 48.8335ZM3.19865 50.0635C3.15045 50.1693 3.06313 50.2524 2.955 50.2953C2.84686 50.3381 2.72629 50.3375 2.61863 50.2934C2.25863 50.2034 2.25868 49.7335 2.35868 49.4435C2.4027 49.3629 2.46885 49.2967 2.54936 49.2526C2.62986 49.2085 2.72129 49.1885 2.81285 49.1948C2.90441 49.2011 2.99227 49.2335 3.06596 49.2882C3.13965 49.3429 3.19614 49.4176 3.22868 49.5035C3.30138 49.6811 3.31538 49.8773 3.26866 50.0635H3.19865Z" fill="#BABAB3"></path><path d="M5.63145 50.3159H4.53147C4.80147 49.9559 5.39147 49.9659 5.59147 49.5459C5.86147 48.7759 4.67148 48.6059 4.16148 48.9159C4.14624 49.0655 4.14624 49.2163 4.16148 49.3659C4.35148 49.2059 5.26148 48.9959 5.16148 49.4459C4.92148 49.7259 4.51145 49.7759 4.26145 50.0459C4.17929 50.1343 4.1214 50.2424 4.09336 50.3598C4.06533 50.4772 4.06813 50.5999 4.10148 50.7159C4.62148 50.7159 5.18144 50.7159 5.68144 50.7159C5.63144 50.5759 5.69145 50.4359 5.63145 50.3159Z" fill="#BABAB3"></path><path d="M7.48991 50.3143H6.39994C6.65994 49.9543 7.25994 49.9643 7.45994 49.5343C7.70994 48.7643 6.52995 48.6043 6.02995 48.9143C6.00952 49.0636 6.00952 49.215 6.02995 49.3643C6.22995 49.1843 7.21995 49.0043 7.02995 49.4843C6.76995 49.7143 6.39995 49.7943 6.15995 50.0443C6.07778 50.1327 6.01984 50.2409 5.9918 50.3583C5.96377 50.4757 5.96656 50.5983 5.99992 50.7143C6.51992 50.7143 7.08994 50.7143 7.57994 50.7143C7.48994 50.5743 7.54991 50.4343 7.48991 50.3143Z" fill="#BABAB3"></path><path d="M1.52002 50.3154H0.429993C0.689993 49.9654 1.26004 49.9654 1.48004 49.5654C1.78004 48.7854 0.560049 48.5654 0.0500488 48.9154C0.0348069 49.065 0.0348069 49.2158 0.0500488 49.3654C0.230049 49.1854 1.26005 49.0054 1.05005 49.4854C0.700049 49.8054 0.05 49.8954 0 50.4854C0 50.5554 0 50.6754 0 50.7254H1.56C1.56 50.6254 1.56 50.4754 1.56 50.3454C1.56 50.2154 1.53002 50.3154 1.52002 50.3154Z" fill="#BABAB3"></path><path d="M98.2106 49.8131C98.1318 49.753 98.0441 49.7057 97.9506 49.6731C98.7606 49.2231 97.8306 48.613 97.2206 48.783C96.7206 48.783 96.3306 49.4731 96.9306 49.6731C96.8347 49.6911 96.7465 49.7373 96.6771 49.8058C96.6077 49.8743 96.5603 49.9619 96.541 50.0575C96.5216 50.153 96.5313 50.2522 96.5686 50.3423C96.606 50.4323 96.6693 50.5092 96.7506 50.5631C97.2706 50.9831 98.7906 50.6631 98.2106 49.8131ZM97.1206 49.2131C97.22 49.1638 97.3295 49.138 97.4406 49.138C97.5516 49.138 97.6611 49.1638 97.7606 49.2131C98.0706 49.6331 96.7606 49.6131 97.1206 49.2131ZM97.7406 50.3031C97.4206 50.4731 96.6406 50.2431 97.1306 49.8731C97.4506 49.7131 98.2706 49.9231 97.7406 50.3031Z" fill="#BABAB3"></path><path d="M93.7807 48.8335C93.5445 48.725 93.2755 48.7127 93.0304 48.7992C92.7853 48.8857 92.5835 49.0643 92.4678 49.297C92.3521 49.5297 92.3316 49.7983 92.4105 50.0459C92.4895 50.2935 92.6617 50.5006 92.8907 50.6234C93.0087 50.6867 93.1383 50.7257 93.2716 50.738C93.405 50.7502 93.5394 50.7356 93.667 50.6949C93.7946 50.6543 93.9127 50.5884 94.0143 50.5012C94.116 50.414 94.1991 50.3073 94.2587 50.1874C94.3184 50.0674 94.3533 49.9368 94.3615 49.8031C94.3696 49.6695 94.3509 49.5356 94.3063 49.4093C94.2617 49.283 94.1921 49.1669 94.1019 49.068C94.0116 48.9691 93.9024 48.8894 93.7807 48.8335ZM93.7807 50.0635C93.7287 50.1684 93.6394 50.2502 93.5302 50.2927C93.4211 50.3352 93.3 50.3355 93.1907 50.2934C92.8307 50.2034 92.8307 49.7335 92.9307 49.4435C92.9747 49.3629 93.0409 49.2967 93.1214 49.2526C93.2019 49.2085 93.2933 49.1885 93.3849 49.1948C93.4765 49.2011 93.5643 49.2335 93.638 49.2882C93.7117 49.3429 93.7682 49.4176 93.8007 49.5035C93.8606 49.6844 93.8675 49.8787 93.8207 50.0635H93.7807Z" fill="#BABAB3"></path><path d="M96.2089 50.3159H95.1188C95.3888 49.9559 95.9688 49.9659 96.1788 49.5459C96.4388 48.7759 95.2488 48.6059 94.7488 48.9159C94.7284 49.0652 94.7284 49.2166 94.7488 49.3659C94.9388 49.2059 95.8388 48.9959 95.7488 49.4459C95.5088 49.7259 95.0889 49.7759 94.8489 50.0559C94.7658 50.1417 94.7071 50.2481 94.679 50.3641C94.6509 50.4802 94.6543 50.6016 94.6888 50.7159C95.2088 50.7159 95.7789 50.7159 96.2689 50.7159C96.2089 50.5759 96.2689 50.4359 96.2089 50.3159Z" fill="#BABAB3"></path><path d="M92.0991 50.3136H91.009C91.269 49.9536 91.839 49.9636 92.009 49.5636C92.299 48.7536 91.0991 48.5636 90.5891 48.9136C90.5686 49.0629 90.5686 49.2143 90.5891 49.3636C90.7791 49.1836 91.7991 49.0036 91.5391 49.4836C91.1891 49.8036 90.5391 49.8936 90.5391 50.4836C90.5391 50.5636 90.5391 50.6736 90.5391 50.7236H92.0991C92.1591 50.6236 92.0991 50.4736 92.0991 50.3436C92.0991 50.2136 92.1191 50.3136 92.0991 50.3136Z" fill="#BABAB3"></path><path d="M24.9414 58.5234C25.2435 58.5984 25.5594 58.5984 25.8615 58.5234C25.5594 58.5984 25.2435 58.5984 24.9414 58.5234Z" fill="#BABAB3"></path><path d="M29.7524 57.4347H29.6124C29.707 57.4093 29.7919 57.3567 29.8568 57.2834C29.9217 57.2102 29.9636 57.1195 29.9775 57.0226C29.9913 56.9257 29.9764 56.8269 29.9346 56.7384C29.8929 56.6499 29.826 56.5756 29.7424 56.5248C29.2024 56.2548 28.5524 56.4447 27.9624 56.3847C27.8624 57.0647 27.9624 57.8847 27.9624 58.6047C28.6424 58.5247 29.9624 58.9347 30.0824 57.9547C30.1014 57.8426 30.0782 57.7274 30.0173 57.6313C29.9563 57.5353 29.862 57.4653 29.7524 57.4347ZM28.4524 56.7847C28.7424 56.8447 29.3424 56.6147 29.4524 56.9847C29.3624 57.3647 28.7724 57.1347 28.4524 57.1947V56.7847ZM29.2524 58.1047H28.4524C28.4524 57.9447 28.3924 57.7047 28.4524 57.5947C28.7624 57.6547 29.3824 57.4247 29.4524 57.8147C29.4651 57.8782 29.4537 57.9441 29.4204 57.9995C29.3871 58.055 29.3344 58.0961 29.2724 58.1147L29.2524 58.1047Z" fill="#BABAB3"></path><path d="M26.0016 56.4363C25.3716 56.2263 24.4416 56.3663 24.2416 57.1063C24.143 57.3723 24.1492 57.6659 24.2587 57.9276C24.3682 58.1893 24.5729 58.3997 24.8316 58.5163C25.1448 58.6679 25.5034 58.6966 25.8367 58.5966C26.1699 58.4966 26.4536 58.2752 26.6316 57.9763C26.6981 57.8347 26.7345 57.6809 26.7384 57.5246C26.7424 57.3682 26.7139 57.2128 26.6547 57.068C26.5955 56.9233 26.5069 56.7924 26.3945 56.6836C26.282 56.5749 26.1482 56.4907 26.0016 56.4363ZM26.1316 57.7163C25.8616 58.4863 24.4416 58.1863 24.7716 57.2363C25.0716 56.4363 26.4316 56.7763 26.1316 57.6863V57.7163Z" fill="#BABAB3"></path><path d="M44.4118 56.4363C43.7718 56.2263 42.8517 56.3663 42.6517 57.1063C42.5532 57.3723 42.5593 57.6659 42.6688 57.9276C42.7783 58.1893 42.9831 58.3997 43.2417 58.5163C43.553 58.6698 43.9109 58.6993 44.2432 58.5991C44.5754 58.4989 44.8573 58.2763 45.0317 57.9763C45.1001 57.8356 45.1381 57.6822 45.1436 57.5259C45.149 57.3696 45.1216 57.2139 45.0632 57.0689C45.0048 56.9238 44.9167 56.7926 44.8045 56.6836C44.6923 56.5747 44.5585 56.4904 44.4118 56.4363ZM44.5418 57.7163C44.2718 58.4863 42.8517 58.1863 43.1817 57.2363C43.4817 56.4363 44.8418 56.7763 44.5418 57.6863V57.7163Z" fill="#BABAB3"></path><path d="M37.869 57.7347C38.0219 57.6766 38.1497 57.5667 38.2301 57.4243C38.3105 57.2818 38.3384 57.1156 38.309 56.9547C38.129 56.0447 36.919 56.4347 36.249 56.3447C36.2087 57.0841 36.2087 57.8252 36.249 58.5647H36.749V57.8347H37.269C37.424 58.0573 37.5675 58.2876 37.699 58.5247C37.879 58.6147 38.129 58.5247 38.339 58.5247L37.819 57.7047L37.869 57.7347ZM37.659 57.2847C37.474 57.3539 37.2752 57.3779 37.079 57.3547C36.969 57.3547 36.789 57.4147 36.719 57.3547V56.8947C36.879 56.7847 37.239 56.8947 37.469 56.8947C37.699 56.8947 37.889 57.1347 37.659 57.2847Z" fill="#BABAB3"></path><path d="M23.1221 57.2455H21.9122V57.6655H22.6221C22.6221 57.7955 22.6822 57.9955 22.5522 58.0655C22.3009 58.1608 22.0234 58.1608 21.7721 58.0655C21.6558 58.0105 21.5585 57.9222 21.4924 57.8119C21.4263 57.7015 21.3944 57.574 21.4009 57.4455C21.4073 57.317 21.4516 57.1932 21.5284 57.09C21.6052 56.9868 21.7109 56.9086 21.8321 56.8655C22.0159 56.813 22.2085 56.7992 22.3979 56.825C22.5872 56.8509 22.7691 56.9157 22.9321 57.0155C22.9321 56.8355 22.9921 56.6055 22.9321 56.4655C22.2821 56.2255 21.2821 56.2555 20.9321 57.0055C20.3921 58.3655 22.0821 59.0555 23.0821 58.3355C23.1269 57.974 23.1402 57.6093 23.1221 57.2455Z" fill="#BABAB3"></path><path d="M41.1125 56.3542V57.6742C40.4125 56.8842 40.4725 56.2042 39.5625 56.3442V58.5642H40.0526V57.0542C40.4226 57.5242 40.7426 58.0542 41.0526 58.5242C41.1726 58.6042 41.3625 58.5242 41.5125 58.5242V56.3242L41.1125 56.3542Z" fill="#BABAB3"></path><path d="M34.4697 58.1063C34.2497 58.1063 33.8297 58.1863 33.7197 58.1063V57.7263H34.7197V57.2563H33.7197C33.6097 57.2563 33.7197 57.0163 33.7197 56.9163C33.9597 56.7663 34.5397 56.9163 34.8797 56.8563C34.9997 56.8563 34.8797 56.5063 34.9397 56.4062H33.1797V58.6163H34.9697V58.1562L34.4697 58.1063Z" fill="#BABAB3"></path><path d="M31.3309 56.3438C31.2751 57.0827 31.2751 57.8248 31.3309 58.5638H31.8609V56.3438H31.3309Z" fill="#BABAB3"></path><path d="M49.2701 56.3555H48.1602V58.5655C48.8002 58.5655 49.5701 58.7355 50.0701 58.2155C50.2104 58.0564 50.3026 57.8607 50.3361 57.6512C50.3695 57.4418 50.3427 57.2271 50.2589 57.0322C50.1751 56.8374 50.0377 56.6703 49.8627 56.5505C49.6876 56.4307 49.4821 56.3631 49.2701 56.3555ZM49.7302 57.7755C49.5402 58.1655 49.0602 58.0655 48.7302 58.0755V56.8455C49.2702 56.7455 50.0001 57.0055 49.6901 57.7755H49.7302Z" fill="#BABAB3"></path><path d="M63.7719 57.3533C63.4319 57.1433 63.0019 57.2233 62.6419 57.0633C62.2919 56.5833 63.6419 56.7733 63.8719 56.9533C63.8719 56.7933 63.9619 56.4533 63.7819 56.4133C63.3265 56.2685 62.8373 56.2685 62.3819 56.4133C62.2734 56.4559 62.1802 56.5302 62.1145 56.6265C62.0488 56.7228 62.0136 56.8367 62.0136 56.9533C62.0136 57.0699 62.0488 57.1838 62.1145 57.2801C62.1802 57.3765 62.2734 57.4508 62.3819 57.4933C62.7019 57.6233 63.0819 57.5533 63.3819 57.7033C63.7819 58.3133 62.2319 58.1033 61.9919 57.8633C61.9662 58.0524 61.9662 58.2442 61.9919 58.4333C62.2934 58.5397 62.6125 58.5872 62.9319 58.5733C63.6819 58.7033 64.4819 57.9033 63.7719 57.3533Z" fill="#BABAB3"></path><path d="M60.6496 58.1045H59.4996C59.3996 58.1045 59.4996 57.7845 59.4996 57.6745C59.8196 57.6745 60.2596 57.7545 60.4996 57.6745C60.4996 57.5245 60.4996 57.3845 60.4996 57.2445H59.4996V56.8545H60.7096C60.7096 56.7345 60.7696 56.4245 60.7096 56.3945H58.9696C58.902 57.1292 58.8853 57.8676 58.9197 58.6045H60.6996C60.6996 58.4745 60.6996 58.3345 60.6996 58.2045C60.6996 58.0745 60.6996 58.1045 60.6496 58.1045Z" fill="#BABAB3"></path><path d="M52.7996 58.1031C52.5796 58.1031 52.1596 58.1831 52.0496 58.1031C51.9396 58.0231 52.0496 57.8531 52.0496 57.7231H53.0496V57.2531C52.7496 57.2531 52.2196 57.3331 52.0496 57.2531C52.0496 57.1531 52.0496 56.9031 52.1096 56.9131H53.2095C53.2695 56.9131 53.2695 56.9131 53.2695 56.8531V56.4531H51.5195V58.6631H53.2695V58.2031L52.7996 58.1031Z" fill="#BABAB3"></path><path d="M67.0814 56.4343C66.3702 56.367 65.655 56.3503 64.9414 56.3843V56.8143C65.0614 56.9343 65.4614 56.8143 65.6914 56.8143C65.7586 57.3918 65.7753 57.974 65.7414 58.5543H66.2714V56.8143H67.0214L67.0814 56.4343Z" fill="#BABAB3"></path><path d="M55.0908 58.0138V56.4338C55.0908 56.3238 54.6908 56.4338 54.5508 56.3838V58.5938H56.1108V58.1038H55.1108L55.0908 58.0138Z" fill="#BABAB3"></path><path d="M77.0894 57.1547C76.9978 56.9097 76.8355 56.6974 76.6231 56.5448C76.4106 56.3922 76.1576 56.3062 75.8961 56.2976C75.6347 56.289 75.3766 56.3583 75.1546 56.4967C74.9326 56.6351 74.7568 56.8362 74.6494 57.0747C74.5859 57.2579 74.5697 57.4541 74.6024 57.6452C74.635 57.8362 74.7155 58.0159 74.8362 58.1676C74.9569 58.3192 75.1141 58.4379 75.2929 58.5126C75.4718 58.5873 75.6667 58.6155 75.8594 58.5947C76.0441 58.6116 76.2302 58.5839 76.4021 58.514C76.5739 58.4441 76.7264 58.334 76.8469 58.193C76.9674 58.0519 77.0523 57.884 77.0945 57.7033C77.1367 57.5227 77.1349 57.3345 77.0894 57.1547ZM76.5394 57.6847C76.2694 58.4547 74.8493 58.1547 75.1793 57.2047C75.4793 56.4347 76.8394 56.7747 76.5394 57.6847Z" fill="#BABAB3"></path><path d="M72.4694 56.3555H71.3594V58.5655C72.0294 58.5655 72.8894 58.7455 73.3594 58.1155C73.4786 57.9504 73.5501 57.7557 73.5662 57.5527C73.5822 57.3497 73.542 57.1463 73.4501 56.9645C73.3582 56.7828 73.2182 56.6299 73.0452 56.5225C72.8722 56.415 72.673 56.3573 72.4694 56.3555ZM72.8293 57.9055C72.5793 58.1455 72.2094 58.0655 71.8994 58.0755V56.8455C72.2094 56.8455 72.5793 56.7755 72.8293 57.0155C72.9363 57.1391 72.9952 57.2971 72.9952 57.4605C72.9952 57.624 72.9363 57.7819 72.8293 57.9055Z" fill="#BABAB3"></path><path d="M69.3812 56.4355C69.1422 56.3705 68.8902 56.3705 68.6512 56.4355C68.3612 57.1555 68.0613 57.8855 67.7812 58.6055C67.9712 58.6055 68.2013 58.6055 68.3513 58.6055C68.5013 58.6055 68.4313 58.2555 68.5513 58.1855C68.8831 58.1402 69.2195 58.1402 69.5513 58.1855C69.5513 58.3055 69.6512 58.4355 69.6912 58.5655C69.7312 58.6955 70.1013 58.5655 70.2913 58.5655C69.9613 57.8355 69.6612 57.1155 69.3812 56.4355ZM68.6812 57.7155L69.0012 56.8655L69.3212 57.7155H68.6812Z" fill="#BABAB3"></path><path d="M9.63 54.074H9C9.33 53.804 9.29 53.544 9.31 53.024V47.254C9.31 46.734 9.31 46.474 9 46.254C10.94 46.314 14.16 46.024 15.87 46.704C19.26 47.704 19.23 52.764 15.87 53.704C14.42 54.254 11.33 54.044 9.63 54.074ZM12.87 52.304C13.3837 52.3641 13.9044 52.3052 14.3917 52.1318C14.8789 51.9584 15.3198 51.6751 15.68 51.304C15.8759 51.0432 16.0051 50.7385 16.0562 50.4164C16.1074 50.0942 16.079 49.7644 15.9734 49.4558C15.8679 49.1472 15.6885 48.869 15.4509 48.6456C15.2132 48.4222 14.9246 48.2603 14.61 48.174C13.6529 47.9353 12.6637 47.8509 11.68 47.924V52.314L12.87 52.304Z" fill="#52545B"></path><path d="M25.2722 54.2539C19.9822 54.2539 20.8622 51.0539 20.8222 47.2539C20.8222 46.7339 20.8222 46.4739 20.4922 46.2539H23.4922C23.1622 46.5139 23.2022 46.7739 23.1722 47.2539V50.9739C23.1722 52.1939 23.9622 52.4339 25.1722 52.4539C26.3822 52.4739 27.1722 52.2039 27.2322 50.9739V47.2539C27.2322 46.7339 27.2322 46.4739 26.9222 46.2539H29.7622C29.4222 46.5039 29.4622 46.7739 29.4322 47.2539C29.4822 50.9239 30.4322 54.2739 25.2722 54.2539Z" fill="#52545B"></path><path d="M32.8995 54.0746H32.2695C32.5995 53.8046 32.5695 53.5446 32.5895 53.0246V47.2546C32.5895 46.7346 32.5895 46.4746 32.2695 46.2546C34.0695 46.3246 37.8396 46.0546 39.4796 46.5146C40.0009 46.5866 40.4759 46.8528 40.8096 47.2598C41.1433 47.6668 41.3112 48.1848 41.2796 48.7102C41.248 49.2356 41.0193 49.7298 40.6393 50.0939C40.2592 50.4581 39.7558 50.6654 39.2296 50.6745C40.0596 50.8745 40.6295 51.1846 40.8195 51.9646C41.0095 52.5046 41.1195 53.7946 41.5895 54.1346H38.9095C38.7295 53.6146 38.6596 52.1345 38.1096 51.7945C37.5596 51.4545 35.5195 51.6346 34.8895 51.5746C34.9595 52.1746 34.6695 53.7645 35.1995 54.1045L32.8995 54.0746ZM37.1995 49.8645C37.6344 49.8967 38.0699 49.8103 38.4595 49.6145C38.5854 49.5305 38.6885 49.4167 38.7598 49.2832C38.8312 49.1498 38.8685 49.0008 38.8685 48.8495C38.8685 48.6982 38.8312 48.5492 38.7598 48.4158C38.6885 48.2824 38.5854 48.1686 38.4595 48.0846C37.8595 47.6946 35.6595 47.8945 34.8795 47.8445V49.8445L37.1995 49.8645Z" fill="#52545B"></path><path d="M43.8207 54.0748H43.0508C43.3808 53.8848 43.4407 53.6648 43.6307 53.2448L46.3807 47.0348C46.5207 46.6548 46.6907 46.3948 46.3807 46.2148H50.4907C50.1807 46.3948 50.3507 46.6548 50.4907 47.0348L53.2308 53.2448C53.4208 53.6648 53.4907 53.8848 53.8107 54.0748H50.7407C51.2207 53.8148 50.5507 52.8848 50.4307 52.4948H46.3608C46.2308 52.8948 45.5807 53.7948 46.0707 54.0748H43.8207ZM46.9208 50.8148H49.7808L48.3307 47.4348L46.9208 50.8148Z" fill="#52545B"></path><path d="M58.0115 52.9844C58.0115 53.5044 58.0115 53.7744 58.3215 54.0544H55.6016C55.9416 53.7844 55.9115 53.5244 55.9315 53.0044V47.2344C55.9315 46.7144 55.9316 46.4544 55.6016 46.2344H58.3315L62.5815 50.8344H62.6516V47.3144C62.6516 46.8044 62.6515 46.5344 62.3315 46.3144H65.0516C64.7216 46.5744 64.7516 46.8344 64.7316 47.3144V54.1644H62.7916L58.0516 49.1644L58.0115 52.9844Z" fill="#52545B"></path><path d="M72.5396 54.2655C68.5396 54.5355 66.2296 51.2655 68.0296 47.8155C69.8196 45.1455 73.7996 46.0154 76.5396 46.4754L75.5396 48.3855C74.6696 47.3855 72.3896 47.3854 71.2396 47.8554C69.8696 48.3654 69.6396 50.2654 70.2396 51.4254C71.1596 53.1054 74.9497 52.9554 74.9197 50.6554C74.2497 50.6554 72.4997 50.5155 71.9197 50.8255H71.8296L72.0796 49.2854H77.2696C77.3971 49.945 77.3654 50.6255 77.1769 51.2703C76.9885 51.9151 76.6488 52.5056 76.1861 52.9926C75.7235 53.4797 75.1513 53.8493 74.5171 54.0707C73.8828 54.2921 73.2049 54.3589 72.5396 54.2655Z" fill="#52545B"></path><path d="M84.0615 54.2758C81.3415 54.3758 79.0616 52.9358 79.1516 50.0758C79.0516 47.2358 81.3715 45.8458 84.0615 45.9458C90.6715 45.5558 90.6415 54.6458 84.0615 54.2758ZM84.0615 52.4758C87.4315 52.7158 87.4615 47.4758 84.0615 47.7458C80.6415 47.4858 80.6715 52.7258 84.0615 52.4358V52.4758Z" fill="#52545B"></path><path d="M58.6295 11.5859C58.6295 24.4859 58.1395 29.0959 49.1395 38.3859C40.1395 29.0959 39.6495 24.4859 39.6495 11.5859C38.8495 11.8259 38.0595 12.0859 37.2695 12.3759C37.2695 26.3759 38.4695 30.1859 49.1395 39.3759C59.7995 30.1859 61.0095 26.3759 61.0095 12.3759C60.2695 12.0859 59.4195 11.8259 58.6295 11.5859Z" fill="#52545B"></path><path fill-rule="evenodd" clip-rule="evenodd" d="M48.889 39.5039C47.357 40.1356 46.026 41.1727 45.0391 42.5039C45.7891 42.1457 46.6079 41.9546 47.439 41.9439C47.4048 41.4382 47.5252 40.9339 47.7842 40.4982C48.0431 40.0624 48.4285 39.7157 48.889 39.5039Z" fill="#52545B"></path><path fill-rule="evenodd" clip-rule="evenodd" d="M49.3789 39.5039C50.9068 40.138 52.234 41.1748 53.2189 42.5039C52.4729 42.1443 51.657 41.9532 50.8289 41.9439C50.8631 41.4382 50.7427 40.9339 50.4838 40.4982C50.2248 40.0624 49.8395 39.7157 49.3789 39.5039Z" fill="#52545B"></path><path d="M36.1821 8.32422C26.9721 26.8442 47.2722 38.5442 47.2722 38.5442C33.2722 27.8142 34.7021 13.1742 36.1821 8.32422Z" fill="#BABBB4"></path><path d="M36.5618 29.2349C36.1378 28.5216 35.5705 27.904 34.8956 27.4211C34.2208 26.9383 33.453 26.6007 32.6411 26.4296C31.8291 26.2586 30.9905 26.2578 30.1782 26.4274C29.3659 26.597 28.5976 26.9332 27.9219 27.4148C27.9219 27.4148 31.4618 25.0649 35.5718 30.2149C37.1387 32.3537 39.2773 34.007 41.7418 34.9849C40.5618 34.1349 39.1918 33.1949 36.5618 29.2349Z" fill="#52545B"></path><path d="M35.8508 27.635C35.1158 26.7315 34.1525 26.0409 33.0607 25.635C31.7954 23.9086 29.9099 22.74 27.8008 22.375C29.5057 22.3875 31.171 22.89 32.5983 23.8226C34.0256 24.7552 35.1546 26.0786 35.8508 27.635Z" fill="#BABAB3"></path><path d="M62.1017 8.32422C71.3117 26.8442 51.0117 38.5442 51.0117 38.5442C65.0417 27.8142 63.5817 13.1742 62.1017 8.32422Z" fill="#BABBB4"></path><path d="M61.7191 29.2349C62.1431 28.5216 62.7105 27.904 63.3853 27.4211C64.0602 26.9383 64.8278 26.6007 65.6398 26.4296C66.4518 26.2586 67.2904 26.2578 68.1027 26.4274C68.915 26.597 69.6833 26.9332 70.3591 27.4148C70.3591 27.4148 66.819 25.0649 62.709 30.2149C61.1421 32.3537 59.0036 34.007 56.5391 34.9849C57.7191 34.1349 59.0891 33.1949 61.7191 29.2349Z" fill="#52545B"></path><path d="M62.4297 27.635C63.1647 26.7315 64.128 26.0409 65.2197 25.635C66.4851 23.9086 68.3706 22.74 70.4797 22.375C68.7748 22.3875 67.1094 22.89 65.6821 23.8226C64.2548 24.7552 63.1258 26.0786 62.4297 27.635Z" fill="#BABAB3"></path><path d="M41.9214 6.63281C41.5414 18.9828 42.9214 29.0528 49.1414 37.6328C55.3814 29.0428 56.7314 18.9528 56.3614 6.63281C54.1087 7.7161 51.641 8.27856 49.1414 8.27856C46.6417 8.27856 44.1741 7.7161 41.9214 6.63281Z" fill="#52545B"></path><path d="M53.4014 3.43569C51.2534 2.49116 48.8898 2.14561 46.5614 2.43569C44.5614 2.22569 43.9614 5.1657 44.7814 6.5057C45.0214 6.9057 45.1614 6.98572 45.2914 7.02572C46.5401 7.31844 47.8189 7.46276 49.1014 7.45571C50.3872 7.46225 51.6693 7.31794 52.9214 7.02572C53.0514 7.02572 53.1814 6.9057 53.4314 6.5057C53.666 6.02704 53.7855 5.50015 53.7803 4.96712C53.775 4.43409 53.6453 3.90967 53.4014 3.43569ZM45.2714 6.6357C45.1214 6.6357 44.7314 6.12569 44.6514 5.05569C44.5828 4.54991 44.7043 4.03668 44.9925 3.61544C45.2808 3.19419 45.7151 2.89497 46.2114 2.77572C46.2814 2.77572 46.3014 2.8757 46.2114 2.8857C44.3414 3.3257 44.6014 5.65571 45.2714 6.64571V6.6357ZM46.0314 6.72567C44.4414 6.44567 44.7514 3.44566 46.0314 3.09566C46.1514 3.09566 46.2514 3.09572 46.1714 3.21572C45.9923 3.70817 45.9207 4.23326 45.9614 4.7557C46.0066 5.46493 46.2265 6.15199 46.6014 6.7557C46.4112 6.76487 46.2205 6.75816 46.0314 6.73568V6.72567ZM46.9214 6.81569C46.3965 6.17766 46.1195 5.37159 46.1414 4.54568C46.0714 2.54568 47.8014 1.3857 49.0214 2.7557C49.0214 2.8157 49.0214 2.8757 48.9214 2.8257C47.7614 1.5457 46.1814 2.68568 46.2614 4.54568C46.2987 5.32012 46.529 6.07295 46.9314 6.73568C46.9395 6.74063 46.9461 6.74784 46.9502 6.75637C46.9544 6.7649 46.956 6.77445 46.955 6.7839C46.9539 6.79334 46.9503 6.80225 46.9443 6.80965C46.9384 6.81706 46.9304 6.82265 46.9214 6.8257V6.81569ZM47.5514 6.87569C46.2914 6.29569 46.0214 3.59571 47.1614 2.64571C47.9114 2.12571 48.9114 2.64567 48.5814 3.35567C48.3523 3.83162 48.2197 4.34825 48.1914 4.87569C48.1214 6.51569 48.5314 6.9457 48.5314 6.9457C48.2037 6.98116 47.8724 6.96087 47.5514 6.8857V6.87569ZM49.1114 7.03567C48.3314 6.88567 48.3814 3.48566 49.1114 3.15566C49.8314 3.50566 49.8714 6.86568 49.1114 7.04568V7.03567ZM50.6514 6.87569C50.3246 6.9565 49.9863 6.98019 49.6514 6.9457C49.6514 6.9457 50.0614 6.51569 50.0014 4.87569C49.9673 4.34797 49.8315 3.8318 49.6014 3.35567C49.2814 2.60567 50.2714 2.12571 51.0214 2.64571C52.1814 3.60571 51.9114 6.3057 50.6514 6.8857V6.87569ZM51.3114 6.8257C51.1214 6.8257 51.9714 5.82568 51.9514 4.54568C52.0214 2.68568 50.4414 1.5457 49.2814 2.8257C49.2814 2.8857 49.1414 2.8257 49.1914 2.7557C50.4014 1.3857 52.1914 2.55568 52.0614 4.54568C52.0411 5.37231 51.7651 6.17239 51.2714 6.83571L51.3114 6.8257ZM52.1714 6.72567C51.9966 6.75939 51.8194 6.77945 51.6414 6.78567C52.0164 6.18196 52.2362 5.4949 52.2814 4.78567C52.3281 4.26307 52.2563 3.73671 52.0714 3.24569C51.9914 3.07569 52.0714 3.07569 52.2114 3.12569C53.4614 3.43569 53.7614 6.43568 52.1714 6.73568V6.72567ZM53.0114 6.6357C53.0002 6.64105 52.9876 6.64281 52.9754 6.64071C52.9632 6.63861 52.9519 6.63276 52.9431 6.62398C52.9343 6.61521 52.9285 6.60392 52.9264 6.5917C52.9243 6.57947 52.926 6.56688 52.9314 6.55569C53.7214 5.77569 53.6814 3.1157 51.9314 2.8857C51.8614 2.8857 51.8814 2.76572 51.9314 2.77572C53.7914 3.02572 53.8514 5.81571 53.0114 6.64571V6.6357Z" fill="#52545B"></path><path d="M49.37 2.08331L49.13 1.67328L49.31 1.52332L49.68 1.76331L49.61 1.46332L49.71 1.18329L49.32 1.45331L49.14 1.26331L49.38 0.863281L49.1 0.973267L48.83 0.863281L49.06 1.26331L48.89 1.45331L48.5 1.18329L48.59 1.46332L48.52 1.76331L48.9 1.52332L49.08 1.67328L48.83 2.08331C48.9252 2.14263 49.0156 2.20946 49.1 2.28326L49.37 2.08331Z" fill="#52545B"></path><path d="M52.9504 7.43636C52.941 7.40063 52.9178 7.37007 52.886 7.35134C52.8541 7.33261 52.8162 7.32725 52.7804 7.33639C50.3508 7.88305 47.83 7.88305 45.4004 7.33639C45.3646 7.32725 45.3266 7.33261 45.2948 7.35134C45.2629 7.37007 45.2398 7.40063 45.2304 7.43636C45.226 7.45477 45.2254 7.47386 45.2286 7.49251C45.2318 7.51117 45.2387 7.52899 45.249 7.54488C45.2593 7.56077 45.2727 7.57442 45.2884 7.58498C45.3041 7.59555 45.3218 7.6028 45.3404 7.60634C47.8075 8.17956 50.3732 8.17956 52.8404 7.60634C52.859 7.6028 52.8766 7.59555 52.8923 7.58498C52.908 7.57442 52.9215 7.56077 52.9318 7.54488C52.942 7.52899 52.949 7.51117 52.9522 7.49251C52.9554 7.47386 52.9548 7.45477 52.9504 7.43636Z" fill="#52545B"></path><path opacity="0.35" d="M54.4996 17.2957C54.4396 19.0857 52.7196 20.5457 51.1996 19.4757C51.4128 19.711 51.6832 19.8872 51.9846 19.9871C52.286 20.0869 52.6081 20.1071 52.9196 20.0457C52.4996 21.6557 49.7596 21.9957 49.0696 20.4457C48.7869 20.683 48.4565 20.8565 48.1007 20.9547C47.7449 21.0528 47.3721 21.0731 47.0078 21.0143C46.6434 20.9555 46.296 20.8189 45.9892 20.6138C45.6823 20.4087 45.4233 20.1399 45.2296 19.8257C45.5682 19.9403 45.9331 19.952 46.2784 19.8594C46.6236 19.7669 46.9338 19.5742 47.1696 19.3057C43.8396 21.3057 42.3296 14.7057 45.9296 14.4357C45.6422 14.3922 45.3487 14.4186 45.0736 14.5126C44.7986 14.6066 44.5503 14.7654 44.3496 14.9757C44.0896 12.9157 47.3496 10.9057 48.7696 12.8057C48.6363 12.5289 48.4336 12.2913 48.1812 12.1161C47.9289 11.9409 47.6355 11.8339 47.3296 11.8057C47.5681 11.575 47.8503 11.3943 48.1596 11.2742C48.4689 11.1542 48.799 11.0971 49.1306 11.1065C49.4623 11.1158 49.7888 11.1912 50.0909 11.3285C50.3929 11.4657 50.6645 11.662 50.8896 11.9056C50.5398 11.9362 50.2058 12.0651 49.9262 12.2774C49.6466 12.4898 49.4329 12.7769 49.3096 13.1057C51.2396 10.1057 56.1796 14.5157 52.9096 16.4357C53.162 16.3725 53.3983 16.2571 53.6032 16.0969C53.8082 15.9367 53.9774 15.7353 54.0996 15.5057C54.4105 16.0483 54.5499 16.6723 54.4996 17.2957Z" fill="white"></path><path d="M48.962 25.5839C48.892 26.5839 49.042 27.9639 48.202 28.5139C47.862 28.7639 47.912 28.7339 47.522 28.6739C47.2187 28.66 46.9195 28.748 46.6721 28.9239C46.4621 29.0239 46.142 29.0239 46.082 29.0739C46.412 29.1407 46.752 29.1407 47.082 29.0739C47.5889 28.9589 48.1151 28.9589 48.622 29.0739C48.292 29.1539 47.482 29.3739 47.122 29.4839C46.962 29.5439 47.4121 29.4839 48.0421 29.3539C48.6721 29.2239 48.752 29.3539 49.202 29.3539C49.652 29.3539 50.902 29.6339 50.822 29.5039C50.4369 29.2626 49.996 29.1248 49.5421 29.1039C49.4221 29.1039 49.712 29.0139 50.012 28.9139C50.572 28.8339 50.752 29.0638 51.312 29.0338C51.422 29.0338 52.822 29.0339 52.312 28.9339C51.7863 28.8965 51.2646 28.8162 50.752 28.6939C49.752 28.3139 49.932 26.6139 49.892 25.5139C49.5808 25.4636 49.2622 25.4876 48.962 25.5839Z" fill="white"></path><path d="M51.1318 19.1028C51.4881 19.1234 51.8441 19.0578 52.1696 18.9116C52.4951 18.7653 52.7806 18.5428 53.0018 18.2628C52.3012 18.6889 51.4657 18.8353 50.6619 18.6728C51.0933 18.4046 51.44 18.0198 51.6619 17.5628C51.8985 17.5919 52.1385 17.5614 52.3604 17.4741C52.5822 17.3868 52.7786 17.2454 52.9318 17.0628C52.7752 17.1685 52.5974 17.2385 52.4108 17.2679C52.2241 17.2973 52.0334 17.2853 51.8519 17.2328C52.1216 16.7538 52.282 16.2211 52.3218 15.6728C52.0718 16.9328 50.2618 19.0628 49.3818 18.5128C49.3018 18.3628 49.3819 18.1428 49.9219 17.5128C50.225 17.1604 50.4256 16.7315 50.5018 16.2728C51.8818 15.8228 51.8918 14.0128 51.8918 14.0128C51.8672 14.3763 51.7353 14.7242 51.5128 15.0126C51.2903 15.301 50.9872 15.5168 50.6418 15.6328C50.6418 15.6328 50.6418 14.0728 49.9418 13.6328C50.1634 14.0675 50.2856 14.5461 50.2994 15.0338C50.3133 15.5215 50.2185 16.0063 50.0219 16.4528C50.0145 16.3133 49.9672 16.1788 49.8856 16.0654C49.8041 15.9519 49.6917 15.8643 49.5618 15.8128C49.7318 16.0128 49.8819 17.2928 49.3019 17.7128C48.5219 18.4828 47.6719 16.7128 47.9719 14.8128C47.9719 14.8128 47.5019 15.4528 47.9119 17.2128C47.4983 17.0533 47.1207 16.8127 46.8013 16.5054C46.4819 16.198 46.2272 15.8299 46.0519 15.4228C46.1946 15.9794 46.465 16.4951 46.8417 16.929C47.2183 17.363 47.6909 17.7032 48.2219 17.9228C48.2219 17.9228 48.4118 17.9828 48.5818 18.6528C48.7518 19.3228 48.0019 19.5028 47.2219 18.9828C46.9847 18.8079 46.7891 18.5827 46.649 18.3234C46.509 18.0641 46.428 17.777 46.4119 17.4828C46.3404 17.9043 46.3889 18.3375 46.5519 18.7328C46.1438 18.6433 45.7589 18.4696 45.4219 18.2228C45.8136 18.6826 46.3064 19.0454 46.8619 19.2828C47.5919 19.6728 48.4818 20.0828 48.6418 20.5828C48.7418 20.8828 48.9818 21.4528 48.9518 24.2428C49.2477 24.1685 49.5308 24.0506 49.7919 23.8928C49.8019 21.7828 49.8318 19.1228 51.1318 19.1028Z" fill="white"></path><path d="M46.6797 26.873C46.6797 26.943 46.9397 26.873 46.9397 26.873C47.0083 26.5406 47.197 26.245 47.4697 26.043C47.126 26.2302 46.8497 26.5205 46.6797 26.873Z" fill="white"></path><path d="M50.4789 25.4336C50.8889 25.5236 49.8089 26.1136 50.4789 26.2436C50.4789 26.2436 50.4789 26.1136 50.6389 25.8236C50.7989 25.5336 50.9089 25.6336 50.8989 25.5636C50.8889 25.4936 50.4789 25.4336 50.4789 25.4336Z" fill="white"></path><path d="M52.7698 25.4353C52.6798 25.3253 52.7698 25.2453 52.5898 25.1953C52.5898 25.1953 52.7199 25.3553 52.6599 25.4353C52.5999 25.5153 52.7698 25.6453 52.7698 25.5353C52.7646 25.5022 52.7646 25.4684 52.7698 25.4353Z" fill="white"></path><path d="M52.9519 24.7839C52.9519 24.7339 52.9519 24.7239 52.9519 24.6939C52.9519 24.6639 52.9519 24.4739 52.8719 24.6039C52.7919 24.7339 52.8719 24.6639 52.8719 24.7139C52.8719 24.7639 52.8719 24.7139 52.8719 24.6139C52.8719 24.5139 52.8019 24.7639 52.8719 24.8039C52.9419 24.8439 52.8719 24.7139 52.7619 24.6639C52.6519 24.6139 52.292 24.6639 52.222 24.7839C52.2629 24.7074 52.3255 24.6448 52.4019 24.6039C52.3219 24.5139 52.3019 24.4339 52.3219 24.4039C52.3419 24.3739 52.052 23.8439 51.972 23.8639C51.662 23.2439 51.7019 23.8639 51.7619 24.0239C51.7059 23.9311 51.6654 23.8297 51.6419 23.7239C50.9519 23.3439 49.412 24.2839 48.842 24.4239C48.62 24.4818 48.3876 24.4866 48.1635 24.438C47.9394 24.3893 47.7299 24.2886 47.552 24.1439C47.3509 23.979 47.1982 23.7626 47.1101 23.5179C47.0221 23.2731 47.002 23.0092 47.052 22.7539C46.652 23.5539 46.9619 23.9539 46.9619 23.9539L46.7519 23.8839C46.9919 24.6639 48.092 24.7739 48.092 24.7739C48.1348 24.6941 48.2063 24.6334 48.292 24.6039C47.962 24.9539 48.2319 24.9239 47.6519 25.4539C47.4595 25.6574 47.2005 25.7851 46.922 25.8139C46.912 25.9794 46.8488 26.1372 46.7419 26.2639C46.636 26.4132 46.5039 26.5419 46.352 26.6439C46.352 26.6439 46.272 26.6439 46.352 26.8439C46.432 27.0439 46.5219 26.9739 46.5219 26.9739C46.7135 26.5951 46.9968 26.2703 47.3462 26.0292C47.6956 25.7882 48.0998 25.6385 48.5219 25.5939C49.5219 25.4739 49.2119 24.7339 49.2119 24.7339C49.3063 24.8006 49.372 24.9005 49.3961 25.0135C49.4202 25.1265 49.4009 25.2445 49.342 25.3439C51.642 24.9739 52.0119 26.2039 52.0119 26.2039C52.3719 26.0839 52.1319 25.9239 52.0119 25.7439C52.0019 25.6475 52.0019 25.5503 52.0119 25.4539C52.0119 25.3839 52.142 25.3339 52.162 25.2339C52.162 25.3239 52.012 25.4339 52.052 25.5139C52.092 25.5939 52.052 25.6239 52.052 25.6639C52.052 25.7039 52.1219 25.9239 52.1419 25.7439C52.1536 25.7728 52.1536 25.8051 52.1419 25.8339C52.1419 25.8939 52.2219 25.8339 52.1919 25.7239C52.1511 25.5835 52.1511 25.4343 52.1919 25.2939C52.1919 25.0839 52.312 25.2339 52.422 25.1539C52.532 25.0739 52.552 25.1539 52.662 25.1539C52.772 25.1539 52.7619 25.2739 52.8219 25.3939C52.8819 25.5139 52.8219 25.1139 52.7519 25.1039C52.8319 25.1039 52.802 24.9839 52.802 24.9339C52.802 24.8839 53.0019 25.1439 53.0119 25.0139C53.0219 24.8839 53.0119 24.8739 52.9519 24.7839ZM52.102 24.7839H52.042L51.9319 24.6639C51.9319 24.6639 51.952 24.7139 52.102 24.8139V24.7839ZM52.172 24.9839C52.172 24.9839 52.002 24.9839 51.912 24.9139C51.8757 24.9562 51.8454 25.0033 51.8219 25.0539C51.7419 25.0539 51.8219 25.2439 51.8719 25.1539C51.9219 25.0639 51.9519 25.3339 51.8719 25.3739C51.7919 25.4139 51.8719 25.5439 51.8119 25.6039C51.3919 25.1339 50.562 25.2339 50.912 24.7739C50.9559 24.7127 50.9795 24.6393 50.9795 24.5639C50.9795 24.4886 50.9559 24.4151 50.912 24.3539C50.9529 24.3914 50.9855 24.4369 51.0079 24.4877C51.0303 24.5385 51.0418 24.5934 51.0418 24.6489C51.0418 24.7044 51.0303 24.7593 51.0079 24.8101C50.9855 24.8608 50.9529 24.9064 50.912 24.9439C51.1848 24.8965 51.4482 24.8053 51.6919 24.6739C51.6919 24.6739 51.692 24.6739 51.842 24.8439C51.842 24.8439 51.842 24.8439 51.842 24.9139C51.892 24.9139 51.9919 25.0239 52.0619 24.9739C52.1319 24.9239 51.992 24.8839 51.972 24.8439C51.952 24.8039 52.192 24.9939 52.172 25.0139V24.9839Z" fill="white"></path><path d="M111.431 29.7139C111.471 24.9072 111.19 20.1032 110.591 15.3338V0.333845C110.591 -0.0961553 109.891 -0.126155 109.901 0.333845V15.3338C108.767 24.887 108.767 34.5406 109.901 44.0938V59.0938C109.915 59.1752 109.957 59.2491 110.02 59.3024C110.083 59.3557 110.163 59.3849 110.246 59.3849C110.328 59.3849 110.408 59.3557 110.471 59.3024C110.535 59.2491 110.577 59.1752 110.591 59.0938V44.0938C111.19 39.3244 111.471 34.5205 111.431 29.7139Z" fill="#52545B"></path></svg> 