<?xml version="1.0" encoding="UTF-8"?> <!-- Generator: Adobe Illustrator 25.4.1, SVG Export Plug-In . SVG Version: 6.00 Build 0) --> <svg xmlns="http://www.w3.org/2000/svg" xmlns:xlink="http://www.w3.org/1999/xlink" version="1.1" id="Layer_1" x="0px" y="0px" viewBox="0 0 294 74" style="enable-background:new 0 0 294 74;" xml:space="preserve"> <style type="text/css"> .st0{fill:#53555C;} .st1{fill:#B9B9B2;} .st2{fill-rule:evenodd;clip-rule:evenodd;fill:#53555C;} .st3{opacity:0.35;fill:#FFFFFF;} .st4{fill:#FFFFFF;} </style> <g> <g> <g> <g> <g> <path class="st0" d="M149.8,59.5c-1.2,0-2.4-0.2-3.2-1.1l0.5-1.1h0c0.3,1.4,4.5,1.9,4.5,0.2c0-0.6-0.4-0.8-0.9-0.9 c-1-0.3-2.6-0.2-3.3-1c-1.3-1.8,0.7-3.1,2.6-2.9c1.1-0.1,1.9,0.4,2.9,0.7l0,0l-0.6,1.1h0c-0.5-1.2-5.1-1.4-3.8,0.5 c1.1,0.7,3.1,0.2,4,1.3C153.8,58.2,151.9,59.7,149.8,59.5z"></path> <path class="st0" d="M154.7,59.4h-0.3l0,0c0.2-0.2,0.2-0.3,0.2-0.7c0,0,0-4.2,0-4.2c0-0.3,0-0.5-0.2-0.7l0,0h0.3h4.6 c0,0.2-0.1,0.8-0.2,1c-0.2-0.2-0.4-0.2-0.7-0.2c0,0-2.7,0-2.7,0v1.5h2.2c0.3,0,0.5,0,0.7-0.2l0,0c0,0.3,0,0.8,0,1.1l0,0 c-0.2-0.2-0.4-0.2-0.7-0.2c0,0-2.2,0-2.2,0v1.6h2.7c0.3,0,0.6,0,0.7-0.2l0,0c0,0.2,0.1,0.8,0.2,1H154.7z"></path> <path class="st0" d="M163.6,59.5c-2.6,0.2-3.8-2.4-2.8-4.5c1-1.8,3.6-1.4,5.2-0.8l0,0l-0.6,1l0,0c-0.5-0.8-2.1-0.8-2.9-0.4 c-1,0.4-1.1,1.9-0.7,2.8c0.7,1.3,3.1,1.2,3.8-0.2l0,0l0.5,1C165.6,59.2,164.6,59.5,163.6,59.5z"></path> <path class="st0" d="M167.8,59.4h-0.3l0,0c0.2-0.2,0.2-0.3,0.2-0.7c0,0,0-4.2,0-4.2c0-0.3,0-0.5-0.2-0.7l0,0 c1.2,0.1,3.8-0.2,4.8,0.4c1.1,0.7,0.7,2.6-0.7,2.7c1.3,0.2,0.9,1.7,1.5,2.5c-0.2,0-1.1,0-1.3,0l-0.2-1.2 c-0.2-1.2-1.8-0.7-2.7-0.8c0.1,0.4-0.2,1.8,0.2,2l0,0C168.7,59.4,168,59.4,167.8,59.4z M170.4,56.6c1.1,0.1,1.8-0.9,1-1.7 c-0.5-0.4-2-0.2-2.6-0.2v1.9H170.4z"></path> <path class="st0" d="M174.9,59.4h-0.3l0,0c0.2-0.2,0.2-0.3,0.2-0.7c0,0,0-4.2,0-4.2c0-0.3,0-0.5-0.2-0.7l0,0h0.3h4.6 c0,0.2-0.1,0.8-0.2,1c-0.2-0.2-0.4-0.2-0.7-0.2c0,0-2.7,0-2.7,0v1.5h2.2c0.3,0,0.5,0,0.7-0.2l0,0c0,0.3,0,0.8,0,1.1l0,0 c-0.2-0.2-0.4-0.2-0.7-0.2c0,0-2.2,0-2.2,0v1.6h2.7c0.3,0,0.6,0,0.7-0.2l0,0c0,0.2,0.1,0.8,0.2,1H174.9z"></path> <path class="st0" d="M182.7,59.4h-0.3l0,0c0.2-0.2,0.2-0.3,0.2-0.7c0,0,0-3.9,0-3.9h-1.4c-0.3,0-0.5,0-0.6,0.2l0,0 c0-0.2-0.2-0.9-0.2-1.1h5.7c0,0.2-0.2,0.9-0.2,1.1c-0.1-0.2-0.3-0.2-0.6-0.2c0,0-1.4,0-1.4,0v3.9c0,0.3,0,0.5,0.2,0.7l0,0 C183.7,59.4,182.9,59.4,182.7,59.4z"></path> <path class="st0" d="M192.5,58.9c0.1,0.3,0.2,0.4,0.3,0.5l0,0h-1.5l0,0c0.3-0.2-0.2-0.9-0.3-1.2h-2.9c-0.1,0.3-0.6,1-0.3,1.2 l0,0h-1.5l0,0c0.3,0,2-4.7,2.2-5c0.1-0.2,0.2-0.4,0-0.5l0,0h2v0c-0.2,0.1-0.1,0.3,0,0.5C190.6,54.4,192.5,58.9,192.5,58.9z M189.5,54.5l-1.1,2.8h2.3L189.5,54.5z"></path> <path class="st0" d="M194.2,59.4h-0.3l0,0c0.2-0.2,0.2-0.3,0.2-0.7c0,0,0-4.2,0-4.2c0-0.3,0-0.5-0.2-0.7l0,0 c1.2,0.1,3.8-0.2,4.8,0.4c1.1,0.7,0.7,2.6-0.7,2.7c1.3,0.2,0.9,1.7,1.5,2.5c-0.2,0-1.1,0-1.3,0l-0.2-1.2 c-0.2-1.2-1.8-0.7-2.7-0.8c0.1,0.4-0.2,1.8,0.2,2l0,0C195.1,59.4,194.4,59.4,194.2,59.4z M196.8,56.6c1.1,0.1,1.8-0.9,1-1.7 c-0.5-0.4-2-0.2-2.6-0.2v1.9H196.8z"></path> <path class="st0" d="M200.7,53l1.2-1.3h1.3l-1.6,1.3H200.7z M201.3,59.4h-0.4l0,0c0.2-0.2,0.2-0.3,0.2-0.7c0,0,0-4.2,0-4.2 c0-0.3,0-0.5-0.2-0.7l0,0c0.4,0,1.1,0,1.5,0l0,0c-0.2,0.2-0.2,0.3-0.2,0.7c0,0,0,4.2,0,4.2c0,0.3,0,0.5,0.2,0.7l0,0 C202.2,59.4,201.5,59.4,201.3,59.4z"></path> <path class="st0" d="M209.6,58.9c0.1,0.3,0.2,0.4,0.3,0.5l0,0h-1.5l0,0c0.3-0.2-0.2-0.9-0.3-1.2h-2.9c-0.1,0.3-0.6,1-0.3,1.2 l0,0h-1.5l0,0c0.3,0,2-4.7,2.2-5c0.1-0.2,0.2-0.4,0-0.5l0,0h2v0c-0.2,0.1-0.1,0.3,0,0.5C207.7,54.4,209.6,58.9,209.6,58.9z M206.7,54.5l-1.1,2.8h2.3L206.7,54.5z"></path> <path class="st0" d="M215.2,59.4h-0.3l0,0c0.2-0.2,0.2-0.3,0.2-0.7c0,0,0-4.2,0-4.2c0-0.3,0-0.5-0.2-0.7l0,0 c1.7,0.1,4.2-0.4,5.3,1.2c0.8,1.3,0.4,3.4-1.2,4C218.1,59.5,216.3,59.4,215.2,59.4z M217.2,58.5c2.2,0.2,3.2-2.6,1.2-3.5 c-0.5-0.2-1.5-0.2-2.1-0.2v3.7H217.2z"></path> <path class="st0" d="M222.5,59.4h-0.3l0,0c0.2-0.2,0.2-0.3,0.2-0.7c0,0,0-4.2,0-4.2c0-0.3,0-0.5-0.2-0.7l0,0h0.3h4.6 c0,0.2-0.1,0.8-0.2,1c-0.2-0.2-0.4-0.2-0.7-0.2c0,0-2.7,0-2.7,0v1.5h2.2c0.3,0,0.5,0,0.7-0.2l0,0c0,0.3,0,0.8,0,1.1l0,0 c-0.2-0.2-0.4-0.2-0.7-0.2c0,0-2.2,0-2.2,0v1.6h2.7c0.3,0,0.6,0,0.7-0.2l0,0c0,0.2,0.1,0.8,0.2,1H222.5z"></path> <path class="st0" d="M233,59.4h-0.4l0,0c0.2-0.2,0.2-0.4,0.2-0.8c0,0,0-5,0-5c0-0.4,0-0.6-0.2-0.8l0,0h0.4h5.2 c0,0.3-0.2,0.9-0.2,1.2h0c-0.2-0.3-0.5-0.2-0.9-0.3c0,0-3.1,0-3.1,0v1.9h2.6c0.4,0,0.6,0,0.8-0.2l0,0c0,0.4,0,0.9,0,1.3l0,0 c-0.2-0.2-0.4-0.2-0.8-0.2c0,0-2.6,0-2.6,0v2h3.1c0.4,0,0.7,0,0.9-0.2l0,0c0,0.3,0.1,0.9,0.2,1.2H233z"></path> <path class="st0" d="M240.1,59.4h-0.3l0,0c0.2-0.2,0.2-0.3,0.2-0.7c0,0,0-4.2,0-4.2c0-0.3,0-0.5-0.2-0.7l0,0 c1.7,0.1,4.2-0.4,5.3,1.2c0.8,1.3,0.4,3.4-1.2,4C243,59.5,241.2,59.4,240.1,59.4z M242.1,58.5c0.8,0,1.6-0.2,2-0.9 c0.5-0.9,0.3-2.3-0.8-2.7c-0.5-0.2-1.5-0.2-2.1-0.2v3.7H242.1z"></path> <path class="st0" d="M249.7,59.5c-3.5,0.1-2.5-2.6-2.7-5c0-0.3,0-0.5-0.2-0.7l0,0c0.4,0,1.2,0,1.6,0l0,0 c-0.2,0.2-0.2,0.3-0.2,0.7c0,0,0,2.9,0,2.9c0,0.9,0.6,1.1,1.5,1.1c0.9,0,1.5-0.2,1.5-1.1c0,0,0-2.9,0-2.9c0-0.3,0-0.5-0.2-0.7 l0,0c0.4,0,1.1,0,1.5,0l0,0c-0.2,0.2-0.2,0.3-0.2,0.7C252.1,56.8,253.1,59.5,249.7,59.5z"></path> <path class="st0" d="M256.9,59.5c-2.6,0.2-3.8-2.4-2.8-4.5c1-1.8,3.6-1.4,5.2-0.8l0,0l-0.6,1l0,0c-0.5-0.8-2.1-0.8-2.9-0.4 c-1,0.4-1.1,1.9-0.7,2.8c0.7,1.3,3.1,1.2,3.8-0.2l0,0l0.5,1C258.9,59.2,257.8,59.5,256.9,59.5z"></path> <path class="st0" d="M266,58.9c0.1,0.3,0.2,0.4,0.3,0.5l0,0h-1.5l0,0c0.3-0.2-0.2-0.9-0.3-1.2h-2.9c-0.1,0.3-0.6,1-0.3,1.2l0,0 h-1.5l0,0c0.3,0,2-4.7,2.2-5c0.1-0.2,0.2-0.4,0-0.5l0,0h2v0c-0.2,0.1-0.1,0.3,0,0.5C264.2,54.4,266,58.9,266,58.9z M263.1,54.5 l-1.1,2.8h2.3L263.1,54.5z"></path> <path class="st0" d="M270.3,59.5c-2.6,0.2-3.8-2.4-2.8-4.5c1-1.8,3.6-1.4,5.2-0.8l0,0l-0.6,1l0,0c-0.5-0.8-2.1-0.8-2.9-0.4 c-1,0.4-1.1,1.9-0.7,2.8c0.7,1.3,3.1,1.2,3.8-0.2l0,0l0.5,1C272.3,59.2,271.2,59.5,270.3,59.5z"></path> <path class="st0" d="M274.4,59.4h-0.4l0,0c0.2-0.2,0.2-0.3,0.2-0.7c0,0,0-4.2,0-4.2c0-0.3,0-0.5-0.2-0.7l0,0c0.4,0,1.1,0,1.5,0 l0,0c-0.2,0.2-0.2,0.3-0.2,0.7c0,0,0,4.2,0,4.2c0,0.3,0,0.5,0.2,0.7l0,0C275.4,59.4,274.7,59.4,274.4,59.4z"></path> <path class="st0" d="M280.2,59.5c-4.1,0.3-4.1-6.1,0-5.8C284.3,53.4,284.3,59.8,280.2,59.5z M280.2,58.6c2.4,0.2,2.4-4.2,0-4 C277.7,54.4,277.7,58.8,280.2,58.6z M279.2,53l1.2-1.3h1.3L280,53H279.2z"></path> <path class="st0" d="M285.1,59.4l-0.3,0l0,0c0.2-0.2,0.2-0.3,0.2-0.7c0,0,0-4.2,0-4.2c0-0.3,0-0.5-0.2-0.7l0,0 c0.2,0,1.2,0,1.5,0l3.1,3.8h0v-3.1c0-0.3,0-0.5-0.2-0.7l0,0c0.4,0,1,0,1.4,0l0,0c-0.2,0.1-0.2,0.3-0.2,0.7c0,0,0,4.9,0,4.9h-1 l-3.4-4.2h0v3.5c0,0.3,0,0.5,0.2,0.7l0,0C285.9,59.4,285.3,59.4,285.1,59.4z"></path> <path class="st0" d="M153.7,68.9h-0.3l0,0c0.2-0.2,0.2-0.3,0.2-0.7c0,0,0-4.2,0-4.2c0-0.3,0-0.5-0.2-0.7l0,0 c1.7,0.1,4.2-0.4,5.3,1.2c0.8,1.3,0.4,3.4-1.2,4C156.5,69,154.7,68.9,153.7,68.9z M155.6,68c2.2,0.2,3.2-2.6,1.2-3.5 c-0.5-0.2-1.5-0.2-2.1-0.2V68H155.6z"></path> <path class="st0" d="M160.9,68.9h-0.3l0,0c0.2-0.2,0.2-0.3,0.2-0.7c0,0,0-4.2,0-4.2c0-0.3,0-0.5-0.2-0.7l0,0h0.3h4.6 c0,0.2-0.1,0.8-0.2,1c-0.2-0.2-0.4-0.2-0.7-0.2c0,0-2.7,0-2.7,0v1.5h2.2c0.3,0,0.5,0,0.7-0.2l0,0c0,0.3,0,0.8,0,1.1l0,0 c-0.2-0.2-0.4-0.2-0.7-0.2c0,0-2.2,0-2.2,0v1.6h2.7c0.3,0,0.6,0,0.7-0.2l0,0c0,0.2,0.1,0.8,0.2,1H160.9z"></path> <path class="st0" d="M167.3,68.9H167l0,0c0.2-0.2,0.2-0.3,0.2-0.7c0,0,0-4.2,0-4.2c0-0.3,0-0.5-0.2-0.7l0,0c0.4,0,1.1,0,1.5,0 l0,0c-0.2,0.2-0.2,0.3-0.2,0.7c0,0,0,3.9,0,3.9h2.3c0.4,0,0.6,0,0.7-0.2l0,0c0,0.2,0.1,0.9,0.1,1.1H167.3z"></path> <path class="st0" d="M177.1,68.9h-0.4l0,0c0.2-0.2,0.2-0.4,0.2-0.8c0,0,0-5,0-5c0-0.4,0-0.6-0.2-0.8l0,0h0.4h5.2 c0,0.3-0.2,0.9-0.2,1.2h0c-0.2-0.3-0.5-0.2-0.9-0.3c0,0-3.1,0-3.1,0v1.9h2.6c0.4,0,0.6,0,0.8-0.2l0,0c0,0.4,0,0.9,0,1.3l0,0 c-0.2-0.2-0.4-0.2-0.8-0.2c0,0-2.6,0-2.6,0v2h3.1c0.4,0,0.7,0,0.9-0.2l0,0c0,0.3,0.1,0.9,0.2,1.2H177.1z"></path> <path class="st0" d="M186,69.1c-1,0-2.1-0.2-2.8-0.9l0.4-1h0c0.3,1.1,3.7,1.6,3.8,0.1c0-0.4-0.4-0.6-0.8-0.7 c-0.9-0.2-2.2-0.1-2.8-0.8c-1.1-1.5,0.6-2.7,2.3-2.5c1-0.1,1.6,0.4,2.5,0.5l-0.5,1h0c-0.4-0.9-4.2-1.1-3.2,0.5 c1,0.6,2.6,0.1,3.4,1C189.5,67.9,187.8,69.2,186,69.1z"></path> <path class="st0" d="M191.9,68.9h-0.3l0,0c0.2-0.2,0.2-0.3,0.2-0.7c0,0,0-3.9,0-3.9h-1.4c-0.3,0-0.5,0-0.6,0.2l0,0 c0-0.2-0.2-0.9-0.2-1.1h5.7c-0.1,0.2-0.2,0.9-0.2,1.1c-0.1-0.2-0.3-0.2-0.6-0.2c0,0-1.4,0-1.4,0v3.9c0,0.3,0,0.5,0.2,0.7l0,0 C192.9,68.9,192.1,68.9,191.9,68.9z"></path> <path class="st0" d="M201.7,68.4c0.1,0.3,0.2,0.4,0.3,0.5l0,0h-1.5l0,0c0.3-0.2-0.2-0.9-0.3-1.2h-2.9c-0.1,0.3-0.6,1-0.3,1.2 l0,0h-1.5l0,0c0.3,0,2-4.7,2.2-5c0.1-0.2,0.2-0.4,0-0.5l0,0h2v0c-0.2,0.1-0.1,0.3,0,0.5C199.8,63.9,201.7,68.4,201.7,68.4z M198.8,64l-1.1,2.8h2.3L198.8,64z"></path> <path class="st0" d="M203.4,68.9h-0.3l0,0c0.2-0.2,0.2-0.3,0.2-0.7c0,0,0-4.2,0-4.2c0-0.3,0-0.5-0.2-0.7l0,0 c1.7,0.1,4.2-0.4,5.3,1.2c0.8,1.3,0.4,3.4-1.2,4C206.3,69,204.5,68.9,203.4,68.9z M205.3,68c2.2,0.2,3.2-2.6,1.2-3.5 c-0.5-0.2-1.5-0.2-2.1-0.2V68H205.3z"></path> <path class="st0" d="M213.1,69c-4.1,0.3-4.1-6.1,0-5.8C217.2,63,217.2,69.3,213.1,69z M213.1,68.1c2.4,0.2,2.4-4.2,0-4 C210.6,64,210.6,68.3,213.1,68.1z"></path> <path class="st0" d="M221.9,68.9h-0.3l0,0c0.2-0.2,0.2-0.3,0.2-0.7c0,0,0-4.2,0-4.2c0-0.3,0-0.5-0.2-0.7l0,0 c1.7,0.1,4.2-0.4,5.3,1.2c0.8,1.3,0.4,3.4-1.2,4C224.8,69,223,68.9,221.9,68.9z M223.8,68c2.2,0.2,3.2-2.6,1.2-3.5 c-0.5-0.2-1.5-0.2-2.1-0.2V68H223.8z"></path> <path class="st0" d="M229.2,68.9h-0.3l0,0c0.2-0.2,0.2-0.3,0.2-0.7c0,0,0-4.2,0-4.2c0-0.3,0-0.5-0.2-0.7l0,0h0.3h4.6 c0,0.2-0.1,0.8-0.2,1c-0.2-0.2-0.4-0.2-0.7-0.2c0,0-2.7,0-2.7,0v1.5h2.2c0.3,0,0.5,0,0.7-0.2l0,0c0,0.3,0,0.8,0,1.1l0,0 c-0.2-0.2-0.4-0.2-0.7-0.2c0,0-2.2,0-2.2,0v1.6h2.7c0.3,0,0.6,0,0.7-0.2l0,0c0,0.2,0.1,0.8,0.2,1H229.2z"></path> <path class="st0" d="M239.7,68.9h-0.4l0,0c0.2-0.2,0.2-0.4,0.2-0.8c0,0,0-5,0-5c0-0.4,0-0.6-0.2-0.8l0,0c2,0.1,4.9-0.4,6.1,1.5 c1,1.6,0.5,4.1-1.4,4.8C243,69.1,240.9,68.9,239.7,68.9z M241.8,67.9c1,0,1.9-0.2,2.4-1.1c0.6-1.1,0.4-2.9-0.9-3.4 c-0.6-0.3-1.8-0.3-2.6-0.3v4.7H241.8z"></path> <path class="st0" d="M250.1,69c-3.5,0.1-2.5-2.6-2.7-5c0-0.3,0-0.5-0.2-0.7l0,0c0.4,0,1.2,0,1.6,0l0,0 c-0.2,0.2-0.2,0.3-0.2,0.7c0,0,0,2.9,0,2.9c0,0.9,0.6,1.1,1.5,1.1c0.9,0,1.5-0.2,1.5-1.1c0,0,0-2.9,0-2.9c0-0.3,0-0.5-0.2-0.7 l0,0c0.4,0,1.1,0,1.5,0l0,0c-0.2,0.2-0.2,0.3-0.2,0.7C252.5,66.3,253.5,69.1,250.1,69z"></path> <path class="st0" d="M254.7,68.9h-0.3l0,0c0.2-0.2,0.2-0.3,0.2-0.7c0,0,0-4.2,0-4.2c0-0.3,0-0.5-0.2-0.7l0,0 c1.2,0.1,3.8-0.2,4.8,0.4c1.1,0.7,0.7,2.6-0.7,2.7c1.3,0.2,0.9,1.7,1.5,2.5c-0.2,0-1.1,0-1.3,0l-0.2-1.2 c-0.2-1.2-1.8-0.7-2.7-0.8c0.1,0.4-0.2,1.8,0.2,2l0,0C255.7,68.9,255,68.9,254.7,68.9z M257.3,66.1c1.1,0.1,1.8-0.9,1-1.7 c-0.5-0.4-2-0.2-2.6-0.2v1.9H257.3z"></path> <path class="st0" d="M266.8,68.4c0.1,0.3,0.2,0.4,0.3,0.5l0,0h-1.5l0,0c0.3-0.2-0.2-0.9-0.3-1.2h-2.9c-0.1,0.3-0.6,1-0.3,1.2 l0,0h-1.5l0,0c0.3,0,2-4.7,2.2-5c0.1-0.2,0.2-0.4,0-0.5l0,0h2v0c-0.2,0.1-0.1,0.3,0,0.5C264.9,63.9,266.8,68.4,266.8,68.4z M263.9,64l-1.1,2.8h2.3L263.9,64z"></path> <path class="st0" d="M268.5,68.9l-0.3,0l0,0c0.2-0.2,0.2-0.3,0.2-0.7c0,0,0-4.2,0-4.2c0-0.3,0-0.5-0.2-0.7l0,0 c0.2,0,1.2,0,1.5,0l3.1,3.8h0v-3.1c0-0.3,0-0.5-0.2-0.7l0,0c0.4,0,1,0,1.4,0l0,0c-0.2,0.1-0.2,0.3-0.2,0.7c0,0,0,4.9,0,4.9h-1 l-3.4-4.2h0v3.5c0,0.3,0,0.5,0.2,0.7l0,0C269.4,68.9,268.8,68.9,268.5,68.9z"></path> <path class="st0" d="M278.5,69c-2.6,0.2-3.7-2.4-2.7-4.5c1-1.8,3.5-1.3,5.2-0.8l0,0l-0.6,1h0c-0.5-0.8-2.1-0.8-2.9-0.4 c-1,0.5-1.1,2-0.7,2.9c0.7,1.5,3.6,1.1,3.4-0.8c-0.4,0-1.6-0.1-1.9,0.1l-0.1,0l0.1-0.8h3C281.6,67.6,280.5,69.1,278.5,69z"></path> <path class="st0" d="M285.6,69c-4.1,0.3-4.1-6.1,0-5.8C289.7,63,289.6,69.3,285.6,69z M285.6,68.1c2.4,0.2,2.4-4.2,0-4 C283.1,64,283.1,68.3,285.6,68.1z"></path> </g> </g> </g> <g> <g> <path class="st0" d="M161.4,47.4c-5.3-0.1-11-0.8-15.5-3.2l2.8-7.2h0.2c1.6,3.8,7.9,4.5,11.8,4.6c3.5-0.2,7.6,0,7.9-3.2 c-0.3-3.7-4.9-3.1-8.1-3.6c-4.5-0.5-7.7-0.3-10.8-3.1c-2.4-2.1-2.4-7.6,0-9.9c3.3-3.4,8.2-3.8,13.6-3.9 c4.9-0.2,9.2,1.4,13.8,1.9l0,0.1l-3.2,6.7h-0.2c-1.3-3.5-17.2-5.2-17.4-0.6c0.2,3.2,4.7,2.7,7.5,3.1c2.7,0.2,5,0.5,6.8,0.9 c1.8,0.4,3.3,1.2,4.6,2.5c2.5,2.2,2.6,8.3,0.2,10.9C171.9,46.9,166.9,47.3,161.4,47.4z"></path> <path class="st0" d="M187.4,46.7h-2.2l0-0.1c1.2-0.9,1-1.9,1.1-3.7c0,0,0-20.4,0-20.4c-0.1-1.8,0-2.8-1.1-3.7l0-0.1h2.2h26.3 c-0.3,1.5-1,5.4-1.2,6.9l-0.1,0c-0.9-1.3-2.3-1.1-4.1-1.2c0,0-13.8,0-13.8,0l0,5.5H206c1.8-0.1,2.8,0.1,3.7-1.2l0.1,0 c0,2.1,0,5.1,0,7.2l-0.1,0c-0.9-1.2-1.9-1.1-3.7-1.2c0,0-11.6,0-11.6,0v6.1h14c1.8-0.1,3.1,0,4-1.1l0.1,0 c0.3,1.5,0.9,5.4,1.2,6.9H187.4z"></path> <path class="st0" d="M224.1,46.7h-2.2l0-0.1c1.2-0.9,1-1.9,1.1-3.7c0,0,0-20.4,0-20.4c-0.1-1.8,0-2.8-1.1-3.7l0-0.1h2.2h26.3 c-0.3,1.5-1,5.4-1.2,6.9l-0.1,0c-0.9-1.3-2.3-1.1-4.1-1.2c0,0-13.8,0-13.8,0l0,5.5h11.6c1.8-0.1,2.8,0.1,3.7-1.2l0.1,0 c0,2.1,0,5.1,0,7.2l-0.1,0c-0.9-1.2-1.9-1.1-3.7-1.2c0,0-11.6,0-11.6,0v6.1h14c1.8-0.1,3.1,0,4-1.1l0.1,0 c0.3,1.5,0.9,5.4,1.2,6.9H224.1z"></path> <path class="st0" d="M260.9,46.7h-2.2l0-0.1c1.2-0.9,1-1.9,1.1-3.7c0,0,0-20.4,0-20.4c-0.1-1.8,0-2.8-1.1-3.7l0-0.1 c1.2,0,12,0,13.5,0c7,0.1,13.5,1.2,17.5,6.3c3.1,3.9,3,11.4,0,15.4c-1.5,2.1-3.7,3.7-6.7,4.8C277.8,47.3,266.9,46.6,260.9,46.7z M272.3,40.5c4,0,7.7-0.7,9.9-3.6c2.7-3.8,1.1-9.8-3.8-11.1c-2.5-1-7.3-0.9-10.3-0.9v15.5H272.3z"></path> </g> </g> </g> <g> <g> <g> <path class="st1" d="M5.6,57.4c-1.3-0.5-2,1.2-1,1.9c0.5,0.2,1.3,0.1,1.5-0.4C6.4,58.3,6.2,57.6,5.6,57.4z M5.7,58.7 C5.6,58.9,5.3,59,5,58.9c-0.4-0.1-0.4-0.6-0.3-0.9c0.1-0.4,0.8-0.4,0.9,0.1C5.7,58.3,5.7,58.5,5.7,58.7z"></path> <path class="st1" d="M8.2,59c-0.4,0-0.8,0-1.2,0c0.3-0.4,0.9-0.4,1.1-0.8c0.3-0.8-1-1-1.5-0.7c0,0.1,0,0.3,0,0.5 c0.2-0.2,1.2-0.4,1.1,0.1c-0.3,0.3-0.7,0.4-1,0.6c-0.2,0.2-0.2,0.4-0.2,0.7c0.5,0.1,1.1,0,1.7,0C8.3,59.3,8.2,59.1,8.2,59 C8.3,59,8.3,59,8.2,59z"></path> <path class="st1" d="M10.2,59c-0.4,0-0.8,0-1.2,0c0.3-0.4,0.9-0.4,1.1-0.8c0.3-0.8-1-1-1.5-0.7c0,0.1,0,0.3,0,0.5 c0.2-0.2,1.3-0.4,1,0.1c-0.3,0.3-0.7,0.3-0.9,0.6c-0.2,0.2-0.2,0.4-0.2,0.7c0.5,0.1,1.1,0,1.7,0C10.3,59.3,10.2,59.1,10.2,59 C10.3,59,10.2,59,10.2,59z"></path> <path class="st1" d="M3.8,59c-0.4,0-0.8,0-1.2,0c0.3-0.4,0.9-0.4,1.1-0.8c0.3-0.8-1-1-1.5-0.7c0,0.1,0,0.3,0,0.5 c0.2-0.2,1.3-0.4,1,0.1c-0.3,0.3-0.7,0.3-0.9,0.6c-0.2,0.2-0.2,0.4-0.2,0.7c0.5,0.1,1.1,0,1.7,0C3.9,59.3,3.8,59.1,3.8,59 C3.8,59,3.8,59,3.8,59z"></path> </g> <g> <path class="st1" d="M107.6,58.4c-0.1-0.1-0.2-0.1-0.3-0.2c0.8-0.5-0.1-1.1-0.8-1c-0.5,0-0.9,0.7-0.3,1c-0.4,0.1-0.6,0.7-0.2,1 C106.6,59.7,108.2,59.3,107.6,58.4z M106.4,57.8c0.2-0.1,0.4-0.1,0.6,0C107.6,58.2,106,58.3,106.4,57.8z M107.1,59 c-0.3,0.2-1.2-0.1-0.6-0.5C106.8,58.3,107.6,58.5,107.1,59z"></path> <path class="st1" d="M102.8,57.4c-1.3-0.5-2,1.2-1,1.9c0.5,0.2,1.3,0.1,1.5-0.4C103.5,58.3,103.4,57.6,102.8,57.4z M102.9,58.7 c-0.1,0.2-0.4,0.3-0.6,0.2c-0.4-0.1-0.4-0.6-0.3-0.9c0.1-0.3,0.4-0.3,0.6-0.3C103,57.9,103,58.4,102.9,58.7z"></path> <path class="st1" d="M105.4,59c-0.4,0-0.8,0-1.2,0c0.3-0.4,0.9-0.4,1.1-0.8c0.3-0.8-1-1-1.5-0.7c-0.1,0.1,0,0.3,0,0.5 c0.2-0.2,1.2-0.4,1.1,0.1c-0.3,0.3-0.7,0.4-1,0.7c-0.2,0.2-0.2,0.4-0.2,0.7c0.5,0,1.1,0,1.7,0C105.5,59.3,105.4,59.1,105.4,59 C105.4,59,105.4,59,105.4,59z"></path> <path class="st1" d="M101,59c-0.4,0-0.8,0-1.2,0c0.3-0.4,0.9-0.4,1.1-0.8c0.3-0.9-1-1-1.5-0.7c-0.1,0.1,0,0.3,0,0.5 c0.2-0.2,1.3-0.4,1,0.1c-0.3,0.3-0.7,0.3-0.9,0.6c-0.2,0.2-0.2,0.4-0.2,0.7c0.5,0.1,1.1,0,1.7,0C101.1,59.3,101,59.1,101,59 C101,59,101,59,101,59z"></path> </g> <g> <g> <path class="st1" d="M29,67.8c0.3,0.1,0.7,0.1,1,0C29.6,67.9,29.3,67.9,29,67.8z"></path> <path class="st1" d="M34.1,66.6c0,0-0.1,0-0.2-0.1c0.4-0.1,0.5-0.8,0.1-1c-0.6-0.3-1.3-0.1-1.9-0.1c-0.1,0.7,0,1.6,0,2.4 c0.7-0.1,2.2,0.4,2.3-0.7C34.5,66.9,34.3,66.7,34.1,66.6z M32.7,65.9c0.3,0.1,1-0.2,1.1,0.2c-0.1,0.4-0.7,0.2-1.1,0.2 C32.7,66.2,32.7,66.1,32.7,65.9z M33.6,67.3c-0.3,0-0.6,0-0.9,0c0-0.2-0.1-0.4,0-0.5c0.3,0.1,1-0.2,1.1,0.2 C33.8,67.2,33.8,67.3,33.6,67.3z"></path> <path class="st1" d="M30.1,65.5c-0.7-0.2-1.7-0.1-1.9,0.7c-0.2,0.6,0,1.3,0.6,1.5c0.7,0.2,1.6,0.2,1.9-0.6 C31,66.5,30.8,65.7,30.1,65.5z M30.2,66.9c-0.3,0.8-1.8,0.5-1.5-0.5C29.1,65.6,30.6,65.9,30.2,66.9z"></path> <path class="st1" d="M49.8,65.5c-0.7-0.2-1.7-0.1-1.9,0.7c-0.2,0.6,0,1.3,0.6,1.5c0.7,0.2,1.6,0.2,1.9-0.6 C50.8,66.5,50.5,65.7,49.8,65.5z M50,66.9c-0.3,0.8-1.8,0.5-1.5-0.5C48.8,65.6,50.3,65.9,50,66.9z"></path> <path class="st1" d="M42.8,66.9c0.6-0.2,0.7-1.2,0-1.4c-0.6-0.2-1.2-0.1-1.7-0.1c-0.1,0.7,0,1.6,0,2.4c0.2,0,0.4,0,0.5,0 c0-0.3,0-0.5,0-0.8c0.2,0,0.4,0,0.6,0c0.2,0.2,0.3,0.5,0.5,0.7c0.2,0.1,0.5,0,0.7,0C43.2,67.5,43,67.2,42.8,66.9 C42.8,66.9,42.8,66.9,42.8,66.9z M42.6,66.4c-0.2,0.1-0.4,0.1-0.6,0.1c0,0,0,0,0,0c-0.1,0-0.3,0.1-0.4,0c0-0.2,0-0.3,0-0.5 c0.2-0.1,0.6,0,0.8,0C42.7,65.9,42.8,66.3,42.6,66.4z"></path> <path class="st1" d="M27,66.4c-0.4,0-0.9,0-1.3,0c0,0.2,0,0.3,0,0.5c0.3,0,0.5,0,0.8,0c0,0.1,0.1,0.4-0.1,0.4 c-0.3,0.1-0.6,0.1-0.8,0C25,67.1,25,66.1,25.6,66c0.4-0.1,0.8-0.1,1.2,0.2c0-0.2,0.1-0.4,0-0.6c-0.2-0.1-0.4-0.1-0.6-0.1 c-0.9-0.1-1.8,0.5-1.6,1.4c0.1,1.1,1.6,1.3,2.4,0.7C27.1,67.2,27,66.8,27,66.4z"></path> <path class="st1" d="M46.3,65.4c0,0.5,0,0.9,0,1.4c-0.8-0.9-0.7-1.6-1.7-1.4c0,0.8,0,1.6,0,2.4c0.2,0,0.3,0,0.5,0 c0-0.5,0-1.1,0-1.6c0.4,0.5,0.7,1.1,1.1,1.6c0.1,0.1,0.3,0,0.5,0c0-0.8,0-1.6,0-2.4C46.6,65.4,46.5,65.4,46.3,65.4z"></path> <path class="st1" d="M39.2,67.3c-0.2,0-0.7,0.1-0.8-0.1c0-0.1,0-0.3,0-0.4c0.4,0,0.7,0,1.1,0c0-0.2,0-0.3,0-0.5 c-0.3,0-0.7,0-1,0c-0.1,0,0-0.3-0.1-0.4c0.2-0.2,0.9,0,1.2-0.1c0.1,0,0-0.4,0.1-0.5c-0.6,0-1.3,0-1.9,0c0,0.8,0,1.6,0,2.4 c0.6,0,1.3,0,1.9,0c0-0.2,0-0.3,0-0.5C39.5,67.3,39.4,67.3,39.2,67.3z"></path> <path class="st1" d="M35.8,65.4c-0.2,0.7,0,1.6-0.1,2.4c0.2,0,0.4,0,0.6,0c0-0.8,0-1.6,0-2.4C36.2,65.4,36,65.4,35.8,65.4z"></path> </g> <g> <path class="st1" d="M55,65.4c-0.4,0-0.8,0-1.2,0c0,0.8,0,1.6,0,2.4c0.7,0,1.5,0.2,2-0.4C56.6,66.7,56,65.4,55,65.4z M55.5,67 c-0.2,0.4-0.7,0.3-1.1,0.3c0-0.4,0-0.9,0-1.3C55.1,65.9,55.8,66.1,55.5,67z"></path> <path class="st1" d="M70.6,66.5c-0.4-0.2-0.8-0.1-1.2-0.3c-0.4-0.5,1.1-0.3,1.3-0.1c0-0.2,0.1-0.5-0.1-0.6 c-0.3-0.1-0.6-0.1-0.9-0.1c-0.8-0.1-1.5,0.8-0.6,1.3c0.4,0.1,0.8,0.1,1.1,0.2c0.4,0.7-1.2,0.4-1.5,0.2c0,0.2,0,0.4,0,0.6 c0.3,0.1,0.7,0.2,1,0.2C70.5,68,71.4,67.1,70.6,66.5z"></path> <path class="st1" d="M67.3,67.3c-0.4,0-0.8,0-1.2,0c-0.1,0,0-0.3,0-0.5c0.4,0,0.7,0,1.1,0c0.1,0,0-0.4,0-0.5 c-0.4,0-0.7,0-1.1,0c0-0.1,0-0.3,0-0.4c0.4,0,0.9,0,1.3,0c0-0.1,0.1-0.5,0-0.5c-0.6,0-1.2,0-1.8,0c-0.1,0.7,0,1.6,0,2.4 c0.6,0,1.3,0,1.9,0C67.3,67.7,67.3,67.5,67.3,67.3C67.3,67.3,67.3,67.3,67.3,67.3z"></path> <path class="st1" d="M58.9,67.3c-0.2,0-0.7,0.1-0.8-0.1c0-0.1,0-0.3,0-0.4c0.4,0,0.7,0,1.1,0c0-0.2,0-0.3,0-0.5 c-0.3,0-0.9,0.1-1.1-0.1c0-0.1-0.1-0.4,0.1-0.4c0.4,0,0.8,0,1.2,0c0.1,0,0.1,0,0.1-0.1c0-0.1,0-0.3,0-0.4c-0.6,0-1.3,0-1.9,0 c0,0.8,0,1.6,0,2.4c0.6,0,1.3,0,1.9,0c0-0.2,0-0.3,0-0.5C59.2,67.3,59,67.3,58.9,67.3z"></path> <path class="st1" d="M74.2,65.5c-0.7-0.2-1.6,0-2.3-0.1c0,0.2,0,0.3,0,0.5c0.1,0.1,0.6,0,0.8,0c0.2,0.5,0,1.3,0.1,1.9 c0.2,0,0.4,0,0.6,0c0-0.6,0-1.2,0-1.9c0.3,0,0.5,0,0.8,0C74.2,65.9,74.1,65.6,74.2,65.5z"></path> <path class="st1" d="M61.3,67.2c0-0.6,0-1.2,0-1.7c0-0.1-0.4,0-0.6-0.1c0,0.8,0,1.6,0,2.4c0.6,0,1.1,0,1.7,0c0-0.2,0-0.3,0-0.5 C62,67.3,61.7,67.3,61.3,67.2C61.3,67.3,61.3,67.2,61.3,67.2z"></path> </g> <g> <path class="st1" d="M84.9,66.3c-0.2-0.9-1.2-1.1-1.9-0.8c-1.3,0.5-0.8,2.5,0.6,2.3c0,0,0,0,0,0C84.5,67.9,85.1,67.2,84.9,66.3 z M84.3,66.9c-0.3,0.8-1.8,0.5-1.5-0.5C83.2,65.6,84.6,65.9,84.3,66.9z"></path> <path class="st1" d="M79.9,65.4c-0.4,0-0.8,0-1.2,0c0,0.8,0,1.6,0,2.4c0.7,0,1.6,0.2,2.1-0.5C81.4,66.6,80.9,65.4,79.9,65.4z M80.3,67.1c-0.3,0.3-0.7,0.2-1,0.2c0-0.4,0-0.9,0-1.3c0.3,0,0.7-0.1,1,0.2C80.6,66.4,80.6,66.9,80.3,67.1z"></path> <path class="st1" d="M76.6,65.5c0-0.1-0.8-0.1-0.8,0c-0.3,0.8-0.6,1.6-0.9,2.3c0.2,0,0.4,0,0.6,0c0.1-0.1,0.1-0.3,0.2-0.4 c0.3-0.1,0.7,0,1,0c0.1,0.1,0.1,0.3,0.2,0.4c0.2,0.1,0.4,0,0.6,0C77.3,67,76.9,66.3,76.6,65.5z M75.9,66.9 c0.1-0.3,0.2-0.6,0.3-0.9c0.1,0.3,0.2,0.6,0.3,0.9C76.3,66.9,76.1,66.9,75.9,66.9z"></path> </g> </g> <g> <path class="st0" d="M12.5,63h-0.7l0,0c0.4-0.3,0.3-0.6,0.3-1.1c0,0,0-6.2,0-6.2c0-0.6,0-0.8-0.3-1.1l0,0 c2.1,0.1,5.5-0.2,7.4,0.5c3.6,1,3.6,6.5,0,7.5C17.7,63.2,14.4,63,12.5,63z M16,61.1c1.2,0,2.3-0.2,3-1.1c0.8-1.2,0.3-3-1.1-3.4 c-0.8-0.3-2.2-0.3-3.1-0.3v4.7H16z"></path> <path class="st0" d="M29.3,63.2c-5.7,0-4.7-3.4-4.8-7.5c0-0.6,0-0.8-0.4-1.1l0,0c0.8,0,2.4,0,3.3,0l0,0 c-0.4,0.3-0.3,0.6-0.3,1.1c0,0,0,4,0,4c0,1.3,0.8,1.6,2.2,1.6c1.4,0,2.2-0.3,2.2-1.6c0,0,0-4,0-4c0-0.6,0-0.8-0.3-1.1l0,0 c0.8,0,2.2,0,3.1,0l0,0c-0.4,0.3-0.3,0.6-0.4,1.1C33.8,59.6,34.8,63.2,29.3,63.2z"></path> <path class="st0" d="M37.5,63h-0.7l0,0c0.4-0.3,0.3-0.6,0.3-1.1c0,0,0-6.2,0-6.2c0-0.6,0-0.8-0.3-1.1l0,0c1.9,0.1,6-0.2,7.7,0.3 c2.7,0.5,2.6,4.5-0.3,4.5v0c0.9,0.2,1.5,0.5,1.7,1.4c0.2,0.6,0.3,2,0.8,2.3l0,0c-0.3,0-2.5,0-2.9,0c-0.2-0.6-0.3-2.2-0.9-2.5 c-0.5-0.4-2.8-0.2-3.5-0.2v1.6c0,0.6,0,0.8,0.3,1.1l0,0C39.5,63,38,63,37.5,63z M42.1,58.5c0.6,0,1.1-0.1,1.4-0.3 c0.6-0.3,0.6-1.3,0-1.6c-0.6-0.4-3-0.2-3.8-0.3v2.2H42.1z"></path> <path class="st0" d="M49.2,63h-0.8l0,0c0.3-0.2,0.4-0.4,0.6-0.9c0,0,3-6.7,3-6.7c0.1-0.4,0.3-0.7,0-0.9l0,0c1.1,0,3.3,0,4.4,0 l0,0c-0.3,0.2-0.1,0.5,0,0.9c0,0,2.9,6.7,2.9,6.7c0.2,0.5,0.3,0.7,0.6,0.9l0,0c-0.9,0-2.4,0-3.3,0l0,0c0.5-0.3-0.2-1.3-0.3-1.7 h-4.4c-0.1,0.4-0.8,1.4-0.3,1.7l0,0C51.1,63,49.7,63,49.2,63z M52.5,59.5h3.1l-1.6-3.6L52.5,59.5z"></path> <path class="st0" d="M64.4,61.8c0,0.6,0,0.8,0.3,1.1l0,0c-0.8,0-2.1,0-2.9,0l0,0c0.4-0.3,0.3-0.6,0.4-1.1c0,0,0-6.2,0-6.2 c0-0.6,0-0.8-0.4-1.1l0,0c0.4,0,2.4,0,2.9,0l4.6,4.9h0.1v-3.8c0-0.6,0-0.8-0.3-1.1l0,0c0.8,0,2.1,0,2.9,0l0,0 c-0.4,0.3-0.3,0.6-0.4,1.1c0,0,0,7.4,0,7.4h-2.1l-5.1-5.4h-0.1V61.8z"></path> <path class="st0" d="M80,63.2c-4.3,0.3-6.8-3.2-4.8-6.9c1.9-2.9,6.2-1.9,9.1-1.4l0,0l-1.1,2h0c-0.9-1.1-3.4-1-4.6-0.6 c-1.5,0.5-1.7,2.6-1.1,3.8c1,1.8,5.1,1.6,5-0.8c-0.7,0.1-2.6-0.2-3.2,0.2l-0.1,0l0.3-1.7h5.6C85.4,61.2,83.3,63.4,80,63.2z"></path> <path class="st0" d="M92.4,63.2c-2.9,0.1-5.4-1.4-5.3-4.5c-0.1-3,2.4-4.5,5.3-4.4c2.9-0.1,5.4,1.4,5.2,4.4 C97.7,61.8,95.3,63.3,92.4,63.2z M92.4,61.3c3.6,0.3,3.6-5.4,0-5.1C88.7,55.9,88.7,61.5,92.4,61.3z"></path> </g> </g> <g> <g> <path class="st0" d="M65.1,17.4c0,13.8-0.5,18.8-10.2,28.8c-9.7-10-10.2-14.9-10.2-28.8c-0.9,0.3-1.7,0.5-2.6,0.9 c0,15,1.3,19.1,12.7,29c11.4-9.9,12.7-14,12.7-29C66.8,17.9,66,17.7,65.1,17.4z"></path> </g> <path class="st2" d="M54.7,47.4c0.9-0.4-2.2,0.7-4.1,3.2c0,0,0.7-0.5,2.6-0.6C53.1,50,52.9,48.2,54.7,47.4z"></path> <path class="st2" d="M55.2,47.4c-0.9-0.4,2.2,0.7,4.1,3.2c0,0-0.7-0.5-2.6-0.6C56.7,50,56.9,48.2,55.2,47.4z"></path> <g> <g> <path class="st1" d="M41,13.9c-9.9,19.9,11.9,32.4,11.9,32.4C37.9,34.8,39.4,19.1,41,13.9z"></path> </g> <g> <path class="st0" d="M41.4,36.3c-2.3-3.5-6.5-4-9.3-1.9c0,0,3.8-2.5,8.2,3c2.5,3.1,4.4,4.2,6.6,5.1 C45.7,41.6,44.2,40.6,41.4,36.3z"></path> </g> <path class="st1" d="M40.7,34.6c0,0-1.3-1.6-3-2.1c0,0-2-3-5.6-3.5C32,29,37.7,28.7,40.7,34.6z"></path> </g> <g> <g> <path class="st1" d="M68.8,13.9c9.9,19.9-11.9,32.4-11.9,32.4C72,34.8,70.4,19.1,68.8,13.9z"></path> </g> <g> <path class="st0" d="M68.4,36.3c2.3-3.5,6.5-4,9.3-1.9c0,0-3.8-2.5-8.2,3c-2.5,3.1-4.4,4.2-6.6,5.1 C64.1,41.6,65.6,40.6,68.4,36.3z"></path> </g> <path class="st1" d="M69.2,34.6c0,0,1.3-1.6,3-2.1c0,0,2-3,5.6-3.5C77.8,29,72.2,28.7,69.2,34.6z"></path> </g> <g> <path class="st0" d="M47.2,12.1c-0.4,13.3,1.1,24,7.7,33.2c6.7-9.2,8.1-20,7.7-33.3C58.1,14.4,51.7,14.4,47.2,12.1z"></path> </g> <g> <g> <path class="st0" d="M59.5,8.7c-0.8-1.3-1.9-1-1.9-1C57.4,7.5,57.1,7,56.3,7c-0.6,0-1.2,0.4-1.4,0.6C54.7,7.4,54.1,7,53.5,7 c-0.8,0-1.2,0.5-1.3,0.7c-2.2-0.2-2.8,2.9-1.9,4.4c0.3,0.4,0.4,0.5,0.5,0.6c0,0,1.7,0.5,4.1,0.5v0c0,0,0,0,0,0v0 c2.4,0,4.1-0.5,4.1-0.5c0.1-0.1,0.3-0.1,0.5-0.6C59.8,11.6,60.3,9.9,59.5,8.7z M50.8,12.1c-0.2,0-0.6-0.5-0.7-1.7 c0-1.3,0.6-2.2,1.7-2.4c0.1,0,0.1,0.1,0,0.1C50,8.3,49.9,11.2,50.8,12.1C50.8,12.1,50.8,12.1,50.8,12.1z M51.6,12.2 c-1.7-0.3-1.4-3.5,0-3.9c0.1-0.1,0.2-0.1,0.2,0.1c-0.1,0.2-0.2,0.5-0.2,1.6s0.7,2.2,0.7,2.2S51.8,12.3,51.6,12.2z M52.5,12.3 c-0.2,0.1-0.8-1.1-0.8-2.4c-0.1-2.1,1.8-3.4,3.1-1.9c0,0.1-0.1,0.1-0.1,0.1c-1.3-1.4-2.9-0.1-2.9,1.8 C51.8,11.1,52.5,12.2,52.5,12.3C52.6,12.2,52.6,12.3,52.5,12.3z M53.2,12.4c-1.4-0.6-1.6-3.5-0.4-4.5c0.8-0.6,1.9,0,1.5,0.8 c0,0-0.4,0.7-0.4,1.6c-0.1,1.8,0.4,2.2,0.4,2.2S53.9,12.5,53.2,12.4z M54.9,12.5c-0.8-0.2-0.8-3.8,0-4.2 C55.7,8.7,55.7,12.3,54.9,12.5z M56.5,12.4c-0.7,0.1-1.1,0.1-1.1,0.1s0.4-0.5,0.4-2.2c0-0.9-0.4-1.6-0.4-1.6 c-0.3-0.8,0.7-1.3,1.5-0.8C58.2,8.8,57.9,11.7,56.5,12.4z M57.3,12.3c-0.2,0,0.7-1.1,0.7-2.5c0.1-2-1.6-3.2-2.9-1.8 c0,0.1-0.1,0-0.1-0.1c1.3-1.5,3.2-0.2,3.1,1.9C58,11.2,57.4,12.3,57.3,12.3z M58.2,12.2c-0.2,0.1-0.6,0.1-0.6,0.1 s0.7-1.1,0.7-2.2s-0.1-1.5-0.2-1.6c-0.1-0.2,0-0.2,0.2-0.1C59.6,8.7,59.9,11.9,58.2,12.2z M59.1,12.1 C59,12.2,58.9,12.1,59.1,12.1c0.8-0.9,0.7-3.8-1.1-4c-0.1,0-0.1-0.1,0-0.1C59.9,8.2,60,11.2,59.1,12.1z"></path> </g> <g> <path class="st0" d="M55.2,7.2l-0.3-0.4l0,0l0.2-0.2l0.4,0.3l-0.1-0.3l0.1-0.3l-0.4,0.3l-0.2-0.2l0,0l0.3-0.4L54.9,6l-0.3-0.1 l0.3,0.4l0,0l-0.2,0.2l-0.4-0.3l0.1,0.3l-0.1,0.3l0.4-0.3l0.2,0.2l0,0l-0.3,0.4c0.1,0.1,0.2,0.2,0.3,0.2 C54.9,7.4,55,7.3,55.2,7.2z"></path> </g> <path class="st0" d="M59,12.9c0-0.1-0.1-0.1-0.2-0.1c-1.3,0.3-2.6,0.4-4,0.4c-1.3,0-2.7-0.2-4-0.4c-0.1,0-0.2,0-0.2,0.1 c0,0.1,0,0.2,0.1,0.2c1.3,0.3,2.7,0.5,4,0.5c1.4,0,2.7-0.2,4-0.5C59,13.1,59,13,59,12.9z"></path> </g> <path class="st3" d="M60.7,23.5c-0.1,1.9-1.9,3.5-3.5,2.3c0.5,0.5,1.2,0.8,1.8,0.6c-0.4,1.7-3.4,2.1-4.1,0.4 c-1.1,1.1-3.5,0.7-4.1-0.7c0.7,0.3,1.6,0,2.1-0.6c-3.6,2.1-5.2-4.9-1.3-5.2c-0.6-0.1-1.2,0.1-1.7,0.6c-0.3-2.2,3.2-4.4,4.7-2.3 c-0.3-0.6-0.9-1-1.5-1c1.1-1,2.8-1,3.8,0.1c-0.8,0.1-1.4,0.6-1.7,1.3c2.1-3.2,7.4,1.5,3.9,3.6c0.6-0.1,1-0.5,1.3-1 C60.5,22.2,60.7,22.8,60.7,23.5z"></path> <g> <path class="st4" d="M54.7,32.4c-0.1,1.1,0.1,2.5-0.8,3.1c-0.4,0.3-0.3,0.2-0.7,0.2c-0.4-0.1-0.7,0.2-0.9,0.3 c-0.2,0.1-0.6,0.1-0.6,0.2c0,0,0.7,0.1,1-0.1c0.5-0.2,1.7-0.1,1.6,0c-0.4,0.1-1.2,0.3-1.6,0.4c-0.2,0.1,0.3,0,1-0.1 c0.7-0.1,0.8,0,1.3,0c0.5-0.1,0.9,0,1.3,0.1c0.4,0.1,0.5,0.1,0.4,0c-0.5-0.3-0.8-0.4-1.4-0.4c-0.1,0,0.2-0.1,0.5-0.2 c0.6-0.1,0.8,0.2,1.4,0.1c0,0,0,0,0,0c0.1,0,1.6,0,1.1-0.1c-0.5,0-1.2-0.1-1.7-0.3c-1.1-0.4-0.9-2.2-0.9-3.4 C55.5,32.3,55.2,32.3,54.7,32.4z"></path> <path class="st4" d="M57.1,25.5c1.4,0,2-0.9,2-0.9c-0.9,0.8-2.5,0.4-2.5,0.4c0.7-0.4,1.1-1.2,1.1-1.2c1,0.1,1.4-0.5,1.4-0.5 c-0.4,0.4-1.2,0.2-1.2,0.2c0.4-0.6,0.5-1.7,0.5-1.7c-0.3,1.4-2.2,3.6-3.2,3.1c-0.1-0.2,0-0.4,0.6-1.1c0.6-0.7,0.6-1.3,0.6-1.3 c1.5-0.5,1.5-2.4,1.5-2.4s0,1.3-1.3,1.7c0,0,0-1.7-0.8-2.2c0,0,0.7,1.1,0.1,3c0,0,0-0.5-0.5-0.7c0.2,0.2,0.3,1.6-0.3,2 c-0.8,0.8-1.7-1.1-1.4-3.1c0,0-0.5,0.7-0.1,2.6c0,0-1.5-0.6-2-1.9c0,0,0.2,1.5,2.3,2.7c0,0,0.2,0.1,0.4,0.8 c0.2,0.7-0.6,0.9-1.5,0.4c-0.8-0.6-0.9-1.6-0.9-1.6s-0.1,0.8,0.2,1.3c0,0-0.6-0.1-1.2-0.6c0,0,0.3,0.5,1.5,1.1 c0.8,0.4,1.7,0.9,1.9,1.4c0.1,0.3,0.4,0.9,0.3,3.9c0.2-0.1,0.5-0.2,0.9-0.4C55.6,28.3,55.7,25.5,57.1,25.5z"></path> </g> <g> <path class="st4" d="M52.3,33.8c0,0.1,0.3,0,0.3,0c0.1-0.5,0.6-0.9,0.6-0.9C52.5,33.3,52.3,33.8,52.3,33.8z"></path> <path class="st4" d="M56.4,32.2c0.3,0.1-0.3,0.5-0.3,0.7c0,0.1,0.2,0.2,0.2,0.2c0,0,0-0.1,0.2-0.4c0.2-0.3,0.3-0.2,0.3-0.3 C56.8,32.3,56.4,32.2,56.4,32.2z"></path> <path class="st4" d="M58.8,32.2c-0.1,0,0-0.2-0.1-0.2c0,0-0.1,0-0.1,0c0,0.1,0.1,0.2,0.1,0.3c0,0.1,0.1,0.2,0.1,0.1 C58.8,32.3,58.8,32.2,58.8,32.2z"></path> <path class="st4" d="M59,31.6C59,31.5,59,31.5,59,31.6c0-0.1,0-0.3-0.1-0.2c0,0,0,0.1,0,0.1c0,0.1,0-0.1,0-0.1 c-0.1-0.2-0.1,0.2,0,0.2c0,0,0-0.1-0.1-0.1c-0.2-0.1-0.5,0-0.6,0.1c0.1-0.1,0.1-0.2,0.2-0.2c-0.1-0.1-0.1-0.2-0.1-0.2 c0.1-0.1-0.3-0.6-0.4-0.6c-0.3-0.7-0.3,0-0.2,0.2c-0.1-0.1-0.1-0.3-0.1-0.3c-0.7-0.4-2.4,0.6-3,0.7c-1.1,0.3-2.2-0.7-1.9-1.8 c-0.4,0.9-0.1,1.3-0.1,1.3c-0.1,0-0.2-0.1-0.2-0.1c0.3,0.8,1.4,1,1.4,1c0.1-0.1,0.1-0.2,0.2-0.2c-0.3,0.4-0.1,0.3-0.7,0.9 c-0.4,0.4-0.8,0.3-0.8,0.4c0,0.1,0,0.2-0.2,0.5c-0.2,0.3-0.4,0.4-0.4,0.4s-0.1,0,0,0.2c0.1,0.2,0.2,0.1,0.2,0.1 c0.2-0.5,1-1.3,2.1-1.5c1.1-0.1,0.7-0.9,0.7-0.9c0.4,0.3,0.1,0.7,0.1,0.7c2.5-0.4,2.9,0.9,2.9,0.9c0.4-0.1,0.1-0.3,0-0.5 c0-0.1,0-0.2,0-0.3c0-0.1,0.1-0.1,0.2-0.2c0,0.1-0.2,0.2-0.1,0.3c0,0,0,0.1,0,0.2c0,0.1,0.1,0.3,0.1,0.1c0,0,0,0.1,0,0.1 c0,0.1,0.1,0,0.1-0.1c0-0.2,0-0.2,0-0.4c0-0.1,0-0.2,0.1-0.2c0.2,0.1,0.2-0.1,0.3-0.1c0.3,0.1,0.2,0.1,0.3,0.3 c0.2,0.2,0-0.3-0.1-0.3c0.1,0,0.1-0.1,0.1-0.2c0,0.1,0.1,0.1,0.2,0.1c0,0,0.1,0,0.1-0.1C59,31.7,59.1,31.7,59,31.6z M58.1,31.6 C58.1,31.6,58.1,31.6,58.1,31.6c-0.1,0-0.2-0.1-0.2-0.1S57.9,31.5,58.1,31.6z M58.2,31.8c0,0.1-0.2,0-0.3-0.1 c-0.1,0.1-0.1,0.2-0.1,0.2c-0.1,0,0,0.2,0,0.1c0,0,0.1,0.2,0,0.2c-0.1,0,0,0.2-0.1,0.2c-0.4-0.3-0.9-0.5-1-0.5 c-0.1-0.1-0.1-0.2,0-0.4c0.2-0.2,0.1-0.4,0-0.4c0.3,0.4,0,0.6,0,0.6c0.4,0,0.8-0.3,0.8-0.3s0,0,0.2,0.2c0,0,0,0,0.1,0.1 c0,0,0,0,0,0C58,31.8,58.1,31.8,58.2,31.8c0-0.1-0.1-0.1-0.1-0.2C58.1,31.7,58.2,31.8,58.2,31.8z"></path> </g> </g> </g> <path class="st0" d="M121.8,36.9c0-6.9-0.5-12.8-0.9-15.4V5.3c0-0.5-0.7-0.5-0.7,0c0,0,0,16.1,0,16.1c-0.4,2.6-0.9,8.5-0.9,15.4 c0,6.9,0.5,12.8,0.9,15.4v16.1c0,0.5,0.7,0.5,0.7,0c0,0,0-16.1,0-16.1C121.3,49.7,121.8,43.8,121.8,36.9z"></path> </g> </svg> 